<svg xmlns="http://www.w3.org/2000/svg" viewBox="0 0 245 241"><defs><style>.cls-1{isolation:isolate;}.cls-2,.cls-7{fill:#fafafa;}.cls-2,.cls-3,.cls-4,.cls-5,.cls-6{stroke:#fff;stroke-miterlimit:10;stroke-width:16px;}.cls-3,.cls-8{fill:#e0e0e0;}.cls-4,.cls-9{fill:#bdbdbd;}.cls-10,.cls-5{fill:#f5f5f5;}.cls-11,.cls-6{fill:#212121;opacity:0.1;mix-blend-mode:multiply;}</style></defs><title>highlightMoon</title><g class="cls-1"><g id="Layer_1" data-name="Layer 1"><circle class="cls-2" cx="122" cy="122" r="99.44"/><circle class="cls-3" cx="59.43" cy="86.4" r="15.65"/><path class="cls-4" d="M45.11,87.74A15.65,15.65,0,0,1,71.15,76,15.65,15.65,0,1,0,49.05,98.12,15.59,15.59,0,0,1,45.11,87.74Z"/><path class="cls-5" d="M60,70.75h-.31a15.65,15.65,0,1,1-16,16c0,.1,0,.21,0,.31A16.27,16.27,0,1,0,60,70.75Z"/><circle class="cls-3" cx="163.4" cy="58.97" r="7.83"/><path class="cls-4" d="M156.24,59.64a7.83,7.83,0,0,1,13-5.86,7.83,7.83,0,1,0-11,11A7.8,7.8,0,0,1,156.24,59.64Z"/><path class="cls-5" d="M163.71,51.15h-.15a7.83,7.83,0,1,1-8,8c0,.05,0,.1,0,.15a8.14,8.14,0,1,0,8.14-8.14Z"/><circle class="cls-3" cx="190.79" cy="138.36" r="19.53"/><path class="cls-4" d="M172.93,140a19.53,19.53,0,0,1,32.48-14.62A19.53,19.53,0,1,0,177.84,153,19.45,19.45,0,0,1,172.93,140Z"/><path class="cls-5" d="M191.56,118.82h-.39a19.53,19.53,0,1,1-19.91,19.91c0,.13,0,.26,0,.39a20.3,20.3,0,1,0,20.3-20.3Z"/><circle class="cls-3" cx="138.6" cy="183.99" r="19.53"/><path class="cls-4" d="M120.73,185.66A19.53,19.53,0,0,1,153.21,171a19.53,19.53,0,1,0-27.57,27.57A19.45,19.45,0,0,1,120.73,185.66Z"/><path class="cls-5" d="M139.37,164.46H139a19.53,19.53,0,1,1-19.91,19.91c0,.13,0,.26,0,.39a20.3,20.3,0,1,0,20.3-20.3Z"/><circle class="cls-3" cx="99.93" cy="172.12" r="11"/><path class="cls-4" d="M89.87,173.06a11,11,0,0,1,18.29-8.23,11,11,0,1,0-15.52,15.52A11,11,0,0,1,89.87,173.06Z"/><path class="cls-5" d="M100.36,161.12h-.22a11,11,0,1,1-11.21,11.21c0,.07,0,.14,0,.22a11.43,11.43,0,1,0,11.43-11.43Z"/><circle class="cls-3" cx="120.39" cy="156.91" r="6.66"/><path class="cls-4" d="M114.3,157.48a6.66,6.66,0,0,1,11.07-5,6.66,6.66,0,1,0-9.4,9.4A6.63,6.63,0,0,1,114.3,157.48Z"/><path class="cls-5" d="M120.65,150.25h-.13a6.66,6.66,0,1,1-6.79,6.79s0,.09,0,.13a6.92,6.92,0,1,0,6.92-6.92Z"/><circle class="cls-3" cx="208.83" cy="110.76" r="7.53"/><path class="cls-4" d="M201.94,111.41a7.53,7.53,0,0,1,12.52-5.64,7.53,7.53,0,1,0-10.63,10.63A7.5,7.5,0,0,1,201.94,111.41Z"/><path class="cls-5" d="M209.12,103.23H209a7.53,7.53,0,1,1-7.67,7.67s0,.1,0,.15a7.83,7.83,0,1,0,7.83-7.83Z"/><circle class="cls-3" cx="69.46" cy="120.08" r="9.93"/><path class="cls-4" d="M60.38,120.93a9.92,9.92,0,0,1,16.51-7.43,9.92,9.92,0,1,0-14,14A9.89,9.89,0,0,1,60.38,120.93Z"/><path class="cls-5" d="M69.85,110.16h-.2a9.93,9.93,0,1,1-10.12,10.12c0,.07,0,.13,0,.2a10.32,10.32,0,1,0,10.32-10.32Z"/><circle class="cls-3" cx="92.05" cy="83.87" r="8.32"/><path class="cls-4" d="M84.44,84.58a8.32,8.32,0,0,1,13.83-6.22A8.32,8.32,0,1,0,86.53,90.1,8.28,8.28,0,0,1,84.44,84.58Z"/><path class="cls-5" d="M92.37,75.55h-.16A8.32,8.32,0,1,1,83.73,84c0,.05,0,.11,0,.16a8.65,8.65,0,1,0,8.65-8.65Z"/><circle class="cls-3" cx="77.06" cy="177.94" r="5.61"/><path class="cls-4" d="M71.93,178.42a5.61,5.61,0,0,1,9.33-4.2,5.61,5.61,0,1,0-7.92,7.92A5.59,5.59,0,0,1,71.93,178.42Z"/><path class="cls-5" d="M77.28,172.33h-.11A5.61,5.61,0,1,1,71.45,178s0,.07,0,.11a5.83,5.83,0,1,0,5.83-5.83Z"/><path class="cls-6" d="M122,201.67a110.82,110.82,0,0,1-96.8-56.8,99.47,99.47,0,0,0,193.6,0A110.82,110.82,0,0,1,122,201.67Z"/><circle class="cls-7" cx="122" cy="122" r="99.44"/><circle class="cls-8" cx="59.43" cy="86.4" r="15.65"/><path class="cls-9" d="M45.11,87.74A15.65,15.65,0,0,1,71.15,76,15.65,15.65,0,1,0,49.05,98.12,15.59,15.59,0,0,1,45.11,87.74Z"/><path class="cls-10" d="M60,70.75h-.31a15.65,15.65,0,1,1-16,16c0,.1,0,.21,0,.31A16.27,16.27,0,1,0,60,70.75Z"/><circle class="cls-8" cx="163.4" cy="58.97" r="7.83"/><path class="cls-9" d="M156.24,59.64a7.83,7.83,0,0,1,13-5.86,7.83,7.83,0,1,0-11,11A7.8,7.8,0,0,1,156.24,59.64Z"/><path class="cls-10" d="M163.71,51.15h-.15a7.83,7.83,0,1,1-8,8c0,.05,0,.1,0,.15a8.14,8.14,0,1,0,8.14-8.14Z"/><circle class="cls-8" cx="190.79" cy="138.36" r="19.53"/><path class="cls-9" d="M172.93,140a19.53,19.53,0,0,1,32.48-14.62A19.53,19.53,0,1,0,177.84,153,19.45,19.45,0,0,1,172.93,140Z"/><path class="cls-10" d="M191.56,118.82h-.39a19.53,19.53,0,1,1-19.91,19.91c0,.13,0,.26,0,.39a20.3,20.3,0,1,0,20.3-20.3Z"/><circle class="cls-8" cx="138.6" cy="183.99" r="19.53"/><path class="cls-9" d="M120.73,185.66A19.53,19.53,0,0,1,153.21,171a19.53,19.53,0,1,0-27.57,27.57A19.45,19.45,0,0,1,120.73,185.66Z"/><path class="cls-10" d="M139.37,164.46H139a19.53,19.53,0,1,1-19.91,19.91c0,.13,0,.26,0,.39a20.3,20.3,0,1,0,20.3-20.3Z"/><circle class="cls-8" cx="99.93" cy="172.12" r="11"/><path class="cls-9" d="M89.87,173.06a11,11,0,0,1,18.29-8.23,11,11,0,1,0-15.52,15.52A11,11,0,0,1,89.87,173.06Z"/><path class="cls-10" d="M100.36,161.12h-.22a11,11,0,1,1-11.21,11.21c0,.07,0,.14,0,.22a11.43,11.43,0,1,0,11.43-11.43Z"/><circle class="cls-8" cx="120.39" cy="156.91" r="6.66"/><path class="cls-9" d="M114.3,157.48a6.66,6.66,0,0,1,11.07-5,6.66,6.66,0,1,0-9.4,9.4A6.63,6.63,0,0,1,114.3,157.48Z"/><path class="cls-10" d="M120.65,150.25h-.13a6.66,6.66,0,1,1-6.79,6.79s0,.09,0,.13a6.92,6.92,0,1,0,6.92-6.92Z"/><circle class="cls-8" cx="208.83" cy="110.76" r="7.53"/><path class="cls-9" d="M201.94,111.41a7.53,7.53,0,0,1,12.52-5.64,7.53,7.53,0,1,0-10.63,10.63A7.5,7.5,0,0,1,201.94,111.41Z"/><path class="cls-10" d="M209.12,103.23H209a7.53,7.53,0,1,1-7.67,7.67s0,.1,0,.15a7.83,7.83,0,1,0,7.83-7.83Z"/><circle class="cls-8" cx="69.46" cy="120.08" r="9.93"/><path class="cls-9" d="M60.38,120.93a9.92,9.92,0,0,1,16.51-7.43,9.92,9.92,0,1,0-14,14A9.89,9.89,0,0,1,60.38,120.93Z"/><path class="cls-10" d="M69.85,110.16h-.2a9.93,9.93,0,1,1-10.12,10.12c0,.07,0,.13,0,.2a10.32,10.32,0,1,0,10.32-10.32Z"/><circle class="cls-8" cx="92.05" cy="83.87" r="8.32"/><path class="cls-9" d="M84.44,84.58a8.32,8.32,0,0,1,13.83-6.22A8.32,8.32,0,1,0,86.53,90.1,8.28,8.28,0,0,1,84.44,84.58Z"/><path class="cls-10" d="M92.37,75.55h-.16A8.32,8.32,0,1,1,83.73,84c0,.05,0,.11,0,.16a8.65,8.65,0,1,0,8.65-8.65Z"/><circle class="cls-8" cx="77.06" cy="177.94" r="5.61"/><path class="cls-9" d="M71.93,178.42a5.61,5.61,0,0,1,9.33-4.2,5.61,5.61,0,1,0-7.92,7.92A5.59,5.59,0,0,1,71.93,178.42Z"/><path class="cls-10" d="M77.28,172.33h-.11A5.61,5.61,0,1,1,71.45,178s0,.07,0,.11a5.83,5.83,0,1,0,5.83-5.83Z"/><path class="cls-11" d="M122,201.67a110.82,110.82,0,0,1-96.8-56.8,99.47,99.47,0,0,0,193.6,0A110.82,110.82,0,0,1,122,201.67Z"/></g></g></svg>