<svg id="Layer_1" data-name="Layer 1" xmlns="http://www.w3.org/2000/svg" viewBox="0 0 149.47 250.21"><defs><style>.cls-1{fill:#929292;}</style></defs><title>unknown character</title><path class="cls-1" d="M19.54,172.54l-.45-12.71,3.82-.13-.11-3.06,3.82-.14.05,1.53,3.82-.13.05,1.53,3.82-.13L34.84,172a1.91,1.91,0,0,1-3.82.13l.14,3.91a1.91,1.91,0,0,1-3.82.13l-.05-1.53a1.91,1.91,0,0,1-3.82.13l-.08-2.38a1.91,1.91,0,0,1-3.82.14Z"/><path class="cls-1" d="M35.69,163.2l-17.28,1.27c-1.7-23.13,8.44-35.77,17.26-42.3a46.4,46.4,0,0,1,19.82-8.46l2.32,17.17h.07a30,30,0,0,0-12.37,5.58C38.11,142.2,34.81,151.2,35.69,163.2Z"/><path class="cls-1" d="M126.41,171.1l.45-12.71-3.82-.13.11-3.06-3.82-.14-.05,1.53-3.82-.13-.05,1.53-3.82-.13-.45,12.71a1.91,1.91,0,0,0,3.82.13l-.14,3.91a1.91,1.91,0,0,0,3.82.13l.05-1.53a1.91,1.91,0,0,0,3.82.13l.08-2.38a1.91,1.91,0,0,0,3.82.14Z"/><path class="cls-1" d="M110.25,161.76,127.53,163c1.7-23.13-8.44-35.77-17.26-42.3a46.4,46.4,0,0,0-19.82-8.46l-2.32,17.17h-.07A30,30,0,0,1,100.44,135C107.83,140.76,111.14,149.76,110.25,161.76Z"/><path class="cls-1" d="M103.41,110.71S116.76,24,54.19,49.31c0,0-25,.14-14.74,63.82Z"/><path class="cls-1" d="M110.91,45.23c-8,10.76-23,20.65-50.71,14.07L52.51,74.13s-6.55-6.82-8.63.33,6.86,4.85,6.86,4.85S48,89.91,42.13,96.45A3.6,3.6,0,0,1,36,95c-4.55-16.89-16.4-68.18,10.66-57.15A30.25,30.25,0,0,1,69.52,25.63c11.81-.45,18.73,14.55,34.28,9.65A6.43,6.43,0,0,1,110.91,45.23Z"/><ellipse class="cls-1" cx="93.04" cy="75.46" rx="2.07" ry="3.57" transform="translate(-2.8 3.59) rotate(-2.18)"/><ellipse class="cls-1" cx="67.32" cy="76.06" rx="2.07" ry="3.57" transform="translate(-2.84 2.61) rotate(-2.17)"/><path class="cls-1" d="M70.76,87.37c.17,3.14,2.51,8.24,11.26,8.22,9,0,9-8.84,9-8.84a54.46,54.46,0,0,0-10.11-.91A31.11,31.11,0,0,0,70.76,87.37Z"/><path class="cls-1" d="M75.88,170a38.15,38.15,0,0,0-.57,8.47,7.41,7.41,0,0,0-5.22.25,38.15,38.15,0,0,0-1.39-8.38c1.17,0,2.37,0,3.59-.11S74.71,170.06,75.88,170Z"/><path class="cls-1" d="M87.7,211.22l-.48.49c0-.29.08-.58.11-.87Z"/><path class="cls-1" d="M61.48,213l-.52-.44.33-.41C61.35,212.4,61.41,212.69,61.48,213Z"/><path class="cls-1" d="M60.32,204.58a48,48,0,0,0,1,7.54l-.33.41a13.72,13.72,0,0,0-9.15-3.17,12.9,12.9,0,0,0-6,1.86c-2.61-5.57-3.49-14.45-2-24.13,1.21-7.67,3.72-14.39,6.79-19.08,3.82,1.5,10.38,2.39,18,2.31a38.15,38.15,0,0,1,1.39,8.38C63.93,181.31,59.71,192,60.32,204.58Z"/><path class="cls-1" d="M102.62,208.45a12.9,12.9,0,0,0-6.12-1.27,13.72,13.72,0,0,0-8.79,4l-.37-.38a48,48,0,0,0,.23-7.6c-.61-12.57-5.86-22.81-12.25-24.81a38.15,38.15,0,0,1,.57-8.47c7.62-.66,14.07-2.19,17.72-4,3.52,4.38,6.67,10.82,8.62,18.33C104.68,193.73,104.67,202.65,102.62,208.45Z"/><path class="cls-1" d="M65.42,219.73a3.64,3.64,0,0,1-.59,2.27c-1.64,2.43-6.5,3-12.25,3.28-7.22.35-13.1.12-13.32-4.27l6.38.53a51,51,0,0,0,13.48-.66l4.71-.86Z"/><path class="cls-1" d="M65.42,219.73l-1.59.29-4.71.86a51,51,0,0,1-13.48.66L39.27,221c-.15-3.07,2.5-7.35,6.57-9.78a12.9,12.9,0,0,1,6-1.86A13.72,13.72,0,0,1,61,212.53l.52.44C63.82,215,65.32,217.6,65.42,219.73Z"/><path class="cls-1" d="M110.11,217.55c.21,4.39-5.61,5.19-12.84,5.54-5.75.28-10.64.19-12.51-2.07a3.64,3.64,0,0,1-.81-2.2l1.61.13,4.77.4a51,51,0,0,0,13.48-.66Z"/><path class="cls-1" d="M110.11,217.55l-6.3,1.15a51,51,0,0,1-13.48.66l-4.77-.4L84,218.82c-.1-2.13,1.14-4.84,3.27-7.11l.48-.49a13.72,13.72,0,0,1,8.79-4,12.9,12.9,0,0,1,6.12,1.27C106.9,210.47,110,214.48,110.11,217.55Z"/><path class="cls-1" d="M89.45,161.12l-30.73,1c-7,.23-12.86-6.17-13.13-14.3l-1.19-36,55.33-1.32,1.93,35C102.13,153.83,96.61,160.89,89.45,161.12Z"/><path class="cls-1" d="M106.28,171.71l-.15-.82A2.56,2.56,0,0,1,106.28,171.71Z"/><path class="cls-1" d="M109.55,165.06,99.6,117.52c-5.31,3-15.28,5.11-26.74,5.24S51.37,121,46,118.15l-8.82,47.76h0a3.24,3.24,0,0,0,1.07,3A13,13,0,0,0,42,171c5.49,2.16,15,3.65,26.2,3.9,1.71,0,3.46.05,5.25,0s3.53-.08,5.24-.15c11.17-.52,20.67-2.23,26.11-4.52a13,13,0,0,0,3.73-2.2,3.23,3.23,0,0,0,1-3ZM61,158.42c-3.51,0-6.41-2.52-6.44-5.7L54.39,138c0-3.18,2.8-5.81,6.31-5.85l24.55-.29c3.51,0,6.41,2.52,6.44,5.7l.17,14.72c0,3.18-2.8,5.81-6.31,5.85Z"/><path class="cls-1" d="M31.06,140.47a.07.07,0,0,1-.08-.07C31.16,140.45,30.92,140.39,31.06,140.47Z"/><path class="cls-1" d="M34.2,141.13s.1,0,.14,0,0-.07,0-.06-.06.11-.17.1h0A.05.05,0,0,0,34.2,141.13Z"/><path class="cls-1" d="M34.14,141.08l.06,0A.06.06,0,0,1,34.14,141.08Z"/><path class="cls-1" d="M34.2,141.2h0Z"/><path class="cls-1" d="M47.18,150.09l0,.05A.12.12,0,0,1,47.18,150.09Z"/><path class="cls-1" d="M46.67,151.9v0S46.69,151.89,46.67,151.9Z"/><path class="cls-1" d="M43.22,144.79s0,0,0,0l.07,0Z"/><path class="cls-1" d="M47.27,149.9h0Z"/><path class="cls-1" d="M31.33,140.47c.06.09-.05.07-.1.09S31.3,140.5,31.33,140.47Z"/><path class="cls-1" d="M34.07,141.17s0,0,0-.05.05,0,.09,0S34.07,141.18,34.07,141.17Z"/><path class="cls-1" d="M34.78,141.34l-.24-.14C34.63,141.23,34.78,141.3,34.78,141.34Z"/><path class="cls-1" d="M35.48,141.37s0,0,0-.06S35.55,141.35,35.48,141.37Z"/><path class="cls-1" d="M35.51,141.47c0-.07.11,0,.12,0A.15.15,0,0,1,35.51,141.47Z"/><path class="cls-1" d="M37,141.75c0-.06.1.05.14,0S37,141.77,37,141.75Z"/><path class="cls-1" d="M37.65,142l0,0s.07.05,0,.06Z"/><polygon class="cls-1" points="48.39 146.98 48.34 147.04 48.35 146.98 48.39 146.98"/><path class="cls-1" d="M46.57,152.35s-.07,0,0-.08S46.6,152.29,46.57,152.35Z"/><polygon class="cls-1" points="44.88 154.82 44.83 154.76 44.9 154.81 44.88 154.82"/><path class="cls-1" d="M35.93,169.55l-.15.93A2.9,2.9,0,0,1,35.93,169.55Z"/><path class="cls-1" d="M81.88,135l-18.75.22a4.88,4.88,0,0,0-4.81,4.93l.15,12.42a4.89,4.89,0,0,0,4.93,4.82l18.75-.22A4.89,4.89,0,0,0,87,152.18l-.15-12.42A4.88,4.88,0,0,0,81.88,135Zm-7.5,17L71,152a5.87,5.87,0,0,1-.14-11.73l3.36,0A5.87,5.87,0,0,1,74.39,152Z"/><path class="cls-1" d="M80.18,146.06a5.88,5.88,0,0,1-5.8,5.94L71,152a5.87,5.87,0,0,1-.14-11.73l3.36,0A5.88,5.88,0,0,1,80.18,146.06Z"/><path class="cls-1" d="M85,131.17l-25.09.3a6.54,6.54,0,0,0-6.44,6.59l.2,16.62a6.54,6.54,0,0,0,6.59,6.44l25.09-.3a6.54,6.54,0,0,0,6.44-6.59l-.2-16.62A6.54,6.54,0,0,0,85,131.17Zm1.94,21a4.89,4.89,0,0,1-4.81,4.93l-18.75.22a4.89,4.89,0,0,1-4.93-4.82l-.15-12.42a4.88,4.88,0,0,1,4.81-4.93L81.88,135a4.88,4.88,0,0,1,4.93,4.81Z"/><path class="cls-1" d="M80.17,144.76a5.88,5.88,0,0,1-5.8,5.94l-3.36,0A5.87,5.87,0,0,1,70.88,139l3.36,0A5.88,5.88,0,0,1,80.17,144.76Z"/><path class="cls-1" d="M97.81,152.17h0A2.59,2.59,0,0,1,95,149.76l-.73-10.55a2.59,2.59,0,0,1,2.41-2.76h0a2.59,2.59,0,0,1,2.76,2.41l.73,10.55A2.59,2.59,0,0,1,97.81,152.17Z"/><path class="cls-1" d="M47.63,152.76h0a2.59,2.59,0,0,0,2.71-2.47l.48-10.56A2.59,2.59,0,0,0,48.34,137h0a2.59,2.59,0,0,0-2.71,2.47l-.48,10.56A2.59,2.59,0,0,0,47.63,152.76Z"/><path class="cls-1" d="M105.7,115.16c0,2.19-1.64,4.28-4.53,6.08-5.92,3.69-17.05,6.27-29.84,6.42s-24-2.17-30-5.72c-2.94-1.74-4.64-3.78-4.67-6l-.07-6c0-.8.86-1.57,2.44-2.28.75.73,1.53,1.45,2.33,2.13a44.53,44.53,0,0,0,5.56,4l.77.45a45.24,45.24,0,0,0,7.72,3.55c.63.22,1.26.43,1.89.62a46.34,46.34,0,0,0,27.81-.33c.63-.21,1.25-.43,1.88-.66a45.25,45.25,0,0,0,7.64-3.74l.76-.47a44.53,44.53,0,0,0,5.46-4.13c.79-.7,1.55-1.43,2.28-2.18,1.6.67,2.49,1.42,2.5,2.22"/><path d="M69.5,121q10.67-3.88,9.5-7-1.18-4.06-7.61-4.12-4.87.57-5.57,4.72a35.58,35.58,0,0,0-.43,4.42l-10.2-.36q-1-8.35.2-12.77,2.31-7.09,14.32-7.09,11.69.78,18.13,4.45,3.57,1.83,3.41,12.32-.35,8.77-11.69,13.22-5.18,2.94-3.26,7.3L64.4,137.4Q61.49,125.29,69.5,121Zm2.59,18.47a7.86,7.86,0,0,1,3.77.6q.67.45,1.57,3.12a18.91,18.91,0,0,1,1.14,5.41q0,2.1-1.26,2.52a26.35,26.35,0,0,1-7.34,1q-4.43,0-5.3-1.62a7.14,7.14,0,0,1-.43-2.73,10.57,10.57,0,0,1,2.59-7.24,4.16,4.16,0,0,1,2-.84A29.3,29.3,0,0,1,72.09,139.5Z"/></svg>