<svg id="Layer_1" data-name="Layer 1" xmlns="http://www.w3.org/2000/svg" viewBox="0 0 333 236"><defs><style>.cls-1{fill:#fae281;}.cls-2{fill:#ff961b;}.cls-3{fill:#ff6129;}.cls-4{fill:#ff5029;}</style></defs><title>Comet</title><path class="cls-1" d="M55.11,49.91s244.94,35.42,242.5,102c-2.79,76.16-150.48,14.67-251.09-83.61,0,0,71.74,50.21,81.91,45.41,16-7.54-91.12-55.23-93.05-57.4-1.11-1.25,76.37,30.24,85.4,33.86,11,4.4,30.49,10.06,17.18-1.51s-85-33.53-85-33.53,67.29,18.38,79.54,19.05c19.25,1.05-67.11-22-77.36-24.29"/><path class="cls-2" d="M170.32,86.82s115.54,8.67,122.25,63.83C298.95,203,207.1,193,132.31,118.81c0,0,45.8,24.88,50.15,18.32,4-6-36.45-27.85-42-34.35s31.06,5.09,37.2,6.28c8.3,1.61,20.58,3.64,13.76-6.29-7-10.21-27.14-15.72-21-15.94"/><path class="cls-3" d="M288.46,145.69c9.92,45.47-52.34,44-77.29,11.77-16.71-21.56-7.87-36.77-3.66-36,5.69,1.1,14.1,2.49,9.43-4.31-4.8-7,63.4-8.72,71.52,28.49"/><path class="cls-4" d="M268.35,178.21c-6.61,5-17.42,5-19.17,2.14-5.79-9.57-19.23-2.63-24.25-19.3-1.1-3.65,4-7.22,3.49-9.9-3.79-18.4,9.5-17.88,21.12-28.6,9.08-8.38,32.34.27,34.24,17.06.33,3,4.25,4.57,5,7.39,4.91,17.68-10.73,23.78-20.47,31.22"/></svg>