<svg id="Layer_1" data-name="Layer 1" xmlns="http://www.w3.org/2000/svg" viewBox="0 0 209 206"><defs><style>.cls-1,.cls-6{fill:#7189c5;}.cls-1,.cls-2,.cls-3,.cls-4,.cls-5{stroke:#fff;stroke-miterlimit:10;stroke-width:16px;}.cls-2,.cls-7{fill:#56534f;}.cls-3,.cls-8{fill:#67645d;}.cls-4,.cls-9{fill:#afaeac;}.cls-10,.cls-5{fill:#8e8c88;}</style></defs><title>highlightSatellite</title><path class="cls-1" d="M146.15,180l-35.76-41.88a8.46,8.46,0,0,1,.94-11.91l13.56-11.58a8.46,8.46,0,0,1,11.91.94l35.76,41.88a8.46,8.46,0,0,1-.94,11.91L158.06,181A8.46,8.46,0,0,1,146.15,180ZM135.37,116.8a6.58,6.58,0,0,0-9.26-.73l-13.56,11.58a6.58,6.58,0,0,0-.73,9.26l35.76,41.88a6.58,6.58,0,0,0,9.26.73l13.56-11.58a6.58,6.58,0,0,0,.73-9.26Z"/><rect class="cls-1" x="144.11" y="109.71" width="1.88" height="70.09" transform="translate(-59.26 128.87) rotate(-40.5)"/><rect class="cls-1" x="136.97" y="115.81" width="1.88" height="70.09" transform="translate(-64.93 125.69) rotate(-40.5)"/><rect class="cls-1" x="108.79" y="127.83" width="32.85" height="1.88" transform="translate(-53.62 112.13) rotate(-40.49)"/><rect class="cls-1" x="116.92" y="137.35" width="32.85" height="1.88" transform="translate(-57.85 119.69) rotate(-40.49)"/><rect class="cls-1" x="125.05" y="146.86" width="32.85" height="1.88" transform="translate(-62.09 127.24) rotate(-40.49)"/><rect class="cls-1" x="133.18" y="156.38" width="32.85" height="1.88" transform="translate(-66.33 134.87) rotate(-40.5)"/><rect class="cls-1" x="141.31" y="165.9" width="32.85" height="1.88" transform="translate(-70.55 142.36) rotate(-40.49)"/><path class="cls-1" d="M72.2,93.41,36.43,51.54a8.46,8.46,0,0,1,.94-11.91L50.94,28A8.46,8.46,0,0,1,62.85,29L98.61,70.86a8.46,8.46,0,0,1-.94,11.91L84.11,94.35A8.46,8.46,0,0,1,72.2,93.41ZM61.42,30.2a6.58,6.58,0,0,0-9.26-.73L38.59,41.05a6.58,6.58,0,0,0-.73,9.26L73.62,92.19a6.58,6.58,0,0,0,9.26.73L96.45,81.34a6.58,6.58,0,0,0,.73-9.26Z"/><rect class="cls-1" x="70.15" y="23.1" width="1.88" height="70.09" transform="matrix(0.76, -0.65, 0.65, 0.76, -20.73, 60.09)"/><rect class="cls-1" x="63.01" y="29.2" width="1.88" height="70.09" transform="translate(-26.4 56.92) rotate(-40.5)"/><rect class="cls-1" x="34.84" y="41.22" width="32.85" height="1.88" transform="translate(-15.1 43.41) rotate(-40.51)"/><rect class="cls-1" x="42.97" y="50.74" width="32.85" height="1.88" transform="translate(-19.33 50.95) rotate(-40.5)"/><rect class="cls-1" x="51.09" y="60.26" width="32.86" height="1.88" transform="translate(-23.57 58.49) rotate(-40.49)"/><rect class="cls-1" x="59.22" y="69.78" width="32.86" height="1.88" transform="translate(-27.8 66.07) rotate(-40.5)"/><rect class="cls-1" x="67.35" y="79.29" width="32.85" height="1.88" transform="translate(-32.03 73.6) rotate(-40.49)"/><circle class="cls-2" cx="67.89" cy="135.76" r="17.33" transform="translate(-71.9 76.61) rotate(-40.5)"/><path class="cls-1" d="M144.19,72.12l9.9-8.46a4.61,4.61,0,1,0-1.5-1.75l-9.9,8.46Z"/><path class="cls-3" d="M103.58,77.72l-26.35,22.5-3,2.54a13.41,13.41,0,0,0-1.49,18.91l9.8,11.48a13.41,13.41,0,0,0,18.91,1.49l3-2.54,26.35-22.5L145.58,97,118.36,65.11Z"/><path class="cls-4" d="M145.58,97l-2.63-3.08c14.39,6.07,27.51-.78,27.51-.78l-22.19-26-22.19-26S117.25,53,121,68.19l-2.63-3.08L96.68,83.61l27.22,31.88Z"/><polygon class="cls-1" points="61.08 143.11 49.8 152.78 48.32 151.03 59.59 141.36 61.08 143.11"/><polygon class="cls-4" points="69.52 153.04 63.45 158.25 45.07 136.63 51.14 131.42 69.52 153.04"/><polygon class="cls-5" points="63.8 146.31 57.51 151.27 63.45 158.25 69.52 153.04 63.8 146.31"/><path class="cls-6" d="M146.15,180l-35.76-41.88a8.46,8.46,0,0,1,.94-11.91l13.56-11.58a8.46,8.46,0,0,1,11.91.94l35.76,41.88a8.46,8.46,0,0,1-.94,11.91L158.06,181A8.46,8.46,0,0,1,146.15,180ZM135.37,116.8a6.58,6.58,0,0,0-9.26-.73l-13.56,11.58a6.58,6.58,0,0,0-.73,9.26l35.76,41.88a6.58,6.58,0,0,0,9.26.73l13.56-11.58a6.58,6.58,0,0,0,.73-9.26Z"/><rect class="cls-6" x="144.11" y="109.71" width="1.88" height="70.09" transform="translate(-59.26 128.87) rotate(-40.5)"/><rect class="cls-6" x="136.97" y="115.81" width="1.88" height="70.09" transform="translate(-64.93 125.69) rotate(-40.5)"/><rect class="cls-6" x="108.79" y="127.83" width="32.85" height="1.88" transform="translate(-53.62 112.13) rotate(-40.49)"/><rect class="cls-6" x="116.92" y="137.35" width="32.85" height="1.88" transform="translate(-57.85 119.69) rotate(-40.49)"/><rect class="cls-6" x="125.05" y="146.86" width="32.85" height="1.88" transform="translate(-62.09 127.24) rotate(-40.49)"/><rect class="cls-6" x="133.18" y="156.38" width="32.85" height="1.88" transform="translate(-66.33 134.87) rotate(-40.5)"/><rect class="cls-6" x="141.31" y="165.9" width="32.85" height="1.88" transform="translate(-70.55 142.36) rotate(-40.49)"/><path class="cls-6" d="M72.2,93.41,36.43,51.54a8.46,8.46,0,0,1,.94-11.91L50.94,28A8.46,8.46,0,0,1,62.85,29L98.61,70.86a8.46,8.46,0,0,1-.94,11.91L84.11,94.35A8.46,8.46,0,0,1,72.2,93.41ZM61.42,30.2a6.58,6.58,0,0,0-9.26-.73L38.59,41.05a6.58,6.58,0,0,0-.73,9.26L73.62,92.19a6.58,6.58,0,0,0,9.26.73L96.45,81.34a6.58,6.58,0,0,0,.73-9.26Z"/><rect class="cls-6" x="70.15" y="23.1" width="1.88" height="70.09" transform="matrix(0.76, -0.65, 0.65, 0.76, -20.73, 60.09)"/><rect class="cls-6" x="63.01" y="29.2" width="1.88" height="70.09" transform="translate(-26.4 56.92) rotate(-40.5)"/><rect class="cls-6" x="34.84" y="41.22" width="32.85" height="1.88" transform="translate(-15.1 43.41) rotate(-40.51)"/><rect class="cls-6" x="42.97" y="50.74" width="32.85" height="1.88" transform="translate(-19.33 50.95) rotate(-40.5)"/><rect class="cls-6" x="51.09" y="60.26" width="32.86" height="1.88" transform="translate(-23.57 58.49) rotate(-40.49)"/><rect class="cls-6" x="59.22" y="69.78" width="32.86" height="1.88" transform="translate(-27.8 66.07) rotate(-40.5)"/><rect class="cls-6" x="67.35" y="79.29" width="32.85" height="1.88" transform="translate(-32.03 73.6) rotate(-40.49)"/><circle class="cls-7" cx="67.89" cy="135.76" r="17.33" transform="translate(-71.9 76.61) rotate(-40.5)"/><path class="cls-6" d="M144.19,72.12l9.9-8.46a4.61,4.61,0,1,0-1.5-1.75l-9.9,8.46Z"/><path class="cls-8" d="M103.58,77.72l-26.35,22.5-3,2.54a13.41,13.41,0,0,0-1.49,18.91l9.8,11.48a13.41,13.41,0,0,0,18.91,1.49l3-2.54,26.35-22.5L145.58,97,118.36,65.11Z"/><path class="cls-9" d="M145.58,97l-2.63-3.08c14.39,6.07,27.51-.78,27.51-.78l-22.19-26-22.19-26S117.25,53,121,68.19l-2.63-3.08L96.68,83.61l27.22,31.88Z"/><polygon class="cls-6" points="61.08 143.11 49.8 152.78 48.32 151.03 59.59 141.36 61.08 143.11"/><polygon class="cls-9" points="69.52 153.04 63.45 158.25 45.07 136.63 51.14 131.42 69.52 153.04"/><polygon class="cls-10" points="63.8 146.31 57.51 151.27 63.45 158.25 69.52 153.04 63.8 146.31"/></svg>