<svg xmlns="http://www.w3.org/2000/svg" viewBox="0 0 267 239"><defs><style>.cls-1{isolation:isolate;}.cls-2{fill:#fafafa;}.cls-3{fill:#e0e0e0;}.cls-4{fill:#bdbdbd;}.cls-5{fill:#f5f5f5;}.cls-6{fill:#212121;opacity:0.1;mix-blend-mode:multiply;}</style></defs><title>Moon</title><g class="cls-1"><g id="Layer_1" data-name="Layer 1"><circle class="cls-2" cx="133" cy="119.5" r="108.5"/><circle class="cls-3" cx="64.73" cy="80.66" r="17.08"/><path class="cls-4" d="M49.11,82.12a17.08,17.08,0,0,1,28.4-12.78A17.08,17.08,0,1,0,53.41,93.44,17,17,0,0,1,49.11,82.12Z"/><path class="cls-5" d="M65.4,63.58h-.34A17.08,17.08,0,1,1,47.66,81c0,.11,0,.22,0,.34A17.75,17.75,0,1,0,65.4,63.58Z"/><circle class="cls-3" cx="178.17" cy="50.73" r="8.54"/><path class="cls-4" d="M170.36,51.46a8.54,8.54,0,0,1,14.2-6.39,8.54,8.54,0,1,0-12.05,12.05A8.51,8.51,0,0,1,170.36,51.46Z"/><path class="cls-5" d="M178.5,42.19h-.17a8.54,8.54,0,1,1-8.7,8.7c0,.06,0,.11,0,.17a8.88,8.88,0,1,0,8.88-8.88Z"/><circle class="cls-3" cx="208.05" cy="137.35" r="21.31"/><path class="cls-4" d="M188.56,139.17A21.31,21.31,0,0,1,224,123.22a21.31,21.31,0,1,0-30.08,30.08A21.22,21.22,0,0,1,188.56,139.17Z"/><path class="cls-5" d="M208.89,116h-.42a21.31,21.31,0,1,1-21.72,21.72c0,.14,0,.28,0,.42A22.15,22.15,0,1,0,208.89,116Z"/><circle class="cls-3" cx="151.11" cy="187.13" r="21.31"/><path class="cls-4" d="M131.62,189A21.31,21.31,0,0,1,167.06,173,21.31,21.31,0,1,0,137,203.08,21.22,21.22,0,0,1,131.62,189Z"/><path class="cls-5" d="M151.95,165.82h-.42a21.31,21.31,0,1,1-21.72,21.72c0,.14,0,.28,0,.42a22.15,22.15,0,1,0,22.15-22.15Z"/><circle class="cls-3" cx="108.92" cy="174.19" r="12"/><path class="cls-4" d="M97.94,175.21a12,12,0,0,1,20-9A12,12,0,1,0,101,183.17,12,12,0,0,1,97.94,175.21Z"/><path class="cls-5" d="M109.39,162.19h-.24a12,12,0,1,1-12.23,12.23c0,.08,0,.16,0,.24a12.47,12.47,0,1,0,12.47-12.47Z"/><circle class="cls-3" cx="131.24" cy="157.59" r="7.26"/><path class="cls-4" d="M124.6,158.21a7.26,7.26,0,0,1,12.08-5.44A7.26,7.26,0,1,0,126.42,163,7.23,7.23,0,0,1,124.6,158.21Z"/><path class="cls-5" d="M131.53,150.33h-.14a7.26,7.26,0,1,1-7.4,7.4s0,.1,0,.14a7.55,7.55,0,1,0,7.55-7.55Z"/><circle class="cls-3" cx="227.73" cy="107.24" r="8.22"/><path class="cls-4" d="M220.22,107.94a8.21,8.21,0,0,1,13.66-6.15,8.21,8.21,0,1,0-11.6,11.6A8.18,8.18,0,0,1,220.22,107.94Z"/><path class="cls-5" d="M228.06,99h-.16a8.21,8.21,0,1,1-8.37,8.37c0,.05,0,.11,0,.16A8.54,8.54,0,1,0,228.06,99Z"/><circle class="cls-3" cx="75.67" cy="117.41" r="10.83"/><path class="cls-4" d="M65.77,118.34a10.83,10.83,0,0,1,18-8.11,10.83,10.83,0,1,0-15.29,15.29A10.79,10.79,0,0,1,65.77,118.34Z"/><path class="cls-5" d="M76.1,106.58h-.21a10.83,10.83,0,1,1-11,11c0,.07,0,.14,0,.21A11.26,11.26,0,1,0,76.1,106.58Z"/><circle class="cls-3" cx="100.32" cy="77.9" r="9.07"/><path class="cls-4" d="M92,78.67a9.07,9.07,0,0,1,15.09-6.79A9.07,9.07,0,1,0,94.3,84.69,9,9,0,0,1,92,78.67Z"/><path class="cls-5" d="M100.68,68.82h-.18a9.07,9.07,0,1,1-9.25,9.25c0,.06,0,.12,0,.18a9.43,9.43,0,1,0,9.43-9.43Z"/><circle class="cls-3" cx="83.96" cy="180.53" r="6.12"/><path class="cls-4" d="M78.37,181.05a6.12,6.12,0,0,1,10.18-4.58,6.12,6.12,0,1,0-8.64,8.64A6.09,6.09,0,0,1,78.37,181.05Z"/><path class="cls-5" d="M84.21,174.41h-.12a6.12,6.12,0,1,1-6.24,6.24s0,.08,0,.12a6.36,6.36,0,1,0,6.36-6.36Z"/><path class="cls-6" d="M133,206.42a120.91,120.91,0,0,1-105.61-62,108.53,108.53,0,0,0,211.23,0A120.91,120.91,0,0,1,133,206.42Z"/></g></g></svg>