<svg id="Layer_1" data-name="Layer 1" xmlns="http://www.w3.org/2000/svg" viewBox="0 0 324 459"><defs><style>.cls-1{fill:#fddcbe;}.cls-2{fill:#fafafa;}.cls-3{fill:#bf6b17;}.cls-4{fill:#789358;}.cls-5{fill:#eb7d86;}.cls-6{fill:#bdbdbd;}.cls-7{fill:#b0b0b0;}.cls-8{fill:#e0e1e1;}.cls-9{fill:#e3e4e5;}.cls-10{fill:#e0e0e0;}.cls-11{fill:#d8d8d8;}.cls-12{fill:#e6e7e8;}.cls-13,.cls-14,.cls-19{fill:#fff;}.cls-13{opacity:0.3;}.cls-14{opacity:0.5;}.cls-15{fill:#00ba2a;}.cls-16{fill:#ffb700;}.cls-17{fill:#eda60a;}.cls-18{fill:#4770f4;}</style></defs><title>astronaut 1</title><path class="cls-1" d="M30.24,318.51l-.76-21.62,6.51-.23-.18-5.21,6.51-.23.09,2.6,6.51-.23.09,2.6L55.5,296l.76,21.62a3.26,3.26,0,0,1-6.51.23l.23,6.65a3.26,3.26,0,0,1-6.51.23l-.09-2.6a3.26,3.26,0,0,1-6.51.23l-.14-4.05a3.26,3.26,0,0,1-6.51.23Z"/><path class="cls-2" d="M57.73,302.62l-29.39,2.16c-2.89-39.34,14.36-60.84,29.35-71.95a78.93,78.93,0,0,1,33.72-14.39l4,29.2.11,0a51,51,0,0,0-21,9.49C61.84,266.9,56.22,282.21,57.73,302.62Z"/><path class="cls-1" d="M212,316.06l.76-21.62-6.51-.23.18-5.21-6.51-.23-.09,2.6-6.51-.23-.09,2.6-6.51-.23L186,315.14a3.26,3.26,0,0,0,6.51.23l-.23,6.65a3.26,3.26,0,0,0,6.51.23l.09-2.6a3.26,3.26,0,0,0,6.51.23l.14-4.05a3.26,3.26,0,0,0,6.51.23Z"/><path class="cls-2" d="M184.56,300.17l29.39,2.16c2.89-39.34-14.36-60.84-29.35-71.95A78.93,78.93,0,0,0,150.87,216l-4,29.2-.11,0a51,51,0,0,1,21,9.49C180.44,264.46,186.06,279.76,184.56,300.17Z"/><path class="cls-1" d="M172.91,213.32S195.63,65.77,89.19,108.89c0,0-42.53.23-25.07,108.56Z"/><path class="cls-3" d="M185.67,101.94c-13.61,18.31-39.15,35.12-86.26,23.94L86.33,151.11s-11.14-11.61-14.68.56,11.68,8.25,11.68,8.25-4.75,18-14.64,29.16a6.13,6.13,0,0,1-10.51-2.46c-7.73-28.73-27.9-116,18.13-97.22,0,0,13.13-19.81,39-20.79,20.09-.76,31.86,24.75,58.32,16.42C183.68,81.84,192,93.45,185.67,101.94Z"/><ellipse class="cls-4" cx="155.27" cy="153.37" rx="3.52" ry="6.07" transform="translate(-5.71 6) rotate(-2.18)"/><ellipse class="cls-4" cx="111.52" cy="154.39" rx="3.52" ry="6.07" transform="translate(-5.77 4.34) rotate(-2.17)"/><path class="cls-5" d="M117.37,173.63c.29,5.35,4.26,14,19.15,14,15.28,0,15.24-15,15.24-15a92.63,92.63,0,0,0-17.2-1.55A52.92,52.92,0,0,0,117.37,173.63Z"/><path class="cls-6" d="M126.08,314.12a64.89,64.89,0,0,0-1,14.41,12.6,12.6,0,0,0-8.87.43,64.89,64.89,0,0,0-2.36-14.25c2,0,4-.08,6.11-.18S124.1,314.29,126.08,314.12Z"/><path class="cls-7" d="M146.2,384.31c-.28.27-.55.55-.81.83.07-.49.13-1,.19-1.47C145.78,383.89,146,384.1,146.2,384.31Z"/><path class="cls-6" d="M101.59,387.28l-.89-.75c.19-.22.38-.46.56-.7C101.36,386.32,101.47,386.8,101.59,387.28Z"/><path class="cls-6" d="M99.62,373a81.72,81.72,0,0,0,1.64,12.83c-.18.24-.37.47-.56.7a23.34,23.34,0,0,0-15.56-5.39A22,22,0,0,0,75,384.31c-4.44-9.47-5.94-24.59-3.34-41,2.06-13,6.33-24.47,11.56-32.46,6.49,2.55,17.66,4.06,30.68,3.92A64.89,64.89,0,0,1,116.24,329C105.76,333.42,98.58,351.62,99.62,373Z"/><path class="cls-6" d="M171.56,379.59a22,22,0,0,0-10.41-2.16,23.34,23.34,0,0,0-15,6.88c-.21-.21-.42-.42-.63-.64a81.69,81.69,0,0,0,.39-12.93c-1-21.38-10-38.8-20.84-42.21a64.89,64.89,0,0,1,1-14.41c13-1.13,23.94-3.72,30.15-6.89,6,7.44,11.34,18.41,14.66,31.18C175.08,354.55,175.06,369.73,171.56,379.59Z"/><path d="M108.29,398.78a6.19,6.19,0,0,1-1,3.85c-2.79,4.13-11.06,5.1-20.84,5.57-12.29.6-22.29.21-22.65-7.26l10.85.9a86.72,86.72,0,0,0,22.93-1.12l8-1.47Z"/><path class="cls-2" d="M108.29,398.78l-2.7.49-8,1.47a86.72,86.72,0,0,1-22.93,1.12l-10.85-.9c-.25-5.22,4.26-12.51,11.18-16.64a22,22,0,0,1,10.15-3.16,23.34,23.34,0,0,1,15.56,5.39l.89.75C105.56,390.77,108.12,395.16,108.29,398.78Z"/><path d="M184.31,395.07c.36,7.47-9.55,8.83-21.84,9.43-9.78.48-18.1.33-21.28-3.52a6.19,6.19,0,0,1-1.37-3.74l2.73.22,8.12.68A86.72,86.72,0,0,0,173.6,397Z"/><path class="cls-2" d="M184.31,395.07l-10.71,2a86.72,86.72,0,0,1-22.93,1.12l-8.12-.68-2.73-.22c-.18-3.62,1.94-8.23,5.56-12.1.27-.28.54-.56.81-.83a23.34,23.34,0,0,1,15-6.88,22,22,0,0,1,10.41,2.16C178.86,383,184.06,389.85,184.31,395.07Z"/><path class="cls-1" d="M149.17,299.09,96.9,300.81C85,301.2,75,290.31,74.56,276.49l-2-61.28L166.67,213,170,272.54C170.74,286.69,161.34,298.69,149.17,299.09Z"/><path class="cls-8" d="M177.8,317.1l-.26-1.4A4.36,4.36,0,0,1,177.8,317.1Z"/><path class="cls-2" d="M183.36,305.78l-16.92-80.87c-9,5.11-26,8.69-45.49,8.92S84.4,230.89,75.25,226l-15,81.25h0a5.51,5.51,0,0,0,1.82,5.13A22.09,22.09,0,0,0,68.49,316c9.34,3.68,25.57,6.2,44.58,6.63,2.91.06,5.89.09,8.93.05s6-.13,8.91-.26c19-.88,35.16-3.79,44.41-7.69a22.16,22.16,0,0,0,6.35-3.75,5.5,5.5,0,0,0,1.7-5.17Zm-82.58-11.29c-6,.07-10.9-4.29-11-9.69l-.3-25c-.06-5.4,4.76-9.88,10.73-10L142,249.3c6-.07,10.9,4.29,11,9.69l.3,25c.06,5.4-4.76,9.88-10.73,10Z"/><path class="cls-9" d="M49.84,264a.12.12,0,0,1-.14-.12C50,263.91,49.61,263.82,49.84,264Z"/><path class="cls-9" d="M55.18,265.07c.08,0,.17-.07.24,0s0-.12.07-.1-.1.19-.29.18l0,0A.09.09,0,0,0,55.18,265.07Z"/><path class="cls-9" d="M55.07,265a.31.31,0,0,1,.1.07A.11.11,0,0,1,55.07,265Z"/><path class="cls-9" d="M55.18,265.19v0Z"/><path class="cls-9" d="M77.26,280.32l0,.09A.2.2,0,0,1,77.26,280.32Z"/><path class="cls-9" d="M76.4,283.39l0,0S76.43,283.38,76.4,283.39Z"/><path class="cls-9" d="M70.52,271.31s0,0,0,0l.11.05Z"/><path class="cls-9" d="M77.41,280v0h0Z"/><path class="cls-9" d="M50.3,263.95c.09.15-.09.11-.17.16S50.25,264,50.3,263.95Z"/><path class="cls-9" d="M55,265.14s0-.07-.05-.09.09.05.15.07S55,265.16,55,265.14Z"/><path class="cls-9" d="M56.17,265.43l-.4-.24C55.92,265.24,56.16,265.36,56.17,265.43Z"/><path class="cls-9" d="M57.37,265.48s-.06-.07,0-.1S57.48,265.45,57.37,265.48Z"/><path class="cls-9" d="M57.41,265.65c0-.12.19,0,.21,0A.26.26,0,0,1,57.41,265.65Z"/><path class="cls-9" d="M59.93,266.14c0-.11.17.09.25.05S60,266.16,59.93,266.14Z"/><path class="cls-9" d="M61,266.55l.06-.07c.06,0,.11.09,0,.1Z"/><polygon class="cls-9" points="79.32 275.03 79.24 275.13 79.25 275.02 79.32 275.03"/><path class="cls-9" d="M76.22,284.17s-.11,0,0-.13C76.13,284.18,76.27,284.06,76.22,284.17Z"/><polygon class="cls-9" points="73.36 288.37 73.27 288.27 73.38 288.34 73.36 288.37"/><path class="cls-10" d="M58.12,313.43,57.86,315A4.92,4.92,0,0,1,58.12,313.43Z"/><path class="cls-2" d="M136.3,254.58l-31.9.38a8.3,8.3,0,0,0-8.18,8.38l.25,21.12a8.31,8.31,0,0,0,8.38,8.2l31.9-.38a8.31,8.31,0,0,0,8.18-8.39l-.25-21.12A8.3,8.3,0,0,0,136.3,254.58Zm-12.75,29-5.71.07a10,10,0,0,1-.24-20l5.71-.07a10,10,0,0,1,.24,20Z"/><path class="cls-11" d="M133.4,273.46a10,10,0,0,1-9.86,10.1l-5.71.07a10,10,0,0,1-.24-20l5.71-.07A10,10,0,0,1,133.4,273.46Z"/><path class="cls-12" d="M141.62,248.14l-42.68.5a11.12,11.12,0,0,0-11,11.22l.33,28.27a11.12,11.12,0,0,0,11.22,11l42.68-.5a11.12,11.12,0,0,0,11-11.22l-.33-28.27A11.12,11.12,0,0,0,141.62,248.14Zm3.31,35.74a8.31,8.31,0,0,1-8.18,8.39l-31.9.38a8.31,8.31,0,0,1-8.38-8.2l-.25-21.12A8.3,8.3,0,0,1,104.4,255l31.9-.38a8.3,8.3,0,0,1,8.38,8.18Z"/><path class="cls-12" d="M133.38,271.24a10,10,0,0,1-9.86,10.1l-5.71.07a10,10,0,0,1-.24-20l5.71-.07A10,10,0,0,1,133.38,271.24Z"/><path class="cls-11" d="M163.38,283.85h0a4.41,4.41,0,0,1-4.7-4.09l-1.24-17.94a4.41,4.41,0,0,1,4.09-4.7h0a4.41,4.41,0,0,1,4.7,4.09l1.24,17.94A4.41,4.41,0,0,1,163.38,283.85Z"/><path class="cls-11" d="M78,284.86h0a4.41,4.41,0,0,0,4.6-4.2l.82-18a4.41,4.41,0,0,0-4.2-4.6h0a4.41,4.41,0,0,0-4.6,4.2l-.82,18A4.41,4.41,0,0,0,78,284.86Z"/><path class="cls-13" d="M45,212.3c17.73,9.84,81.56,39,150.7-5.66a16.56,16.56,0,0,0,7.25-10.54c5.91-28.53,21.72-138.75-85.2-145.37a48.38,48.38,0,0,0-11,.39C83.13,55.09,0,78.19,38.54,204.36A13.65,13.65,0,0,0,45,212.3Z"/><path d="M176.81,220.89c0,3.73-2.78,7.27-7.71,10.35-10.07,6.28-29,10.67-50.77,10.93s-40.8-3.68-51-9.73c-5-3-7.9-6.43-7.94-10.16L59.25,212c0-1.36,1.47-2.67,4.16-3.88,1.27,1.24,2.6,2.46,4,3.62a75.74,75.74,0,0,0,9.45,6.8l1.3.77a77,77,0,0,0,13.14,6c1.07.37,2.14.73,3.22,1.05a78.83,78.83,0,0,0,47.3-.56c1.07-.35,2.13-.73,3.2-1.13a77,77,0,0,0,13-6.35l1.29-.8a75.74,75.74,0,0,0,9.29-7c1.34-1.19,2.64-2.44,3.88-3.71,2.71,1.14,4.24,2.42,4.26,3.78"/><path class="cls-14" d="M190.63,166a83.69,83.69,0,0,1-1.33,11.61,4.33,4.33,0,0,1-4.4,3.55h-.08a4.29,4.29,0,0,1-4.1-4.82,101.63,101.63,0,0,0,.81-10.57,4.31,4.31,0,0,1,3.76-4.2l.52-.07A4.31,4.31,0,0,1,190.63,166Z"/><path class="cls-14" d="M177.81,102.05a69.63,69.63,0,0,1,14,50.51,4.51,4.51,0,0,1-4.82,4h0a4.49,4.49,0,0,1-4.1-5.16,86.71,86.71,0,0,0-6.38-48.56A.78.78,0,0,1,177.81,102.05Z"/><path class="cls-15" d="M296,330.89C275.66,314,247.65,333,227.32,316.16l-9.85,45.91c20.33,16.85,48.34-2.12,68.67,14.73Z"/><path class="cls-16" d="M283.94,349.2c-6.21-9.12-13.12-15-20.11-20.52l-.7-.55-1,.62c-9.49,6.17-19,12.53-28,16.23l-1.36.54,1,1.23c6.47,7.93,13.5,13.22,20.5,18.69l.7.55.95-.61c9.48-6.13,18.89-11.88,27.6-14.4l1.32-.36Q284.41,349.89,283.94,349.2Z"/><path class="cls-17" d="M283.94,349.2c-6.21-9.12-13.12-15-20.11-20.52l-.25-.19-8,37.1.33-.21c9.48-6.13,18.89-11.88,27.6-14.4l1.32-.36Q284.41,349.89,283.94,349.2Z"/><path class="cls-18" d="M268.7,346.93q-.14.47-.33.92a13.67,13.67,0,0,1-12.62,8c-5.54-.2-8.65-4.89-7-10.24a11.21,11.21,0,0,1,.8-1.92,12.82,12.82,0,0,1,2-2.74,13.71,13.71,0,0,1,10.24-4.5,7.44,7.44,0,0,1,7.36,8.37A9.82,9.82,0,0,1,268.7,346.93Z"/><path class="cls-19" d="M268.7,346.93q-.14.47-.33.92c-5.18-3.62-11.78-4.59-18.81-4.15a12.82,12.82,0,0,1,2-2.74c6.51-.26,12.62.69,17.6,3.87A9.82,9.82,0,0,1,268.7,346.93Z"/><path class="cls-16" d="M228.41,310.54h0a2,2,0,0,0-2.35,1.52l-18.24,85a2,2,0,0,0,1.52,2.35h0a2,2,0,0,0,2.35-1.52l18.24-85A2,2,0,0,0,228.41,310.54Z"/><path class="cls-17" d="M228.41,310.54l-.1,0-19.07,88.9.09,0a2,2,0,0,0,2.35-1.52l18.24-85A2,2,0,0,0,228.41,310.54Z"/></svg>