<svg id="Layer_1" data-name="Layer 1" xmlns="http://www.w3.org/2000/svg" viewBox="0 0 411 141"><defs><style>.cls-1{fill:#d6902a;}.cls-2{fill:#f8c67b;}.cls-3{fill:#f16b23;}</style></defs><title>play button</title><rect class="cls-1" x="27.55" y="23.11" width="364.89" height="97.07"/><rect class="cls-2" x="37" y="28.62" width="345.99" height="86.04"/><path class="cls-3" d="M169,77l-10.21,3.34V97.41L149.49,96l-1.76-47.67h13q14.84.63,15.28,5.74.3,12.25-1.77,17.73A6.9,6.9,0,0,1,169,77ZM158.8,57.85V72.22l4.91-1.45q3-.73,3.54-7.31.49-3.52-1.52-4.32Q163.57,58,158.8,57.85Z"/><path class="cls-3" d="M179.72,96.08,178.54,47,190,45.85l-1.17,39.29h16.06l-.05,9.43Z"/><path class="cls-3" d="M234.23,97.43l-2.11-9.08H218.28l-2.39,7.52-9.51-1.74,16.82-45.8,6.5,1,14.87,45.94Zm-13-17.93,8.43-.33-3.61-13.59Z"/><path class="cls-3" d="M248.09,48.25,254,63.07,260.44,47l11.79,1.25-13,25.9,0,20.33-11.06,2.43.92-22.69L236.6,49.63Z"/></svg>