<svg id="Layer_1" data-name="Layer 1" xmlns="http://www.w3.org/2000/svg" viewBox="0 0 184 165"><defs><style>.cls-1{fill:#f16b23;}</style></defs><title>music on</title><path class="cls-1" d="M130.8,29,84.14,43.24C78.49,44.86,73.9,50.76,73.9,56.41v49.22s-3.38-2.28-10.91-1.21c-11.06,1.57-20,10.06-20,19s9,14.36,20,12.79,19.18-9.8,19.18-18.7v-42c0-3.94,4.74-5.64,4.74-5.64l41.26-12.94s4.56-1.53,4.56,2.69V93.32s-4.2-2.42-11.73-1.51c-11.06,1.34-20,9.66-20,18.55s9,14.55,20,13.21,20-9.65,20-18.56V36.29C141,30.64,136.45,27.36,130.8,29Z"/></svg>