<svg id="Layer_1" data-name="Layer 1" xmlns="http://www.w3.org/2000/svg" xmlns:xlink="http://www.w3.org/1999/xlink" viewBox="0 0 324 459"><defs><style>.cls-1{fill:#b0b0b0;}.cls-2{fill:#bdbdbd;}.cls-3{fill:#1200ff;}.cls-4{fill:#e0e1e1;}.cls-5{fill:#00ba2a;}.cls-6{fill:#ffb700;}.cls-7{fill:#eda60a;}.cls-8{fill:#4770f4;}.cls-27,.cls-9{fill:#fff;}.cls-10,.cls-17{fill:#e8563d;}.cls-10,.cls-14,.cls-15{fill-rule:evenodd;}.cls-11{fill:#d8d6d8;}.cls-12{fill:#e6e6e6;}.cls-13{fill:#3d72e8;}.cls-14{fill:#f7ac3b;}.cls-15{fill:#f2d970;}.cls-16{fill:#d33b26;}.cls-18{fill:#fddcbe;}.cls-19{fill:#fafafa;}.cls-20{fill:#bf6b17;}.cls-21{fill:#789358;}.cls-22{fill:#eb7d86;}.cls-23{fill:#e3e4e5;}.cls-24{fill:#e0e0e0;}.cls-25{fill:#d8d8d8;}.cls-26{opacity:0.4;fill:url(#linear-gradient);}.cls-27{opacity:0.5;}</style><linearGradient id="linear-gradient" x1="46.32" y1="105.81" x2="225.15" y2="105.81" gradientUnits="userSpaceOnUse"><stop offset="0.07" stop-color="#ffc900"/><stop offset="0.17" stop-color="#ff8402"/><stop offset="0.29" stop-color="#f88204"/><stop offset="0.41" stop-color="#be6e16"/><stop offset="0.53" stop-color="#ff8905"/><stop offset="0.64" stop-color="#ffa819"/><stop offset="0.73" stop-color="#ffe863"/><stop offset="0.84" stop-color="#ffff59"/><stop offset="0.94" stop-color="#f7931e"/></linearGradient></defs><title>astronaut 4</title><path class="cls-1" d="M39,443.44c-.28.27-.55.55-.81.83.07-.49.13-1,.19-1.47C38.59,443,38.8,443.23,39,443.44Z"/><path class="cls-2" d="M143.89,279.25a64.89,64.89,0,0,0-1,14.41,12.6,12.6,0,0,0-8.87.43,64.89,64.89,0,0,0-2.36-14.25c2,0,4-.08,6.11-.18S141.91,279.42,143.89,279.25Z"/><path class="cls-1" d="M164,349.44c-.28.27-.55.55-.81.83.07-.49.13-1,.19-1.47C163.59,349,163.8,349.23,164,349.44Z"/><path class="cls-2" d="M119.4,352.41l-.89-.75c.19-.22.38-.46.56-.7C119.17,351.44,119.29,351.93,119.4,352.41Z"/><path class="cls-2" d="M117.43,338.13A81.72,81.72,0,0,0,119.07,351c-.18.24-.37.47-.56.7a23.34,23.34,0,0,0-15.56-5.39,22,22,0,0,0-10.15,3.16c-4.44-9.47-5.94-24.59-3.34-41,2.06-13,6.33-24.47,11.56-32.46,6.49,2.55,17.66,4.06,30.68,3.92a64.89,64.89,0,0,1,2.36,14.25C123.57,298.54,116.39,316.75,117.43,338.13Z"/><path class="cls-2" d="M189.38,344.72A22,22,0,0,0,179,342.56a23.34,23.34,0,0,0-15,6.88c-.21-.21-.42-.42-.63-.64a81.69,81.69,0,0,0,.39-12.93c-1-21.38-10-38.8-20.84-42.21a64.89,64.89,0,0,1,1-14.41c13-1.13,23.94-3.72,30.15-6.89,6,7.44,11.34,18.41,14.66,31.18C192.89,319.67,192.87,334.86,189.38,344.72Z"/><path d="M126.11,363.9a6.19,6.19,0,0,1-1,3.85c-2.79,4.13-11.06,5.1-20.84,5.57-12.29.6-22.29.21-22.65-7.26l10.85.9a86.72,86.72,0,0,0,22.93-1.12l8-1.47Z"/><path class="cls-3" d="M126.11,363.9l-2.7.49-8,1.47A86.72,86.72,0,0,1,92.47,367l-10.85-.9c-.25-5.22,4.26-12.51,11.18-16.64a22,22,0,0,1,10.15-3.16,23.34,23.34,0,0,1,15.56,5.39l.89.75C123.37,355.9,125.93,360.29,126.11,363.9Z"/><path d="M202.13,360.2c.36,7.47-9.55,8.83-21.84,9.43-9.78.48-18.1.33-21.28-3.52a6.19,6.19,0,0,1-1.37-3.74l2.73.22,8.12.68a86.72,86.72,0,0,0,22.93-1.12Z"/><path class="cls-3" d="M202.13,360.2l-10.71,2a86.72,86.72,0,0,1-22.93,1.12l-8.12-.68-2.73-.22c-.18-3.62,1.94-8.23,5.56-12.1.27-.28.54-.56.81-.83a23.34,23.34,0,0,1,15-6.88,22,22,0,0,1,10.41,2.16C196.67,348.16,201.87,355,202.13,360.2Z"/><path class="cls-4" d="M195.61,282.22l-.26-1.4A4.36,4.36,0,0,1,195.61,282.22Z"/><path class="cls-5" d="M313.8,296c-20.33-16.85-48.34,2.12-68.67-14.73l-9.85,45.91c20.33,16.85,48.34-2.12,68.67,14.73Z"/><path class="cls-6" d="M301.75,314.33c-6.21-9.12-13.12-15-20.11-20.52l-.7-.55-1,.62c-9.49,6.17-19,12.53-28,16.23l-1.36.54,1,1.23c6.47,7.93,13.5,13.22,20.5,18.69l.7.55.95-.61c9.48-6.13,18.89-11.88,27.6-14.4l1.32-.36Q302.22,315,301.75,314.33Z"/><path class="cls-7" d="M301.75,314.33c-6.21-9.12-13.12-15-20.11-20.52l-.25-.19-8,37.1.33-.21c9.48-6.13,18.89-11.88,27.6-14.4l1.32-.36Q302.22,315,301.75,314.33Z"/><path class="cls-8" d="M286.51,312.06q-.14.47-.33.92a13.67,13.67,0,0,1-12.62,8c-5.54-.2-8.65-4.89-7-10.24a11.21,11.21,0,0,1,.8-1.92,12.82,12.82,0,0,1,2-2.74,13.71,13.71,0,0,1,10.24-4.5,7.44,7.44,0,0,1,7.36,8.37A9.82,9.82,0,0,1,286.51,312.06Z"/><path class="cls-9" d="M286.51,312.06q-.14.47-.33.92c-5.18-3.62-11.78-4.59-18.81-4.15a12.82,12.82,0,0,1,2-2.74c6.51-.26,12.62.69,17.6,3.87A9.82,9.82,0,0,1,286.51,312.06Z"/><path class="cls-6" d="M246.22,275.67h0a2,2,0,0,0-2.35,1.52l-18.24,85a2,2,0,0,0,1.52,2.35h0a2,2,0,0,0,2.35-1.52l18.24-85A2,2,0,0,0,246.22,275.67Z"/><path class="cls-7" d="M246.22,275.67l-.1,0-19.07,88.9.09,0a2,2,0,0,0,2.35-1.52l18.24-85A2,2,0,0,0,246.22,275.67Z"/><polyline class="cls-10" points="136.4 372.43 103.33 437.54 89.61 438.15 84.92 380.06"/><polyline class="cls-10" points="120.03 318.15 56.47 282.19 44.7 289.27 72.91 340.26"/><path class="cls-11" d="M242.2,332.58l-6-20.2-6-20.2s-20.67-12.26-73,3.23-99.33,44.65-99.33,44.65l6.84,23.09,6.83,23.09s55.27-1.12,107.63-16.61S242.2,332.58,242.2,332.58Z"/><path class="cls-12" d="M172.28,331.39a16,16,0,1,0,10.8-19.89A16,16,0,0,0,172.28,331.39Z"/><path class="cls-13" d="M168.89,332.39a19.53,19.53,0,1,0,13.19-24.27A19.54,19.54,0,0,0,168.89,332.39Zm31.7-9.38a13.52,13.52,0,1,1-16.8-9.13A13.54,13.54,0,0,1,200.59,323Z"/><circle class="cls-12" cx="141.42" cy="340.78" r="7.73" transform="translate(-90.89 54.14) rotate(-16.49)"/><path class="cls-13" d="M132.37,343.46a9.43,9.43,0,1,0,6.37-11.72A9.43,9.43,0,0,0,132.37,343.46Zm15.31-4.53a6.53,6.53,0,1,1-8.11-4.41A6.54,6.54,0,0,1,147.68,338.93Z"/><circle class="cls-12" cx="107.63" cy="350.98" r="7.73" transform="translate(-95.21 44.99) rotate(-16.49)"/><path class="cls-13" d="M98.58,353.65A9.43,9.43,0,1,0,105,341.93,9.43,9.43,0,0,0,98.58,353.65Zm15.31-4.53a6.53,6.53,0,1,1-8.12-4.41A6.54,6.54,0,0,1,113.89,349.12Z"/><path class="cls-14" d="M56.81,347.48l9.28,35.79A78.45,78.45,0,0,1,22,392.69s3.23-3.56,7-8.46c0,0-9.64,2-21.78-3.14C7.2,381.09,9.56,354.15,56.81,347.48Z"/><path class="cls-15" d="M57.75,351,65,379.11S51.94,389,32.2,387.2a47.89,47.89,0,0,1,5.94-6.76,44.3,44.3,0,0,1-19.37-3S20.62,356.24,57.75,351Z"/><path class="cls-16" d="M55.39,347.32l-2.61-8.64a2.82,2.82,0,0,1,1.88-3.51h0a2.81,2.81,0,0,1,3.51,1.88l15.17,50.28a2.81,2.81,0,0,1-1.88,3.51h0A2.82,2.82,0,0,1,68,389L55.39,347.32"/><polygon class="cls-17" points="226.82 288.74 282.46 298.72 241.21 337.37 226.82 288.74"/><path class="cls-16" d="M239.8,339.89a2.08,2.08,0,0,1-2.58-1.4L222.86,290a2.08,2.08,0,0,1,1.4-2.58h0a2.08,2.08,0,0,1,2.58,1.4l14.36,48.52a2.08,2.08,0,0,1-1.4,2.58Z"/><path class="cls-2" d="M144.58,281.4a46.88,46.88,0,0,0-1.07,12.21,14.76,14.76,0,0,0-8.87.43,46.88,46.88,0,0,0-2.25-12c2,0,4-.1,6.11-.2S142.6,281.56,144.58,281.4Z"/><path class="cls-2" d="M119.55,343.51l-.89-.63c.19-.19.38-.39.57-.59C119.33,342.69,119.44,343.1,119.55,343.51Z"/><path class="cls-2" d="M117.69,331.44a58.75,58.75,0,0,0,1.54,10.85c-.18.2-.37.4-.57.59a25.75,25.75,0,0,0-15.51-4.44A25.14,25.14,0,0,0,93,341.19c-4.37-8-5.75-20.76-3-34.72,2.16-11.05,6.51-20.76,11.79-27.56,6.47,2.11,17.63,3.3,30.64,3.09a46.88,46.88,0,0,1,2.25,12C124.12,297.89,116.81,313.35,117.69,331.44Z"/><path d="M126.17,353.19a4.71,4.71,0,0,1-1,3.27c-2.82,3.52-11.09,4.4-20.87,4.87-12.29.6-22.28.35-22.59-6l10.84.68a102.37,102.37,0,0,0,22.93-1.12l8-1.3Z"/><path class="cls-3" d="M126.17,353.19l-2.7.43-8,1.3A102.37,102.37,0,0,1,92.52,356l-10.84-.68c-.22-4.42,4.35-10.62,11.3-14.17a25.14,25.14,0,0,1,10.17-2.75,25.75,25.75,0,0,1,15.51,4.44l.89.63C123.5,346.43,126,350.13,126.17,353.19Z"/><path class="cls-18" d="M48.05,283.63,47.29,262l6.51-.23-.18-5.21,6.51-.23.09,2.6,6.51-.23.09,2.6,6.51-.23.76,21.62a3.26,3.26,0,0,1-6.51.23l.23,6.65a3.26,3.26,0,0,1-6.51.23l-.09-2.6a3.26,3.26,0,0,1-6.51.23l-.14-4.05a3.26,3.26,0,0,1-6.51.23Z"/><path class="cls-19" d="M75.54,267.74l-29.39,2.16C43.25,230.57,60.51,209.07,75.5,198a78.93,78.93,0,0,1,33.72-14.39l4,29.2.11,0a51,51,0,0,0-21,9.49C79.66,232,74,247.33,75.54,267.74Z"/><path class="cls-18" d="M229.86,281.19l.76-21.62-6.51-.23.18-5.21-6.51-.23-.09,2.6-6.51-.23-.09,2.6-6.51-.23-.76,21.62a3.26,3.26,0,0,0,6.51.23l-.23,6.65a3.26,3.26,0,0,0,6.51.23l.09-2.6a3.26,3.26,0,0,0,6.51.23l.14-4.05a3.26,3.26,0,0,0,6.51.23Z"/><path class="cls-19" d="M202.37,265.3l29.39,2.16c2.89-39.34-14.36-60.84-29.35-71.95a78.93,78.93,0,0,0-33.72-14.39l-4,29.2-.11,0a51,51,0,0,1,21,9.49C198.25,229.58,203.87,244.89,202.37,265.3Z"/><path class="cls-18" d="M190.72,178.45S213.44,30.9,107,74c0,0-42.53.23-25.07,108.56Z"/><path class="cls-20" d="M203.48,67.06C189.87,85.37,164.33,102.18,117.22,91l-13.08,25.23s-11.14-11.61-14.68.56S101.14,125,101.14,125s-4.75,18-14.64,29.16A6.13,6.13,0,0,1,76,151.74c-7.73-28.73-27.9-116,18.13-97.22,0,0,13.13-19.81,39-20.79,20.09-.76,31.86,24.75,58.32,16.42C201.49,47,209.79,58.57,203.48,67.06Z"/><ellipse class="cls-21" cx="173.08" cy="118.5" rx="3.52" ry="6.07" transform="translate(-4.37 6.66) rotate(-2.18)"/><ellipse class="cls-21" cx="129.33" cy="119.52" rx="3.52" ry="6.07" transform="translate(-4.44 4.99) rotate(-2.17)"/><path class="cls-22" d="M135.19,138.75c.29,5.35,4.26,14,19.15,14,15.28,0,15.24-15,15.24-15a92.63,92.63,0,0,0-17.2-1.55A52.92,52.92,0,0,0,135.19,138.75Z"/><path class="cls-18" d="M167,264.21l-52.27,1.72c-11.88.39-21.88-10.5-22.34-24.32l-2-61.28,94.12-2.24,3.29,59.57C188.55,251.81,179.16,263.81,167,264.21Z"/><path class="cls-19" d="M201.17,270.91,184.25,190c-9,5.11-26,8.69-45.49,8.92s-36.55-2.95-45.7-7.84l-15,81.25h0a5.51,5.51,0,0,0,1.82,5.13,22.09,22.09,0,0,0,6.42,3.59c9.34,3.68,25.57,6.2,44.58,6.63,2.91.06,5.89.09,8.93.05s6-.13,8.91-.26c19-.88,35.16-3.79,44.41-7.69a22.16,22.16,0,0,0,6.35-3.75,5.5,5.5,0,0,0,1.7-5.17Zm-82.58-11.29c-6,.07-10.9-4.29-11-9.69l-.3-25c-.06-5.4,4.76-9.88,10.73-10l41.76-.49c6-.07,10.9,4.29,11,9.69l.3,25c.06,5.4-4.76,9.88-10.73,10Z"/><path class="cls-23" d="M67.65,229.09a.12.12,0,0,1-.14-.12C67.83,229,67.42,229,67.65,229.09Z"/><path class="cls-23" d="M73,230.2c.08,0,.17-.07.24,0s0-.12.07-.1-.1.19-.29.18l0,0A.09.09,0,0,0,73,230.2Z"/><path class="cls-23" d="M72.89,230.12a.31.31,0,0,1,.1.07A.11.11,0,0,1,72.89,230.12Z"/><path class="cls-23" d="M73,230.32v0Z"/><path class="cls-23" d="M95.07,245.45l0,.09A.2.2,0,0,1,95.07,245.45Z"/><path class="cls-23" d="M94.21,248.52l0,0S94.24,248.5,94.21,248.52Z"/><path class="cls-23" d="M88.33,236.44s0,0,0,0l.11.05Z"/><path class="cls-23" d="M95.23,245.11v0h0Z"/><path class="cls-23" d="M68.11,229.07c.09.15-.09.11-.17.16S68.06,229.13,68.11,229.07Z"/><path class="cls-23" d="M72.78,230.26s0-.07-.05-.09.09.05.15.07S72.78,230.29,72.78,230.26Z"/><path class="cls-23" d="M74,230.56l-.4-.24C73.73,230.37,74,230.49,74,230.56Z"/><path class="cls-23" d="M75.18,230.61s-.06-.07,0-.1S75.29,230.58,75.18,230.61Z"/><path class="cls-23" d="M75.22,230.77c0-.12.19,0,.21,0A.26.26,0,0,1,75.22,230.77Z"/><path class="cls-23" d="M77.74,231.27c0-.11.17.09.25.05S77.8,231.29,77.74,231.27Z"/><path class="cls-23" d="M78.86,231.68l.06-.07c.06,0,.11.09,0,.1Z"/><polygon class="cls-23" points="97.13 240.16 97.06 240.26 97.07 240.15 97.13 240.16"/><path class="cls-23" d="M94,249.3s-.11,0,0-.13C93.95,249.31,94.08,249.19,94,249.3Z"/><polygon class="cls-23" points="91.17 253.5 91.08 253.39 91.19 253.47 91.17 253.5"/><path class="cls-24" d="M75.93,278.55l-.26,1.59A4.92,4.92,0,0,1,75.93,278.55Z"/><path class="cls-19" d="M154.11,219.7l-31.9.38a8.3,8.3,0,0,0-8.18,8.38l.25,21.12a8.31,8.31,0,0,0,8.38,8.2l31.9-.38a8.31,8.31,0,0,0,8.18-8.39l-.25-21.12A8.3,8.3,0,0,0,154.11,219.7Zm-12.75,29-5.71.07a10,10,0,0,1-.24-20l5.71-.07a10,10,0,0,1,.24,20Z"/><path class="cls-25" d="M151.22,238.59a10,10,0,0,1-9.86,10.1l-5.71.07a10,10,0,0,1-.24-20l5.71-.07A10,10,0,0,1,151.22,238.59Z"/><path class="cls-3" d="M159.43,213.26l-42.68.5a11.12,11.12,0,0,0-11,11.22l.33,28.27a11.12,11.12,0,0,0,11.22,11l42.68-.5a11.12,11.12,0,0,0,11-11.22l-.33-28.27A11.12,11.12,0,0,0,159.43,213.26ZM162.74,249a8.31,8.31,0,0,1-8.18,8.39l-31.9.38a8.31,8.31,0,0,1-8.38-8.2L114,228.46a8.3,8.3,0,0,1,8.18-8.38l31.9-.38a8.3,8.3,0,0,1,8.38,8.18Z"/><path class="cls-3" d="M151.19,236.37a10,10,0,0,1-9.86,10.1l-5.71.07a10,10,0,0,1-.24-20l5.71-.07A10,10,0,0,1,151.19,236.37Z"/><path class="cls-3" d="M181.19,249h0a4.41,4.41,0,0,1-4.7-4.09l-1.24-17.94a4.41,4.41,0,0,1,4.09-4.7h0a4.41,4.41,0,0,1,4.7,4.09l1.24,17.94A4.41,4.41,0,0,1,181.19,249Z"/><path class="cls-3" d="M95.83,250h0a4.41,4.41,0,0,0,4.6-4.2l.82-18a4.41,4.41,0,0,0-4.2-4.6h0a4.41,4.41,0,0,0-4.6,4.2l-.82,18A4.41,4.41,0,0,0,95.83,250Z"/><path class="cls-26" d="M62.79,177.43c17.73,9.84,81.56,39,150.7-5.66a16.56,16.56,0,0,0,7.25-10.54c5.91-28.53,21.72-138.75-85.2-145.37a48.38,48.38,0,0,0-11,.39c-23.58,4-106.68,27.06-68.18,153.23A13.65,13.65,0,0,0,62.79,177.43Z"/><path d="M194.63,186c0,3.73-2.78,7.27-7.71,10.35-10.07,6.28-29,10.67-50.77,10.93s-40.8-3.68-51-9.73c-5-3-7.9-6.43-7.94-10.16l-.12-10.29c0-1.36,1.47-2.67,4.16-3.88,1.27,1.24,2.6,2.46,4,3.62a75.74,75.74,0,0,0,9.45,6.8l1.3.77a77,77,0,0,0,13.14,6c1.07.37,2.14.73,3.22,1.05a78.83,78.83,0,0,0,47.3-.56c1.07-.35,2.13-.73,3.2-1.13a77,77,0,0,0,13-6.35l1.29-.8a75.74,75.74,0,0,0,9.29-7c1.34-1.19,2.64-2.44,3.88-3.71,2.71,1.14,4.24,2.42,4.26,3.78"/><path class="cls-27" d="M208.44,131.12a83.69,83.69,0,0,1-1.33,11.61,4.33,4.33,0,0,1-4.4,3.55h-.08a4.29,4.29,0,0,1-4.1-4.82,101.63,101.63,0,0,0,.81-10.57,4.31,4.31,0,0,1,3.76-4.2l.52-.07A4.31,4.31,0,0,1,208.44,131.12Z"/><path class="cls-27" d="M195.63,67.18a69.63,69.63,0,0,1,14,50.51,4.51,4.51,0,0,1-4.82,4h0a4.49,4.49,0,0,1-4.1-5.16A86.71,86.71,0,0,0,194.3,68,.78.78,0,0,1,195.63,67.18Z"/><path class="cls-3" d="M48.49,236.63S54.77,215,65.13,206.31l18.23,26.94s-5,6-6.42,18.7Z"/><path class="cls-3" d="M230.35,236.63s-6.28-21.63-16.64-30.32l-18.23,26.94s5,6,6.42,18.7Z"/></svg>