<svg id="Layer_1" data-name="Layer 1" xmlns="http://www.w3.org/2000/svg" viewBox="0 0 1334 750"><defs><style>.cls-1{fill:#07212b;}.cls-2{fill:#fff;}</style></defs><title>background with stars</title><rect class="cls-1" x="-9" width="1344" height="756"/><path class="cls-2" d="M448.19,597.71a2.74,2.74,0,1,1-2.74-2.73,2.74,2.74,0,0,1,2.74,2.73"/><path class="cls-2" d="M97.94,208.81a6,6,0,1,1-6-5.95,6,6,0,0,1,6,5.95"/><path class="cls-2" d="M157.14,119.27a2.74,2.74,0,1,1-2.74-2.73,2.74,2.74,0,0,1,2.74,2.73"/><path class="cls-2" d="M98.26,66.57a2.74,2.74,0,1,1-2.74-2.73,2.74,2.74,0,0,1,2.74,2.73"/><path class="cls-2" d="M213.09,65.55a6,6,0,1,1-6-5.95,6,6,0,0,1,6,5.95"/><path class="cls-2" d="M478.16,17.13a6,6,0,1,1-6-5.95,6,6,0,0,1,6,5.95"/><path class="cls-2" d="M551.53,149.2a6,6,0,1,1-6-5.95,6,6,0,0,1,6,5.95"/><path class="cls-2" d="M567.82,367.54a2.74,2.74,0,1,1-2.74-2.73,2.74,2.74,0,0,1,2.74,2.73"/><path class="cls-2" d="M395.56,130.51a2.74,2.74,0,1,1-2.74-2.73,2.74,2.74,0,0,1,2.74,2.73"/><path class="cls-2" d="M463.35,277.91a2.74,2.74,0,1,1-2.74-2.73,2.74,2.74,0,0,1,2.74,2.73"/><path class="cls-2" d="M497.92,451.68a2.74,2.74,0,1,1-2.74-2.73,2.74,2.74,0,0,1,2.74,2.73"/><path class="cls-2" d="M350.22,543.95a6,6,0,1,1-6-6,6,6,0,0,1,6,6"/><path class="cls-2" d="M445.08,538a2.74,2.74,0,1,1-2.74-2.73,2.74,2.74,0,0,1,2.74,2.73"/><path class="cls-2" d="M409.42,454.41a2.74,2.74,0,1,1-2.74-2.73,2.74,2.74,0,0,1,2.74,2.73"/><path class="cls-2" d="M350.54,401.71a2.74,2.74,0,1,1-2.74-2.73,2.74,2.74,0,0,1,2.74,2.73"/><path class="cls-2" d="M682.41,466.22a2.74,2.74,0,1,1-2.74-2.73,2.74,2.74,0,0,1,2.74,2.73"/><path class="cls-2" d="M187.24,185a2.74,2.74,0,1,1-2.74-2.73,2.74,2.74,0,0,1,2.74,2.73"/><path class="cls-2" d="M220.16,81.54a2.74,2.74,0,1,1-2.74-2.73,2.74,2.74,0,0,1,2.74,2.73"/><path class="cls-2" d="M203,439.21a2.74,2.74,0,1,1-2.74-2.73,2.74,2.74,0,0,1,2.74,2.73"/><path class="cls-2" d="M783.64,518a2.74,2.74,0,1,1-2.74-2.73,2.74,2.74,0,0,1,2.74,2.73"/><path class="cls-2" d="M257.88,293.79a2.74,2.74,0,1,1-2.74-2.73,2.74,2.74,0,0,1,2.74,2.73"/><path class="cls-2" d="M361.37,473.83a2.74,2.74,0,1,1-2.74-2.73,2.74,2.74,0,0,1,2.74,2.73"/><path class="cls-2" d="M453.17,423.12a2.74,2.74,0,1,1-2.74-2.73,2.74,2.74,0,0,1,2.74,2.73"/><path class="cls-2" d="M372.15,376a2.74,2.74,0,1,1-2.74-2.73,2.74,2.74,0,0,1,2.74,2.73"/><path class="cls-2" d="M557.84,426.67a2.74,2.74,0,1,1-2.74-2.73,2.74,2.74,0,0,1,2.74,2.73"/><path class="cls-2" d="M359.07,233.57a2.74,2.74,0,1,1-2.74-2.73,2.74,2.74,0,0,1,2.74,2.73"/><path class="cls-2" d="M743.12,718.4a2.74,2.74,0,1,1-2.74-2.73,2.74,2.74,0,0,1,2.74,2.73"/><path class="cls-2" d="M684.24,665.7a2.74,2.74,0,1,1-2.74-2.73,2.74,2.74,0,0,1,2.74,2.73"/><path class="cls-2" d="M4.3,559a2.74,2.74,0,1,1-2.74-2.73A2.74,2.74,0,0,1,4.3,559"/><path class="cls-2" d="M621.69,685.94a2.74,2.74,0,1,1-2.74-2.73,2.74,2.74,0,0,1,2.74,2.73"/><path class="cls-2" d="M151.09,426.67a2.74,2.74,0,1,1-2.74-2.73,2.74,2.74,0,0,1,2.74,2.73"/><path class="cls-2" d="M761.22,700.77a2.74,2.74,0,1,1-2.74-2.73,2.74,2.74,0,0,1,2.74,2.73"/><path class="cls-2" d="M659.07,676.87a2.74,2.74,0,1,1-2.74-2.73,2.74,2.74,0,0,1,2.74,2.73"/><path class="cls-2" d="M750.87,626.15a2.74,2.74,0,1,1-2.74-2.73,2.74,2.74,0,0,1,2.74,2.73"/><path class="cls-2" d="M599.13,695.31a2.74,2.74,0,1,1-2.74-2.73,2.74,2.74,0,0,1,2.74,2.73"/><path class="cls-2" d="M540.25,642.61a2.74,2.74,0,1,1-2.74-2.73,2.74,2.74,0,0,1,2.74,2.73"/><path class="cls-2" d="M632,591.9a2.74,2.74,0,1,1-2.74-2.73A2.74,2.74,0,0,1,632,591.9"/><path class="cls-2" d="M344.81,434.7a2.74,2.74,0,1,1-3.78.83,2.74,2.74,0,0,1,3.78-.83"/><path class="cls-2" d="M268.66,455.82a2.74,2.74,0,1,1-3.78.83,2.73,2.73,0,0,1,3.78-.83"/><path class="cls-2" d="M25.84,585.74a6,6,0,1,1-6-5.95,6,6,0,0,1,6,5.95"/><path class="cls-2" d="M120.69,579.79a2.74,2.74,0,1,1-2.74-2.73,2.74,2.74,0,0,1,2.74,2.73"/><path class="cls-2" d="M85,496.2a2.74,2.74,0,1,1-2.74-2.73A2.74,2.74,0,0,1,85,496.2"/><path class="cls-2" d="M26.15,443.5a2.74,2.74,0,1,1-2.74-2.73,2.74,2.74,0,0,1,2.74,2.73"/><path class="cls-2" d="M118,392.78a2.74,2.74,0,1,1-2.74-2.73,2.74,2.74,0,0,1,2.74,2.73"/><path class="cls-2" d="M448.68,718.4a6,6,0,1,1-6-5.95,6,6,0,0,1,6,5.95"/><path class="cls-2" d="M542.73,734a2.74,2.74,0,1,1-2.74-2.73,2.74,2.74,0,0,1,2.74,2.73"/><path class="cls-2" d="M507.07,650.41a2.74,2.74,0,1,1-2.74-2.73,2.74,2.74,0,0,1,2.74,2.73"/><path class="cls-2" d="M344.28,746.33a2.74,2.74,0,1,1-2.74-2.73,2.74,2.74,0,0,1,2.74,2.73"/><path class="cls-2" d="M285.4,693.63a2.74,2.74,0,1,1-2.74-2.73,2.74,2.74,0,0,1,2.74,2.73"/><path class="cls-2" d="M70.35,738.58a2.74,2.74,0,1,1-2.74-2.73,2.74,2.74,0,0,1,2.74,2.73"/><path class="cls-2" d="M11.47,685.88a2.74,2.74,0,1,1-2.74-2.73,2.74,2.74,0,0,1,2.74,2.73"/><path class="cls-2" d="M227.58,335.08a6,6,0,1,1-6-5.95,6,6,0,0,1,6,5.95"/><path class="cls-2" d="M322.44,329.13a2.74,2.74,0,1,1-2.74-2.73,2.74,2.74,0,0,1,2.74,2.73"/><path class="cls-2" d="M409.19,287.73a2.74,2.74,0,1,1-2.74-2.73,2.74,2.74,0,0,1,2.74,2.73"/><path class="cls-2" d="M266.66,38.75A2.74,2.74,0,1,1,263.92,36a2.74,2.74,0,0,1,2.74,2.73"/><path class="cls-2" d="M823,110.79a2.74,2.74,0,1,1-2.74-2.73,2.74,2.74,0,0,1,2.74,2.73"/><path class="cls-2" d="M813.85,204.28a6,6,0,1,1-6-5.95,6,6,0,0,1,6,5.95"/><path class="cls-2" d="M723.3,84.32a6,6,0,1,1-6-5.95,6,6,0,0,1,6,5.95"/><path class="cls-2" d="M770.54,403.76A2.74,2.74,0,1,1,767.8,401a2.74,2.74,0,0,1,2.74,2.73"/><path class="cls-2" d="M544.43,244.18a2.74,2.74,0,1,1-2.74-2.73,2.74,2.74,0,0,1,2.74,2.73"/><path class="cls-2" d="M571.25,279a2.74,2.74,0,1,1-2.74-2.73,2.74,2.74,0,0,1,2.74,2.73"/><path class="cls-2" d="M367.4,7a2.74,2.74,0,1,1-2.74-2.73A2.74,2.74,0,0,1,367.4,7"/><path class="cls-2" d="M394.22,41.82a2.74,2.74,0,1,1-2.74-2.73,2.74,2.74,0,0,1,2.74,2.73"/><path class="cls-2" d="M397.57,519.93a2.74,2.74,0,1,1-2.74-2.73,2.74,2.74,0,0,1,2.74,2.73"/><path class="cls-2" d="M547.6,487a2.74,2.74,0,1,1-2.74-2.73A2.74,2.74,0,0,1,547.6,487"/><path class="cls-2" d="M540,547a2.74,2.74,0,1,1-2.74-2.73A2.74,2.74,0,0,1,540,547"/><path class="cls-2" d="M589.18,227.83a6,6,0,1,1-7.3-4.23,6,6,0,0,1,7.3,4.23"/><path class="cls-2" d="M679.37,197.86a2.74,2.74,0,1,1-3.35-1.94,2.74,2.74,0,0,1,3.35,1.94"/><path class="cls-2" d="M623.56,126.15a2.74,2.74,0,1,1-3.35-1.94,2.74,2.74,0,0,1,3.35,1.94"/><path class="cls-2" d="M553.17,90.22a2.74,2.74,0,1,1-3.35-1.94,2.74,2.74,0,0,1,3.35,1.94"/><path class="cls-2" d="M1168.62,597.71a2.74,2.74,0,1,0,2.74-2.73,2.74,2.74,0,0,0-2.74,2.73"/><path class="cls-2" d="M1138.65,17.13a6,6,0,1,0,6-5.95,6,6,0,0,0-6,5.95"/><path class="cls-2" d="M1065.28,149.2a6,6,0,1,0,6-5.95,6,6,0,0,0-6,5.95"/><path class="cls-2" d="M1049,367.54a2.74,2.74,0,1,0,2.74-2.73,2.74,2.74,0,0,0-2.74,2.73"/><path class="cls-2" d="M1221.25,130.51a2.74,2.74,0,1,0,2.74-2.73,2.74,2.74,0,0,0-2.74,2.73"/><path class="cls-2" d="M1153.46,277.91a2.74,2.74,0,1,0,2.74-2.73,2.74,2.74,0,0,0-2.74,2.73"/><path class="cls-2" d="M1118.89,451.68a2.74,2.74,0,1,0,2.74-2.73,2.74,2.74,0,0,0-2.74,2.73"/><path class="cls-2" d="M1266.59,543.95a6,6,0,1,0,6-6,6,6,0,0,0-6,6"/><path class="cls-2" d="M1171.73,538a2.74,2.74,0,1,0,2.74-2.73,2.74,2.74,0,0,0-2.74,2.73"/><path class="cls-2" d="M1207.39,454.41a2.74,2.74,0,1,0,2.74-2.73,2.74,2.74,0,0,0-2.74,2.73"/><path class="cls-2" d="M1266.28,401.71A2.74,2.74,0,1,0,1269,399a2.74,2.74,0,0,0-2.74,2.73"/><path class="cls-2" d="M934.4,466.22a2.74,2.74,0,1,0,2.74-2.73,2.74,2.74,0,0,0-2.74,2.73"/><path class="cls-2" d="M833.18,518a2.74,2.74,0,1,0,2.74-2.73,2.74,2.74,0,0,0-2.74,2.73"/><path class="cls-2" d="M1255.44,473.83a2.74,2.74,0,1,0,2.74-2.73,2.74,2.74,0,0,0-2.74,2.73"/><path class="cls-2" d="M1163.64,423.12a2.74,2.74,0,1,0,2.74-2.73,2.74,2.74,0,0,0-2.74,2.73"/><path class="cls-2" d="M1244.66,376a2.74,2.74,0,1,0,2.74-2.73,2.74,2.74,0,0,0-2.74,2.73"/><path class="cls-2" d="M1059,426.67a2.74,2.74,0,1,0,2.74-2.73,2.74,2.74,0,0,0-2.74,2.73"/><path class="cls-2" d="M1211.75,272.57a2.74,2.74,0,1,0,2.74-2.73,2.74,2.74,0,0,0-2.74,2.73"/><path class="cls-2" d="M873.69,718.4a2.74,2.74,0,1,0,2.74-2.73,2.74,2.74,0,0,0-2.74,2.73"/><path class="cls-2" d="M932.57,665.7a2.74,2.74,0,1,0,2.74-2.73,2.74,2.74,0,0,0-2.74,2.73"/><path class="cls-2" d="M995.12,685.94a2.74,2.74,0,1,0,2.74-2.73,2.74,2.74,0,0,0-2.74,2.73"/><path class="cls-2" d="M855.59,700.77a2.74,2.74,0,1,0,2.74-2.73,2.74,2.74,0,0,0-2.74,2.73"/><path class="cls-2" d="M957.74,676.87a2.74,2.74,0,1,0,2.74-2.73,2.74,2.74,0,0,0-2.74,2.73"/><path class="cls-2" d="M865.94,626.15a2.74,2.74,0,1,0,2.74-2.73,2.74,2.74,0,0,0-2.74,2.73"/><path class="cls-2" d="M1017.68,695.31a2.74,2.74,0,1,0,2.74-2.73,2.74,2.74,0,0,0-2.74,2.73"/><path class="cls-2" d="M1076.56,642.61a2.74,2.74,0,1,0,2.74-2.73,2.74,2.74,0,0,0-2.74,2.73"/><path class="cls-2" d="M984.77,591.9a2.74,2.74,0,1,0,2.74-2.73,2.74,2.74,0,0,0-2.74,2.73"/><path class="cls-2" d="M1272,434.7a2.74,2.74,0,1,0,3.78.83,2.74,2.74,0,0,0-3.78-.83"/><path class="cls-2" d="M1168.14,718.4a6,6,0,1,0,6-5.95,6,6,0,0,0-6,5.95"/><path class="cls-2" d="M1074.08,734a2.74,2.74,0,1,0,2.74-2.73,2.74,2.74,0,0,0-2.74,2.73"/><path class="cls-2" d="M1109.74,650.41a2.74,2.74,0,1,0,2.74-2.73,2.74,2.74,0,0,0-2.74,2.73"/><path class="cls-2" d="M1272.53,746.33a2.74,2.74,0,1,0,2.74-2.73,2.74,2.74,0,0,0-2.74,2.73"/><path class="cls-2" d="M1331.41,693.63a2.74,2.74,0,1,0,2.74-2.73,2.74,2.74,0,0,0-2.74,2.73"/><path class="cls-2" d="M1294.37,329.13a2.74,2.74,0,1,0,2.74-2.73,2.74,2.74,0,0,0-2.74,2.73"/><path class="cls-2" d="M1207.62,287.73a2.74,2.74,0,1,0,2.74-2.73,2.74,2.74,0,0,0-2.74,2.73"/><path class="cls-2" d="M793.81,110.79a2.74,2.74,0,1,0,2.74-2.73,2.74,2.74,0,0,0-2.74,2.73"/><path class="cls-2" d="M803,204.28a6,6,0,1,0,6-5.95,6,6,0,0,0-6,5.95"/><path class="cls-2" d="M893.51,84.32a6,6,0,1,0,6-5.95,6,6,0,0,0-6,5.95"/><path class="cls-2" d="M846.27,403.76A2.74,2.74,0,1,0,849,401a2.74,2.74,0,0,0-2.74,2.73"/><path class="cls-2" d="M1072.38,244.18a2.74,2.74,0,1,0,2.74-2.73,2.74,2.74,0,0,0-2.74,2.73"/><path class="cls-2" d="M1045.56,279a2.74,2.74,0,1,0,2.74-2.73,2.74,2.74,0,0,0-2.74,2.73"/><path class="cls-2" d="M1249.42,7a2.74,2.74,0,1,0,2.74-2.73A2.74,2.74,0,0,0,1249.42,7"/><path class="cls-2" d="M1222.59,41.82a2.74,2.74,0,1,0,2.74-2.73,2.74,2.74,0,0,0-2.74,2.73"/><path class="cls-2" d="M1219.24,519.93a2.74,2.74,0,1,0,2.74-2.73,2.74,2.74,0,0,0-2.74,2.73"/><path class="cls-2" d="M1069.21,487a2.74,2.74,0,1,0,2.74-2.73,2.74,2.74,0,0,0-2.74,2.73"/><path class="cls-2" d="M1076.83,547a2.74,2.74,0,1,0,2.74-2.73,2.74,2.74,0,0,0-2.74,2.73"/><path class="cls-2" d="M1027.63,227.83a6,6,0,1,0,7.3-4.23,6,6,0,0,0-7.3,4.23"/><path class="cls-2" d="M937.44,197.86a2.74,2.74,0,1,0,3.35-1.94,2.74,2.74,0,0,0-3.35,1.94"/><path class="cls-2" d="M993.25,126.15a2.74,2.74,0,1,0,3.35-1.94,2.74,2.74,0,0,0-3.35,1.94"/><path class="cls-2" d="M1063.64,90.22a2.74,2.74,0,1,0,3.35-1.94,2.74,2.74,0,0,0-3.35,1.94"/></svg>