<svg id="Layer_1" data-name="Layer 1" xmlns="http://www.w3.org/2000/svg" viewBox="0 0 411 141"><defs><style>.cls-1{fill:#d6902a;}.cls-2{fill:#f8c67b;}.cls-3{fill:#f16b23;}</style></defs><title>done button</title><rect class="cls-1" x="23.05" y="21.97" width="364.89" height="97.07"/><rect class="cls-2" x="32.5" y="27.48" width="345.99" height="86.04"/><path class="cls-3" d="M143.07,94.17l-.56-47.24,12.85.08q14.42.19,14.48,12-.91,21.3-2.9,26.75Q164.64,92.43,143.07,94.17Zm9.86-36.6-.06,25.89L157.5,82q2.63-.35,3.45-18.72.47-3.89-1.46-4.81Q157.38,57.22,152.93,57.57Z"/><path class="cls-3" d="M194.42,46.69A8.3,8.3,0,0,1,198.93,50q5.76,11.55,5.76,28.14a45.47,45.47,0,0,1-1,10.63q-1.9,6.34-11.85,6.34-11.24-.73-16.56-4-3-1.64-2.84-9.78,0-7.52,2.58-21.08,2-10.37,3.54-12.06,2.08-2.47,8.49-2.36A49.54,49.54,0,0,1,194.42,46.69Zm-6,9.08q-2.58,0-3.39,1.4-.58,1-1.9,8.57-2.22,15.47-.56,17,2.52,2.39,7.75,1.93,4-.54,4.71-3.71a40.59,40.59,0,0,0,.38-6.23,52,52,0,0,0-2.28-16.49,3.71,3.71,0,0,0-1.81-1.91A14.19,14.19,0,0,0,188.46,55.77Z"/><path class="cls-3" d="M215.43,45.54l12.64,26.59-.67-23.87L239,47.66l-1.73,47.8h-8.13l-12.46-26.4-.44,23.5-8.4.51-2-45.84Z"/><path class="cls-3" d="M267.49,50.13l.26,8.57H251.34v9.4l12.06.35V77l-12.06.7v5.18l16.5.75.64,8.41-27.36,1,1.43-44.53Z"/></svg>