<svg id="Layer_1" data-name="Layer 1" xmlns="http://www.w3.org/2000/svg" viewBox="0 0 324 459"><defs><style>.cls-1{fill:#fddcbe;}.cls-2{fill:#fafafa;}.cls-3{fill:#bf6b17;}.cls-4{fill:#789358;}.cls-5{fill:#eb7d86;}.cls-6{fill:#bdbdbd;}.cls-7{fill:#b0b0b0;}.cls-8{fill:#e0e1e1;}.cls-9{fill:#e3e4e5;}.cls-10{fill:#e0e0e0;}.cls-11{fill:#d8d8d8;}.cls-12{fill:#e6e7e8;}.cls-13,.cls-14{fill:#fff;}.cls-13{opacity:0.3;}.cls-14{opacity:0.5;}</style></defs><title>astronaut 0</title><path class="cls-1" d="M71.1,318.51l-.76-21.62,6.51-.23-.18-5.21,6.51-.23.09,2.6,6.51-.23.09,2.6,6.51-.23.76,21.62a3.26,3.26,0,0,1-6.51.23l.23,6.65a3.26,3.26,0,0,1-6.51.23l-.09-2.6a3.26,3.26,0,0,1-6.51.23l-.14-4.05a3.26,3.26,0,0,1-6.51.23Z"/><path class="cls-2" d="M98.58,302.62l-29.39,2.16c-2.89-39.34,14.36-60.84,29.35-71.95a78.93,78.93,0,0,1,33.72-14.39l4,29.2.11,0a51,51,0,0,0-21,9.49C102.7,266.9,97.08,282.21,98.58,302.62Z"/><path class="cls-1" d="M252.9,316.06l.76-21.62-6.51-.23.18-5.21-6.51-.23-.09,2.6-6.51-.23-.09,2.6-6.51-.23-.76,21.62a3.26,3.26,0,0,0,6.51.23l-.23,6.65a3.26,3.26,0,0,0,6.51.23l.09-2.6a3.26,3.26,0,0,0,6.51.23l.14-4.05a3.26,3.26,0,0,0,6.51.23Z"/><path class="cls-2" d="M225.42,300.17l29.39,2.16c2.89-39.34-14.36-60.84-29.35-71.95A78.93,78.93,0,0,0,191.73,216l-4,29.2-.11,0a51,51,0,0,1,21,9.49C221.3,264.46,226.92,279.76,225.42,300.17Z"/><path class="cls-1" d="M213.77,213.32S236.48,65.77,130,108.89c0,0-42.53.23-25.07,108.56Z"/><path class="cls-3" d="M226.53,101.94c-13.61,18.31-39.15,35.12-86.26,23.94l-13.08,25.23s-11.14-11.61-14.68.56,11.68,8.25,11.68,8.25-4.75,18-14.64,29.16A6.13,6.13,0,0,1,99,186.61c-7.73-28.73-27.9-116,18.13-97.22,0,0,13.13-19.81,39-20.79C176.22,67.83,188,93.35,214.45,85,224.54,81.84,232.84,93.45,226.53,101.94Z"/><ellipse class="cls-4" cx="196.13" cy="153.37" rx="3.52" ry="6.07" transform="translate(-5.68 7.56) rotate(-2.18)"/><ellipse class="cls-4" cx="152.38" cy="154.39" rx="3.52" ry="6.07" transform="translate(-5.74 5.89) rotate(-2.17)"/><path class="cls-5" d="M158.23,173.63c.29,5.35,4.26,14,19.15,14,15.28,0,15.24-15,15.24-15a92.63,92.63,0,0,0-17.2-1.55A52.92,52.92,0,0,0,158.23,173.63Z"/><path class="cls-6" d="M166.94,314.12a64.89,64.89,0,0,0-1,14.41,12.6,12.6,0,0,0-8.87.43,64.89,64.89,0,0,0-2.36-14.25c2,0,4-.08,6.11-.18S165,314.29,166.94,314.12Z"/><path class="cls-7" d="M187.06,384.31c-.28.27-.55.55-.81.83.07-.49.13-1,.19-1.47C186.63,383.89,186.84,384.1,187.06,384.31Z"/><path class="cls-6" d="M142.44,387.28l-.89-.75c.19-.22.38-.46.56-.7C142.22,386.32,142.33,386.8,142.44,387.28Z"/><path class="cls-6" d="M140.48,373a81.72,81.72,0,0,0,1.64,12.83c-.18.24-.37.47-.56.7A23.34,23.34,0,0,0,126,381.14a22,22,0,0,0-10.15,3.16c-4.44-9.47-5.94-24.59-3.34-41,2.06-13,6.33-24.47,11.56-32.46,6.49,2.55,17.66,4.06,30.68,3.92A64.89,64.89,0,0,1,157.1,329C146.62,333.42,139.43,351.62,140.48,373Z"/><path class="cls-6" d="M212.42,379.59A22,22,0,0,0,202,377.43a23.34,23.34,0,0,0-15,6.88c-.21-.21-.42-.42-.63-.64a81.69,81.69,0,0,0,.39-12.93c-1-21.38-10-38.8-20.84-42.21a64.89,64.89,0,0,1,1-14.41c13-1.13,23.94-3.72,30.15-6.89,6,7.44,11.34,18.41,14.66,31.18C215.94,354.55,215.92,369.73,212.42,379.59Z"/><path d="M149.15,398.78a6.19,6.19,0,0,1-1,3.85c-2.79,4.13-11.06,5.1-20.84,5.57-12.29.6-22.29.21-22.65-7.26l10.85.9a86.72,86.72,0,0,0,22.93-1.12l8-1.47Z"/><path class="cls-2" d="M149.15,398.78l-2.7.49-8,1.47a86.72,86.72,0,0,1-22.93,1.12l-10.85-.9c-.25-5.22,4.26-12.51,11.18-16.64A22,22,0,0,1,126,381.14a23.34,23.34,0,0,1,15.56,5.39l.89.75C146.42,390.77,149,395.16,149.15,398.78Z"/><path d="M225.17,395.07c.36,7.47-9.55,8.83-21.84,9.43-9.78.48-18.1.33-21.28-3.52a6.19,6.19,0,0,1-1.37-3.74l2.73.22,8.12.68A86.72,86.72,0,0,0,214.46,397Z"/><path class="cls-2" d="M225.17,395.07l-10.71,2a86.72,86.72,0,0,1-22.93,1.12l-8.12-.68-2.73-.22c-.18-3.62,1.94-8.23,5.56-12.1.27-.28.54-.56.81-.83a23.34,23.34,0,0,1,15-6.88,22,22,0,0,1,10.41,2.16C219.72,383,224.92,389.85,225.17,395.07Z"/><path class="cls-1" d="M190,299.09l-52.27,1.72c-11.88.39-21.88-10.5-22.34-24.32l-2-61.28L207.53,213l3.29,59.57C211.6,286.69,202.2,298.69,190,299.09Z"/><path class="cls-8" d="M218.65,317.1l-.26-1.4A4.36,4.36,0,0,1,218.65,317.1Z"/><path class="cls-2" d="M224.22,305.78l-16.92-80.87c-9,5.11-26,8.69-45.49,8.92s-36.55-2.95-45.7-7.84l-15,81.25h0a5.51,5.51,0,0,0,1.82,5.13,22.09,22.09,0,0,0,6.42,3.59c9.34,3.68,25.57,6.2,44.58,6.63,2.91.06,5.89.09,8.93.05s6-.13,8.91-.26c19-.88,35.16-3.79,44.41-7.69a22.16,22.16,0,0,0,6.35-3.75,5.5,5.5,0,0,0,1.7-5.17Zm-82.58-11.29c-6,.07-10.9-4.29-11-9.69l-.3-25c-.06-5.4,4.76-9.88,10.73-10l41.76-.49c6-.07,10.9,4.29,11,9.69l.3,25c.06,5.4-4.76,9.88-10.73,10Z"/><path class="cls-9" d="M90.7,264a.12.12,0,0,1-.14-.12C90.87,263.91,90.47,263.82,90.7,264Z"/><path class="cls-9" d="M96,265.07c.08,0,.17-.07.24,0s0-.12.07-.1-.1.19-.29.18l0,0A.09.09,0,0,0,96,265.07Z"/><path class="cls-9" d="M95.93,265a.31.31,0,0,1,.1.07A.11.11,0,0,1,95.93,265Z"/><path class="cls-9" d="M96,265.19v0Z"/><path class="cls-9" d="M118.12,280.32l0,.09A.2.2,0,0,1,118.12,280.32Z"/><path class="cls-9" d="M117.26,283.39l0,0S117.29,283.38,117.26,283.39Z"/><path class="cls-9" d="M111.38,271.31s0,0,0,0l.11.05Z"/><path class="cls-9" d="M118.27,280v0h0Z"/><path class="cls-9" d="M91.15,263.95c.09.15-.09.11-.17.16S91.11,264,91.15,263.95Z"/><path class="cls-9" d="M95.82,265.14s0-.07-.05-.09.09.05.15.07S95.82,265.16,95.82,265.14Z"/><path class="cls-9" d="M97,265.43l-.4-.24C96.77,265.24,97,265.36,97,265.43Z"/><path class="cls-9" d="M98.23,265.48s-.06-.07,0-.1S98.34,265.45,98.23,265.48Z"/><path class="cls-9" d="M98.27,265.65c0-.12.19,0,.21,0A.26.26,0,0,1,98.27,265.65Z"/><path class="cls-9" d="M100.79,266.14c0-.11.17.09.25.05S100.85,266.16,100.79,266.14Z"/><path class="cls-9" d="M101.91,266.55l.06-.07c.06,0,.11.09,0,.1Z"/><polygon class="cls-9" points="120.18 275.03 120.1 275.13 120.11 275.02 120.18 275.03"/><path class="cls-9" d="M117.08,284.17s-.11,0,0-.13C117,284.18,117.13,284.06,117.08,284.17Z"/><polygon class="cls-9" points="114.21 288.37 114.12 288.27 114.24 288.34 114.21 288.37"/><path class="cls-10" d="M99,313.43,98.72,315A4.92,4.92,0,0,1,99,313.43Z"/><path class="cls-2" d="M177.15,254.58l-31.9.38a8.3,8.3,0,0,0-8.18,8.38l.25,21.12a8.31,8.31,0,0,0,8.38,8.2l31.9-.38a8.31,8.31,0,0,0,8.18-8.39l-.25-21.12A8.3,8.3,0,0,0,177.15,254.58Zm-12.75,29-5.71.07a10,10,0,0,1-.24-20l5.71-.07a10,10,0,0,1,.24,20Z"/><path class="cls-11" d="M174.26,273.46a10,10,0,0,1-9.86,10.1l-5.71.07a10,10,0,0,1-.24-20l5.71-.07A10,10,0,0,1,174.26,273.46Z"/><path class="cls-12" d="M182.48,248.14l-42.68.5a11.12,11.12,0,0,0-11,11.22l.33,28.27a11.12,11.12,0,0,0,11.22,11l42.68-.5a11.12,11.12,0,0,0,11-11.22l-.33-28.27A11.12,11.12,0,0,0,182.48,248.14Zm3.31,35.74a8.31,8.31,0,0,1-8.18,8.39l-31.9.38a8.31,8.31,0,0,1-8.38-8.2l-.25-21.12a8.3,8.3,0,0,1,8.18-8.38l31.9-.38a8.3,8.3,0,0,1,8.38,8.18Z"/><path class="cls-12" d="M174.24,271.24a10,10,0,0,1-9.86,10.1l-5.71.07a10,10,0,0,1-.24-20l5.71-.07A10,10,0,0,1,174.24,271.24Z"/><path class="cls-11" d="M204.24,283.85h0a4.41,4.41,0,0,1-4.7-4.09l-1.24-17.94a4.41,4.41,0,0,1,4.09-4.7h0a4.41,4.41,0,0,1,4.7,4.09l1.24,17.94A4.41,4.41,0,0,1,204.24,283.85Z"/><path class="cls-11" d="M118.88,284.86h0a4.41,4.41,0,0,0,4.6-4.2l.82-18a4.41,4.41,0,0,0-4.2-4.6h0a4.41,4.41,0,0,0-4.6,4.2l-.82,18A4.41,4.41,0,0,0,118.88,284.86Z"/><path class="cls-13" d="M85.84,212.3c17.73,9.84,81.56,39,150.7-5.66a16.56,16.56,0,0,0,7.25-10.54c5.91-28.53,21.72-138.75-85.2-145.37a48.38,48.38,0,0,0-11,.39C124,55.09,40.9,78.19,79.39,204.36A13.65,13.65,0,0,0,85.84,212.3Z"/><path d="M217.67,220.89c0,3.73-2.78,7.27-7.71,10.35-10.07,6.28-29,10.67-50.77,10.93s-40.8-3.68-51-9.73c-5-3-7.9-6.43-7.94-10.16L100.11,212c0-1.36,1.47-2.67,4.16-3.88,1.27,1.24,2.6,2.46,4,3.62a75.74,75.74,0,0,0,9.45,6.8l1.3.77a77,77,0,0,0,13.14,6c1.07.37,2.14.73,3.22,1.05a78.83,78.83,0,0,0,47.3-.56c1.07-.35,2.13-.73,3.2-1.13a77,77,0,0,0,13-6.35l1.29-.8a75.74,75.74,0,0,0,9.29-7c1.34-1.19,2.64-2.44,3.88-3.71,2.71,1.14,4.24,2.42,4.26,3.78"/><path class="cls-14" d="M231.48,166a83.69,83.69,0,0,1-1.33,11.61,4.33,4.33,0,0,1-4.4,3.55h-.08a4.29,4.29,0,0,1-4.1-4.82,101.63,101.63,0,0,0,.81-10.57,4.31,4.31,0,0,1,3.76-4.2l.52-.07A4.31,4.31,0,0,1,231.48,166Z"/><path class="cls-14" d="M218.67,102.05a69.63,69.63,0,0,1,14,50.51,4.51,4.51,0,0,1-4.82,4h0a4.49,4.49,0,0,1-4.1-5.16,86.71,86.71,0,0,0-6.38-48.56A.78.78,0,0,1,218.67,102.05Z"/></svg>