<svg id="Layer_1" data-name="Layer 1" xmlns="http://www.w3.org/2000/svg" viewBox="0 0 599 533"><defs><style>.cls-1{fill:#cecfd1;}.cls-2{fill:#ddd;}.cls-3{fill:#7f7f7f;}.cls-4{fill:#9e9e9e;}.cls-5{fill:#fff;}.cls-6{fill:#f16b23;}.cls-7{fill:#fd0;}.cls-8{fill:#f8a710;}.cls-9{fill:#df4426;}.cls-10{fill:#e96025;}.cls-11{fill:#b74a2c;}.cls-12{fill:#eee6db;}.cls-13{fill:#d1c6b8;}.cls-14{fill:#dff0ff;}.cls-15{fill:#f4dd80;}.cls-16{fill:#bdad68;}.cls-17{fill:#9f918a;}.cls-18{fill:#685e5b;}.cls-19{fill:#f8c67b;}.cls-20{fill:#d6902a;}.cls-21{fill:#9f703a;}</style></defs><title>logo</title><circle class="cls-1" cx="204.46" cy="212" r="52.65" transform="matrix(0.32, -0.95, 0.95, 0.32, -61.47, 338.61)"/><path class="cls-2" d="M192.91,187.79s6,5.91,12.72-.47,2.13-11.36.8-12.77"/><path class="cls-2" d="M170.29,190.32s7,4.17,11.45-3.79-.81-11.67-2.48-12.61"/><ellipse class="cls-3" cx="199.78" cy="181.28" rx="9.47" ry="6.43" transform="translate(-69.93 187.07) rotate(-43.45)"/><path class="cls-4" d="M206.79,175.51c2.21,2.33,1.1,7-2.47,10.33s-8.25,4.23-10.45,1.91-1.1-7,2.47-10.33S204.58,173.18,206.79,175.51Z"/><ellipse class="cls-1" cx="201.73" cy="181.48" rx="3.76" ry="2.45" transform="translate(-69.53 188.47) rotate(-43.45)"/><path class="cls-2" d="M183.63,227.32s12.6,2.93,15.86-9c3.32-12.16-7-14.82-9.53-15.54"/><path class="cls-3" d="M190.38,202.84c4.7,1.31,7,7.85,5.14,14.61s-7.19,11.18-11.89,9.87-7-7.85-5.14-14.61S185.67,201.52,190.38,202.84Z"/><path class="cls-4" d="M190.59,205c4.25,1.18,6.42,6.74,4.85,12.42s-6.27,9.31-10.52,8.13-6.42-6.74-4.85-12.42S186.35,203.82,190.59,205Z"/><path class="cls-1" d="M190.77,209.12c1.79.5,2.65,3.08,1.91,5.77s-2.79,4.45-4.59,4-2.65-3.08-1.91-5.76S189,208.62,190.77,209.12Z"/><path class="cls-2" d="M181.11,250.63s6.6-4,2.54-11.2c-3.59-6.34-8.27-2.38-9.73-1.61"/><path class="cls-3" d="M174.15,237.69c2.68-1.41,6.4.35,8.33,3.93s1.31,7.61-1.36,9-6.41-.35-8.33-3.93S171.47,239.09,174.15,237.69Z"/><path class="cls-4" d="M175.59,239.4c2.41-1.27,5.68.14,7.29,3.14s1,6.46-1.45,7.73-5.68-.14-7.29-3.13S173.17,240.67,175.59,239.4Z"/><path class="cls-2" d="M202,248.52a4.71,4.71,0,0,1,1.42,1.73s4.44,1.35,7.35-3.84-.88-8.22-.88-8.22a2.72,2.72,0,0,1-2.11-.36"/><path class="cls-3" d="M208.46,236.84c2.62,1.51,3.13,5.6,1.13,9.13s-5.73,5.18-8.35,3.67-3.12-5.6-1.13-9.13S205.84,235.33,208.46,236.84Z"/><path class="cls-4" d="M207.78,239c2.36,1.36,2.92,4.87,1.25,7.84s-4.94,4.27-7.31,2.91-2.92-4.87-1.25-7.84S205.41,237.62,207.78,239Z"/><path class="cls-2" d="M238.81,221a6,6,0,0,1,2.38,1.56s5.41-.84,6.85-8.87-4-9.8-4-9.8a3.19,3.19,0,0,1-2.53.67"/><path class="cls-3" d="M241.87,202.58c3.65.51,5.76,5.52,4.73,11.19s-4.83,9.85-8.48,9.35-5.76-5.52-4.73-11.19S238.22,202.07,241.87,202.58Z"/><path class="cls-4" d="M241.86,205.72c3.29.46,5.25,4.69,4.39,9.45s-4.24,8.25-7.53,7.79-5.26-4.69-4.39-9.45S238.57,205.26,241.86,205.72Z"/><path class="cls-3" d="M160.65,211c1.88.06,3.37,2.15,3.31,4.68s-1.62,4.53-3.5,4.47-3.37-2.15-3.31-4.68S158.77,211,160.65,211Z"/><path class="cls-4" d="M160.9,212.39c1.7.05,3,1.81,3,3.94s-1.46,3.8-3.16,3.75-3-1.81-3-3.94S159.21,212.34,160.9,212.39Z"/><path class="cls-3" d="M218.65,197.62c2.28.15,4.16,2.49,4.21,5.24s-1.75,4.85-4,4.7-4.16-2.49-4.22-5.24S216.37,197.47,218.65,197.62Z"/><path class="cls-4" d="M219,199.12a4.39,4.39,0,0,1,3.8,4.41,3.59,3.59,0,0,1-3.64,3.93,4.39,4.39,0,0,1-3.8-4.42A3.58,3.58,0,0,1,219,199.12Z"/><path class="cls-3" d="M229.13,176.79c2.28.15,4.16,2.5,4.22,5.24s-1.76,4.85-4,4.7-4.17-2.49-4.22-5.24S226.85,176.64,229.13,176.79Z"/><path class="cls-4" d="M229.5,178.29a4.39,4.39,0,0,1,3.8,4.41,3.59,3.59,0,0,1-3.64,3.93,4.39,4.39,0,0,1-3.8-4.42A3.59,3.59,0,0,1,229.5,178.29Z"/><ellipse class="cls-3" cx="174.53" cy="181.98" rx="9.47" ry="6.43" transform="translate(-74.45 221.81) rotate(-55.28)"/><ellipse class="cls-4" cx="175.14" cy="182.21" rx="8.9" ry="5.8" transform="translate(-74.37 222.43) rotate(-55.29)"/><ellipse class="cls-1" cx="220" cy="204.66" rx="1.01" ry="0.68" transform="translate(-35.92 362.11) rotate(-74.53)"/><path class="cls-3" d="M229.61,235.58c2.28.15,4.16,2.5,4.22,5.24s-1.75,4.85-4,4.7-4.16-2.49-4.22-5.24S227.34,235.43,229.61,235.58Z"/><path class="cls-4" d="M230,237.08a4.39,4.39,0,0,1,3.8,4.41,3.59,3.59,0,0,1-3.64,3.93,4.39,4.39,0,0,1-3.8-4.42A3.59,3.59,0,0,1,230,237.08Z"/><ellipse class="cls-1" cx="230.97" cy="242.62" rx="1.01" ry="0.67" transform="translate(-64.36 400.7) rotate(-74.57)"/><path class="cls-3" d="M220.11,223.21a2.53,2.53,0,0,1,2.09,2.6,2.06,2.06,0,0,1-2,2.33,2.53,2.53,0,0,1-2.09-2.6A2.06,2.06,0,0,1,220.11,223.21Z"/><path class="cls-4" d="M220.29,224a2.17,2.17,0,0,1,1.88,2.18,1.78,1.78,0,0,1-1.8,1.95,2.18,2.18,0,0,1-1.88-2.19A1.77,1.77,0,0,1,220.29,224Z"/><ellipse class="cls-1" cx="220.78" cy="226.7" rx="0.5" ry="0.33" transform="translate(-56.38 379.41) rotate(-74.61)"/><ellipse class="cls-1" cx="241.49" cy="216.04" rx="2.1" ry="1.49" transform="translate(-31 391.37) rotate(-74.57)"/><ellipse class="cls-1" cx="204.82" cy="247.66" rx="2.1" ry="1.49" transform="translate(-63.25 70.39) rotate(-16.93)"/><ellipse class="cls-1" cx="230.99" cy="183.95" rx="1.11" ry="0.78" transform="translate(-7.79 357.67) rotate(-74.57)"/><ellipse class="cls-1" cx="181.89" cy="247.13" rx="1.1" ry="0.78" transform="translate(-104.63 356.97) rotate(-74.62)"/><ellipse class="cls-1" cx="178.33" cy="184" rx="1.1" ry="0.78" transform="translate(-46.48 306.96) rotate(-74.57)"/><ellipse class="cls-1" cx="161.7" cy="215.98" rx="1.1" ry="0.78" transform="translate(-89.6 314.17) rotate(-74.52)"/><path class="cls-5" d="M133.32,441.85a64.85,64.85,0,0,1-22.57,3.77q-20,0-31.3-12.71-10.38-11.78-10.38-30.58a78.65,78.65,0,0,1,.5-8.6q2.6-20.12,19.18-34.68,17-14.83,38.87-14.83,33,0,46.73,20.58l-6.2,3.77q3,8,3,13.7a66.94,66.94,0,0,1-1.37,11.45q-4.18,21.58-17,35.08,8.94,11.32,13.49,18.33l-24.88,8.27q-3.32-6.16-7.14-11.85A10.11,10.11,0,0,1,133.32,441.85Zm5.27-28.92a41.77,41.77,0,0,0,7-16.75,23.32,23.32,0,0,0,.58-4.57q0-7.68-5-11.78l4.47-2.32q-5.84-11-19.83-11-14.21,0-23.73,8.41-8.94,8-11.11,21.25a32.28,32.28,0,0,0-.51,5.16,24.6,24.6,0,0,0,6.35,17,22.18,22.18,0,0,0,17.31,7.48,29.87,29.87,0,0,0,6.71-.73q-2.09-2.58-8-9.07l-7.86-7.61,29.35-.07Q136.43,410.48,138.59,412.93Z"/><path class="cls-5" d="M260.61,344.23q-2.31,5-7.75,21.11t-8.4,23.83q-8.15,21.18-18.68,29.39-8.87,6.82-23.08,6.82a25.72,25.72,0,0,1-14.21-4.63q-10.1-6.75-10.1-19.86a44.34,44.34,0,0,1,1.73-11.72q5.48-19.72,17.31-42.89l18.9-2.05q-6.27,13.9-8.15,18.14a211,211,0,0,0-9.81,26.81,32.86,32.86,0,0,0-.94,7.68q0,11.65,9.09,11.65,10.39,0,18.24-19.33l18.17-44.94Z"/><path class="cls-5" d="M319.75,344.23l-5.34,15.42h-6.63q-18.68,0-29.21.79l3.6,1.92q-.86,1.72-4.25,9.13-.94,1.92-2.09,4.5l24.88-.86L295.44,389l-24.52.79q-2.67,7.21-5.84,18.33,10-.53,30-1.39L289.6,422H277.2q-12.69,0-37.36,3.71v-.2q0-.73,3-10.66,3.61-11.52,6.42-18.8,4.76-12.18,10.82-24.56,2.31-4.63,5.19-9.66-6.13.6-11.47,1.19L259,347.14q12-.86,28.63-1.72Q297.53,344.89,319.75,344.23Z"/><path class="cls-5" d="M346.72,359.25a50.71,50.71,0,0,0-8.15.79q-8.51,1.85-12.11,6.35a5.34,5.34,0,0,0-1.23,3.31q0,2.91,3.32,7.28a73.37,73.37,0,0,1,5,7.15q4,8.67,4,13.5V399q-1.15,12-15,20.39-7.5,4.63-24.23,8.47l-4-19.79a61.35,61.35,0,0,0,11.4-2.32q12-3.77,12-10.06V395a14.91,14.91,0,0,0-2.24-7.15q-1.23-1.65-4.26-6.09-5.41-7.88-5.41-13.63,0-12.31,10-17.74,7.71-4.1,23.22-7.68Z"/><path class="cls-5" d="M421.65,344.23l-5.34,15.42h-6.92q-10.17,0-17.6.2l5,2.52q-5.56,9.73-13.56,33.69-2.89,9.07-7.21,24.69l-.58.2q-7.79,1.32-21.27,4.77,4.26-14.83,9.74-29.65a237.16,237.16,0,0,1,11-24.56q1.73-3.77,5.77-11.05-11,.93-25,2.58l5.12-15.89q12.55-.86,28.63-1.72Q399.36,344.89,421.65,344.23Z"/><path class="cls-6" d="M434.72,410.37q-.24,3.73-1.31,10.85a11.91,11.91,0,0,1-1.19,3.62,4.09,4.09,0,0,1-3.22,1.53,6.16,6.16,0,0,1-3.7-1.21,3.75,3.75,0,0,1-1.67-3l.24-4.16q.24-3.07.24-4.16l.24-11.28v-17.2q0-18.3.36-29.91t1.43-11.94a14.73,14.73,0,0,0,1.91-.11l2.39-.33q1-.22,1.31.11a5,5,0,0,1,1.31,1,2,2,0,0,0,1.43.77v8.76q0,6,.36,15.78l.24,5.7q.12,2.41.12,8.11.12,3.51.12,16.32Q435.07,407.19,434.72,410.37Z"/><path class="cls-6" d="M482.58,387.36a125,125,0,0,1-1.19,18.08,54,54,0,0,1-3.94,14.35,16.8,16.8,0,0,1-6.8,7.12,17.69,17.69,0,0,1-9.55,2.85,13.06,13.06,0,0,1-8.59-3v.11h-1.08a34,34,0,0,1-6.57-13.37l.24-11.07-.24-18.41a13.74,13.74,0,0,0,.6-2.63q0-7.34.12-9.53l-.12-.77c.08-.07.12-.26.12-.55q1.67-27.83,17-27.83a17.05,17.05,0,0,1,9.91,3,15.29,15.29,0,0,1,5.37,6.9,62.66,62.66,0,0,1,3.46,14.46q.48,4.38.6,5.48A131.94,131.94,0,0,1,482.58,387.36ZM474.94,383q0-4.05-.06-6.14t-.06-3q-.12-1.09-.12-4.82,0-3.18-.12-4.82a18.24,18.24,0,0,0-.72-4.38,32,32,0,0,0-5.61-11.5,3.86,3.86,0,0,0-2.87-1.86q-2,0-3.94,3.4a27.3,27.3,0,0,0-2.51,6.46Q457.16,366.44,457,389l-.12,5.37v4.38a135.21,135.21,0,0,0,1.67,22.46,4.93,4.93,0,0,0,.12,1.15,7.92,7.92,0,0,0,.24.82,3.88,3.88,0,0,0,1,1.42,2.39,2.39,0,0,0,1.67.66q2.51,0,5.25-3.83a30.49,30.49,0,0,0,3.82-6.68q2.75-6.46,3.94-17.75Q474.94,392.4,474.94,383Z"/><path class="cls-6" d="M533.67,342.88l-.12.77-.12.55-.48,7.45.12,2.3a5.88,5.88,0,0,0,.06,1,3.29,3.29,0,0,1,.06.44l-.24,7.78q-.24,5.81-.48,7.78l-.24,4.38v.22a4.59,4.59,0,0,0-.72,2.74V381a6,6,0,0,0,.36,2.08q-.12,3.73-.12,8.44l.12,6.79V408l-.12,2.63v2.08l-.12,1.21.24,4.05V418a6.81,6.81,0,0,0-1.07,2.41A4.51,4.51,0,0,0,529.5,422l-.72.77-.48.11a1.9,1.9,0,0,1-1.31.55,15.23,15.23,0,0,1-2.75-.22,8.25,8.25,0,0,1-2-1.53Q521,420,520.9,419.79v-.44a102,102,0,0,1-5.73-12.27q-2.27-5.92-5.85-16-.12-.44-.66-2t-1.73-4.71q-.36-1.2-2.87-6.57l-2.27-5.59-.12,3.07v.22a4.59,4.59,0,0,0-.72,2.74V381a6,6,0,0,0,.36,2.08l-.12,8.44.12,6.79.12,6.68-.12,3a16.89,16.89,0,0,0-.12,2.63q0,5.81.12,7.34c0,.07,0,.11.12.11q-.24.11-.72,1.1a9.76,9.76,0,0,1-.6,3.72q-.48,1.31-3,1.31l-1.19.11a8.12,8.12,0,0,1-2.63-.55A2.69,2.69,0,0,1,492,422a5.73,5.73,0,0,1-1.79-2.19v-1l-.48-.66a9,9,0,0,1,.12-1.86V416q.72-8.55.72-19.5L490.46,381q-.24-7-.24-15.78a199.71,199.71,0,0,1,1.07-23.56q0-1.09,2.87-1.86,2.87-1,4.06-.66l3.34.22a.6.6,0,0,0,.24.44.35.35,0,0,0,.24.33l.12.33q.24.22.24.33l.36,1.1a31.34,31.34,0,0,1,2.39,7.23q.47,2,1,4.38t1.13,5.15l1.31,6.46q1,5.15,2.39,11.5,1.19,5.15,2,7.56,1,2.19,1.31,3.29,2.15,5.26,3.34,7.78,1.43,3.84,3,7.34a43.81,43.81,0,0,1-.12-4.38v-4.27q0-3-.12-5.26-.12-2.08-.12-5V364.79l-.24-4.27q0-6.68,1.07-8.44.12-2.85.72-10.41.24-1.09,2.87-1.86,2.87-1,4.06-.66l3.34.22.24.44q.24.22.24.33l.36.66.48,1.1.12.66v.55Z"/><path class="cls-5" d="M174.54,123.1l.91,2.51c4.06-1.47,8.24-2.89,12.42-4.22l-.81-2.55C182.84,120.19,178.63,121.62,174.54,123.1Z"/><path class="cls-5" d="M150.05,133.09l1.11,2.43c3.95-1.8,8-3.55,12-5.2l-1-2.47C158.13,129.5,154,131.27,150.05,133.09Z"/><path class="cls-5" d="M126.48,145.06l1.31,2.33c3.77-2.12,7.66-4.19,11.56-6.18l-1.21-2.38C134.2,140.83,130.28,142.93,126.48,145.06Z"/><path class="cls-5" d="M82.76,174.73l1.68,2.08c3.4-2.75,6.88-5.45,10.36-8l-1.59-2.14C89.7,169.24,86.18,172,82.76,174.73Z"/><path class="cls-5" d="M103.73,158.6l1.5,2.21c3.59-2.44,7.29-4.84,11-7.13l-1.4-2.27C111.09,153.73,107.35,156.15,103.73,158.6Z"/><path class="cls-5" d="M278,105.14c4.36-.24,8.78-.42,13.12-.51L291.1,102c-4.37.1-8.81.27-13.21.51Z"/><path class="cls-5" d="M330.52,105.71c4.41.34,8.81.77,13.07,1.25l.3-2.65c-4.29-.49-8.72-.91-13.16-1.26Z"/><path class="cls-5" d="M304.29,104.56c4.35,0,8.77.17,13.13.35l.11-2.67c-4.39-.19-8.84-.31-13.22-.36Z"/><path class="cls-5" d="M370.08,108.46c-.19,0-4.79-1.12-13.08-2.4l-.41,2.64c8.17,1.27,12.83,2.36,12.87,2.36Z"/><path class="cls-5" d="M251.89,107.49c4.32-.54,8.71-1,13.05-1.4l-.24-2.66c-4.37.39-8.79.86-13.15,1.4Z"/><path class="cls-5" d="M225.46,109l.52,2.62c4.26-.84,8.61-1.62,12.92-2.31l-.42-2.64C234.13,107.39,229.76,108.18,225.46,109Z"/><path class="cls-5" d="M199.74,115.09l.71,2.57c4.18-1.15,8.46-2.25,12.71-3.25l-.61-2.6C208.26,112.83,203.94,113.92,199.74,115.09Z"/><path class="cls-7" d="M387.18,107.89s23.33.31,21.77,6C409,113.87,407.84,120.1,387.18,107.89Z"/><path class="cls-8" d="M390.77,108.89s18.07.58,17,4.66C407.72,113.55,407.05,118,390.77,108.89Z"/><path class="cls-9" d="M393.78,109.74s14.14.57,13.29,3.65C407.07,113.39,406.51,116.83,393.78,109.74Z"/><path class="cls-7" d="M383.91,119.8s23.33.31,21.77,6C405.68,125.79,404.56,132,383.91,119.8Z"/><path class="cls-8" d="M387.49,120.81s18.07.58,17,4.66C404.45,125.47,403.78,130,387.49,120.81Z"/><path class="cls-9" d="M390.5,121.65s14.14.57,13.29,3.65C403.8,125.31,403.23,128.75,390.5,121.65Z"/><path class="cls-7" d="M374.3,110.79s23.33.31,21.77,6C396.07,116.77,395,123,374.3,110.79Z"/><path class="cls-8" d="M377.88,111.79s18.07.58,17,4.66C394.84,116.45,394.17,120.94,377.88,111.79Z"/><path class="cls-9" d="M380.89,112.64s14.14.57,13.29,3.65C394.19,116.29,393.62,119.73,380.89,112.64Z"/><path class="cls-6" d="M437.88,115.56a14.58,14.58,0,0,0-7.93-12.31c-5.58-3-16.74-1.41-21.43,1.51,0,0,15.25,1.18,16,9.8Z"/><path class="cls-6" d="M429,114.35l-.15.53-4.35-.33c-.73-8.61-16-9.8-16-9.8S425.47,101.89,429,114.35Z"/><path class="cls-6" d="M431.36,139.29a14.58,14.58,0,0,1-13.11,6.53c-6.32-.27-15.11-7.34-17.65-12.25,0,0,13.71,6.77,18.74-.26Z"/><path class="cls-6" d="M423.1,135.79l.15-.53-3.91-1.94c-5,7-18.74.26-18.74.26S412.61,144.22,423.1,135.79Z"/><path class="cls-10" d="M414.12,129.34c-.6-2.53-.06-6.7.08-7.63.36-.86,2-4.73,3.83-6.6l-5.16-1.42a17.64,17.64,0,0,0-3.26,6.55h0l-.05.19-.05.18h0a17.64,17.64,0,0,0-.55,7.3Z"/><path class="cls-11" d="M409,127.93l5.16,1.42a9.27,9.27,0,0,1-.18-1.12l-1-3.48-3.86-2.14A16.65,16.65,0,0,0,409,127.93Z"/><path class="cls-12" d="M468.28,150.38c14.74-.18,23.88-7.24,23.88-7.24s-4.25-10.74-16.83-18.43c-8.79-5.38-18.43-8.36-35.29-9.69s-22-1.59-22-1.59a16.28,16.28,0,0,0-4.47,7.79,20.12,20.12,0,0,0-.3,9.57s4.59,2.44,19.76,9.9S458,150.51,468.28,150.38Z"/><polygon class="cls-13" points="474.18 144.67 474.18 144.67 474.18 144.67 474.18 144.67"/><path class="cls-13" d="M412.88,124.94a19,19,0,0,0,.36,5.85s4.59,2.44,19.76,9.9,25,9.82,35.29,9.69c1.53,0,3-.12,4.4-.27l1.49-5.45C474.13,144.67,451.61,146.36,412.88,124.94Z"/><ellipse class="cls-6" cx="457.91" cy="133.72" rx="8.96" ry="11.12" transform="translate(207.65 539.84) rotate(-74.64)"/><ellipse class="cls-14" cx="457.91" cy="133.72" rx="6.24" ry="7.74" transform="translate(207.65 539.84) rotate(-74.64)"/><path class="cls-6" d="M471.26,150.25c13-1,20.91-7.11,20.91-7.11s-3.71-9.36-14.43-16.86C477.74,126.33,479.61,136.28,471.26,150.25Z"/><path class="cls-6" d="M474.18,144.67a54.43,54.43,0,0,1-2.92,5.57h0a43.79,43.79,0,0,0,19.41-6.13h0l.31-.19,0,0,.26-.17,0,0,.21-.14,0,0,.16-.11,0,0,.12-.08,0,0,.08-.06h0l.06,0,0,0s-5.54,2-18,1.53Z"/><polygon class="cls-6" points="474.18 144.67 474.18 144.67 474.18 144.67 474.18 144.67"/><path class="cls-6" d="M434.53,127.74s-10-12.49-36.44-10C398.09,117.73,417.91,132,434.53,127.74Z"/><path class="cls-6" d="M398.09,117.73s19.81,14.3,36.44,10C434.53,127.74,413.61,126.17,398.09,117.73Z"/><circle class="cls-15" cx="375.08" cy="190.68" r="31.33" transform="translate(-45.5 203.03) rotate(-28.63)"/><path class="cls-16" d="M362.78,161.86a68.3,68.3,0,0,0,29.31,13.38,52.88,52.88,0,0,0,10.71.85q.54,1,1,2.08a54,54,0,0,1-12-.84c-7.74-1.37-19.16-5-31.19-14.46Q361.71,162.32,362.78,161.86Z"/><path class="cls-16" d="M391.91,187.45a90.78,90.78,0,0,1-40.56-17.23q.92-1.07,1.94-2.06a88,88,0,0,0,38.9,16.49,72.47,72.47,0,0,0,13.79.77q.24,1.4.35,2.81A75.11,75.11,0,0,1,391.91,187.45Z"/><path class="cls-16" d="M348.17,174.63c15.57,12.28,30.62,16.71,40.72,18.24a66.93,66.93,0,0,0,17.41.49,31.51,31.51,0,0,1-1.26,6.47,75,75,0,0,1-16.79-.67c-10.68-1.58-26.46-6.13-42.81-18.65A31.42,31.42,0,0,1,348.17,174.63Z"/><path class="cls-16" d="M343.89,193.69a31.19,31.19,0,0,1-.12-4.08c15.86,12.48,31.22,17,41.52,18.52a71.18,71.18,0,0,0,15.35.68,31,31,0,0,1-2.69,3.3,76.39,76.39,0,0,1-13-.84C374.7,209.76,359.61,205.44,343.89,193.69Z"/><path class="cls-16" d="M377.4,217.14a58.7,58.7,0,0,0,13.67.48l-1,.56a31.55,31.55,0,0,1-3.8,1.76,64.64,64.64,0,0,1-9.11-.69,73.78,73.78,0,0,1-27.34-10,31.56,31.56,0,0,1-2.27-3.57l-.31-.59A72.59,72.59,0,0,0,377.4,217.14Z"/><path class="cls-17" d="M406.3,193.36s9.64,4.82,9.6,10.24-19.62,4.16-42.37-2.72-35.32-14.05-41-22.68c-5.3-8.1,15.6-3.56,15.6-3.56l1.14-1.78s-30.81-10.08-38.63-4.62,15.06,21.64,60.91,36.58c33.4,10.89,69.6,17.71,67,5.83-2.16-9.82-32.16-19.6-32.16-19.6Z"/><path class="cls-18" d="M332.57,178.19c4.69,7.18,14.18,13.35,30.31,19.17.23,1.37.48,3.05.75,4.76-40.5-14.15-60.29-28.75-52.95-33.89,7.81-5.46,38.63,4.62,38.63,4.62l-1.14,1.78S327.27,170.09,332.57,178.19Z"/><polygon class="cls-19" points="261.74 319.4 70.03 319.4 160.39 219.43 261.74 319.4"/><polygon class="cls-20" points="125.5 319.4 70.03 319.4 160.39 219.43 159.83 221.02 125.5 319.4"/><polygon class="cls-19" points="519.82 319.4 328.12 319.4 418.47 219.43 519.82 319.4"/><polygon class="cls-20" points="383.59 319.4 328.12 319.4 418.47 219.43 417.91 221.02 383.59 319.4"/><polygon class="cls-19" points="432.61 319.4 158.47 319.4 287.68 176.43 432.61 319.4"/><polygon class="cls-20" points="237.79 319.4 158.47 319.4 287.68 176.43 286.88 178.71 237.79 319.4"/><rect class="cls-21" x="68.33" y="319.14" width="451.5" height="8.35"/></svg>