<svg id="Layer_1" data-name="Layer 1" xmlns="http://www.w3.org/2000/svg" viewBox="0 0 338 295"><defs><style>.cls-1,.cls-16,.cls-8,.cls-9{fill:#e8563d;}.cls-1,.cls-2,.cls-3,.cls-4,.cls-5,.cls-6,.cls-7,.cls-8{stroke:#fff;stroke-miterlimit:10;stroke-width:16px;}.cls-1,.cls-13,.cls-14,.cls-5,.cls-6,.cls-9{fill-rule:evenodd;}.cls-10,.cls-2{fill:#d8d6d8;}.cls-11,.cls-3{fill:#e6e6e6;}.cls-12,.cls-4{fill:#3d72e8;}.cls-13,.cls-5{fill:#f7ac3b;}.cls-14,.cls-6{fill:#f2d970;}.cls-15,.cls-7{fill:#d33b26;}</style></defs><title>highlightRocket</title><polyline class="cls-1" points="202.67 122.78 281.31 111.98 290.35 123.85 241.38 164.03"/><polyline class="cls-1" points="164.34 171.03 171.6 250.07 185.21 256.19 213.27 199.41"/><path class="cls-2" d="M101.54,53,87.2,70.84,72.86,88.69s1.85,26.06,48.13,63.22S222.41,213,222.41,213l16.39-20.41,16.39-20.41s-35.24-48.67-81.52-85.83S101.54,53,101.54,53Z"/><path class="cls-3" d="M143.78,116.16a17.39,17.39,0,1,0-24.45,2.67A17.41,17.41,0,0,0,143.78,116.16Z"/><path class="cls-4" d="M146.78,118.57a21.23,21.23,0,1,0-29.85,3.26A21.24,21.24,0,0,0,146.78,118.57Zm-28-22.5A14.7,14.7,0,1,1,121,116.73,14.72,14.72,0,0,1,118.76,96.07Z"/><circle class="cls-3" cx="171.3" cy="137.9" r="8.4" transform="translate(-43.48 185.12) rotate(-51.23)"/><path class="cls-4" d="M179.29,144.32a10.25,10.25,0,1,0-14.42,1.57A10.25,10.25,0,0,0,179.29,144.32Zm-13.53-10.86a7.1,7.1,0,1,1,1.09,10A7.11,7.11,0,0,1,165.76,133.46Z"/><path class="cls-3" d="M207.88,167a8.4,8.4,0,1,0-11.81,1.29A8.4,8.4,0,0,0,207.88,167Z"/><path class="cls-4" d="M209.33,168.19a10.25,10.25,0,1,0-14.41,1.57A10.25,10.25,0,0,0,209.33,168.19ZM195.8,157.32a7.1,7.1,0,1,1,1.09,10A7.11,7.11,0,0,1,195.8,157.32Z"/><path class="cls-5" d="M229.7,209.32l26.21-30.46a85.27,85.27,0,0,1,35.75,33.57s-5.18-.68-11.9-1c0,0,7.75,7.38,10.69,21.39C290.45,232.8,264.93,247.38,229.7,209.32Z"/><path class="cls-6" d="M232.25,206.3l20.59-23.93s16.92,5.6,27.57,24.32a52.06,52.06,0,0,1-9.72-1.12A48.15,48.15,0,0,1,280,224.75S259.94,236.21,232.25,206.3Z"/><path class="cls-7" d="M230.43,210.68l-6.11,7.68a3.06,3.06,0,0,1-4.3.49h0a3.06,3.06,0,0,1-.49-4.3L255,169.86a3.06,3.06,0,0,1,4.3-.5h0a3.06,3.06,0,0,1,.49,4.3l-29.4,37"/><polygon class="cls-8" points="71.91 93.87 46.34 38 106.42 50.89 71.91 93.87"/><path class="cls-7" d="M109.55,50.59a2.26,2.26,0,0,1,.35,3.17L75.46,96.65a2.26,2.26,0,0,1-3.17.35h0a2.26,2.26,0,0,1-.35-3.17l34.43-42.89a2.27,2.27,0,0,1,3.17-.35Z"/><polyline class="cls-9" points="202.67 123.59 281.31 112.78 290.35 124.65 241.38 164.83"/><polyline class="cls-9" points="164.34 171.83 171.6 250.88 185.21 257 213.27 200.22"/><path class="cls-10" d="M101.54,53.78,87.2,71.64,72.86,89.5s1.85,26.06,48.13,63.22,101.42,61.05,101.42,61.05l16.39-20.41L255.19,173s-35.24-48.67-81.52-85.83S101.54,53.78,101.54,53.78Z"/><path class="cls-11" d="M143.78,117a17.39,17.39,0,1,0-24.45,2.67A17.41,17.41,0,0,0,143.78,117Z"/><path class="cls-12" d="M146.78,119.37a21.23,21.23,0,1,0-29.85,3.26A21.24,21.24,0,0,0,146.78,119.37Zm-28-22.5A14.7,14.7,0,1,1,121,117.54,14.72,14.72,0,0,1,118.76,96.88Z"/><circle class="cls-11" cx="171.3" cy="138.71" r="8.4" transform="translate(-44.11 185.42) rotate(-51.23)"/><path class="cls-12" d="M179.29,145.13a10.25,10.25,0,1,0-14.42,1.57A10.25,10.25,0,0,0,179.29,145.13Zm-13.53-10.86a7.1,7.1,0,1,1,1.09,10A7.11,7.11,0,0,1,165.76,134.26Z"/><path class="cls-11" d="M207.88,167.83a8.4,8.4,0,1,0-11.81,1.29A8.4,8.4,0,0,0,207.88,167.83Z"/><path class="cls-12" d="M209.33,169a10.25,10.25,0,1,0-14.41,1.57A10.25,10.25,0,0,0,209.33,169ZM195.8,158.12a7.1,7.1,0,1,1,1.09,10A7.11,7.11,0,0,1,195.8,158.12Z"/><path class="cls-13" d="M229.7,210.12l26.21-30.46a85.27,85.27,0,0,1,35.75,33.57s-5.18-.68-11.9-1c0,0,7.75,7.38,10.69,21.39C290.45,233.6,264.93,248.19,229.7,210.12Z"/><path class="cls-14" d="M232.25,207.1l20.59-23.93s16.92,5.6,27.57,24.32a52.06,52.06,0,0,1-9.72-1.12A48.15,48.15,0,0,1,280,225.55S259.94,237,232.25,207.1Z"/><path class="cls-15" d="M230.43,211.49l-6.11,7.68a3.06,3.06,0,0,1-4.3.49h0a3.06,3.06,0,0,1-.49-4.3L255,170.67a3.06,3.06,0,0,1,4.3-.5h0a3.06,3.06,0,0,1,.49,4.3l-29.4,37"/><polygon class="cls-16" points="71.91 94.68 46.34 38.8 106.42 51.7 71.91 94.68"/><path class="cls-15" d="M109.55,51.39a2.26,2.26,0,0,1,.35,3.17L75.46,97.45a2.26,2.26,0,0,1-3.17.35h0a2.26,2.26,0,0,1-.35-3.17l34.43-42.89a2.27,2.27,0,0,1,3.17-.35Z"/></svg>