<svg id="Layer_1" data-name="Layer 1" xmlns="http://www.w3.org/2000/svg" viewBox="0 0 440 133"><defs><style>.cls-1{fill:#f8c67b;}</style></defs><title>settings lettering</title><path class="cls-1" d="M48.61,61.35Q79.14,71.84,64.5,102.4q-1.88,4-7.62,5.54a58.27,58.27,0,0,1-15,1.54q-12.87-.54-15.39-4Q21.1,97.76,21.4,90A29.91,29.91,0,0,1,24.82,76.6l13.8,1.59q-4.4,6.72-1.19,12.08,1.38,2.41,6.78,2.36,5.94,0,7.47-.91,2.77-1.09,3.07-3.22Q56.18,80.15,47,77.06,21.65,66.39,21.2,53.13q-.2-15.85,4.3-18.62Q33.62,29,48.37,27.79q15.14,0,18.06,10.72,1.53,6.68.25,19.3l-12.86.54a64.52,64.52,0,0,0-.54-6.68q-.89-6.27-7-7.13-8.12.09-9.6,6.22Q35.16,55.49,48.61,61.35Z"/><path class="cls-1" d="M116.5,33.46l.45,14.49H89.19V63.84l20.39.59V78.87L89.19,80.05v8.76l27.91,1.27,1.09,14.21L71.92,106l2.42-75.29Z"/><path class="cls-1" d="M141.53,107.85l-.89-62H123.33L123,30.15l52.45-2.72-.59,18.39H159L157.76,106Z"/><path class="cls-1" d="M198.14,107.85l-.89-62H179.93l-.3-15.67,52.45-2.72-.59,18.39H215.55L214.37,106Z"/><path class="cls-1" d="M238,43.18l-1.68-20.34,17.12.64-1.34,20.3Zm1.58,67-3-59.94,17.12-1.82v58.12Z"/><path class="cls-1" d="M273.14,25.7l21.37,45-1.14-40.37,19.59-1-2.92,80.83H296.3L275.22,65.48l-.74,39.73-14.2.86L257,28.56Z"/><path class="cls-1" d="M341.27,62.3l26,0-1.14,31.38q-1.09,15.17-15.88,16.3-9.5.68-13.8-1-12-3-15.19-16.26-5.54-30.24-2.67-54.36,1.19-7.77,8.56-9.22,17.27-4,26.57-1.91,13.66,3.68,14.15,15.48.25,5.4,0,11.85l-15.19,1.27q-.25-3.09-.69-6-1-5.81-5.15-6.22-6.38-1.23-9.55.23-3.17,1.27-3.91,7.49Q332.12,65,335.54,88q1.83,6.49,10.74,5,5.44-.77,5.54-6.86l.4-9.31-11.48.64Z"/><path class="cls-1" d="M398.17,61.35q30.53,10.49,15.88,41.05-1.88,4-7.62,5.54a58.27,58.27,0,0,1-15,1.54q-12.87-.54-15.39-4-5.34-7.72-5-15.46a29.91,29.91,0,0,1,3.41-13.42l13.8,1.59q-4.4,6.72-1.19,12.08,1.38,2.41,6.78,2.36,5.94,0,7.47-.91,2.77-1.09,3.07-3.22,1.44-8.35-7.77-11.44-25.33-10.67-25.78-23.93-.2-15.85,4.3-18.62,8.11-5.54,22.86-6.72,15.14,0,18.06,10.72,1.53,6.68.25,19.3l-12.86.54a64.52,64.52,0,0,0-.54-6.68q-.89-6.27-7-7.13-8.12.09-9.6,6.22Q384.72,55.49,398.17,61.35Z"/></svg>