<svg id="Layer_1" data-name="Layer 1" xmlns="http://www.w3.org/2000/svg" viewBox="0 0 298 306"><defs><style>.cls-1,.cls-8{fill:#e8563d;}.cls-1,.cls-5,.cls-6{fill-rule:evenodd;}.cls-2{fill:#d8d6d8;}.cls-3{fill:#e6e6e6;}.cls-4{fill:#3d72e8;}.cls-5{fill:#f7ac3b;}.cls-6{fill:#f2d970;}.cls-7{fill:#d33b26;}</style></defs><title>Rocket</title><polyline class="cls-1" points="185.65 126.53 271.24 114.78 281.08 127.69 227.78 171.43"/><polyline class="cls-1" points="143.93 179.04 151.83 265.08 166.64 271.74 197.19 209.94"/><path class="cls-2" d="M75.57,50.56,60,70,44.36,89.43s2,28.36,52.39,68.81,110.39,66.45,110.39,66.45L225,202.48l17.83-22.21s-38.36-53-88.73-93.42S75.57,50.56,75.57,50.56Z"/><path class="cls-3" d="M121.55,119.33a18.93,18.93,0,1,0-26.61,2.91A18.95,18.95,0,0,0,121.55,119.33Z"/><path class="cls-4" d="M124.81,121.95a23.11,23.11,0,1,0-32.49,3.55A23.11,23.11,0,0,0,124.81,121.95ZM94.32,97.46A16,16,0,1,1,96.77,120,16,16,0,0,1,94.32,97.46Z"/><circle class="cls-3" cx="151.5" cy="142.99" r="9.14" transform="translate(-54.85 171.59) rotate(-51.23)"/><path class="cls-4" d="M160.2,150a11.16,11.16,0,1,0-15.69,1.71A11.16,11.16,0,0,0,160.2,150Zm-14.73-11.83A7.73,7.73,0,1,1,146.66,149,7.74,7.74,0,0,1,145.48,138.15Z"/><path class="cls-3" d="M191.32,174.68a9.14,9.14,0,1,0-12.85,1.41A9.15,9.15,0,0,0,191.32,174.68Z"/><path class="cls-4" d="M192.89,176a11.16,11.16,0,1,0-15.69,1.71A11.16,11.16,0,0,0,192.89,176Zm-14.72-11.83A7.73,7.73,0,1,1,179.36,175,7.74,7.74,0,0,1,178.17,164.12Z"/><path class="cls-5" d="M215.06,220.72l28.53-33.15A92.81,92.81,0,0,1,282.5,224.1s-5.64-.74-12.95-1.11c0,0,8.44,8,11.63,23.29C281.19,246.28,253.41,262.15,215.06,220.72Z"/><path class="cls-6" d="M217.85,217.44l22.41-26s18.41,6.1,30,26.47a56.66,56.66,0,0,1-10.58-1.22,52.41,52.41,0,0,1,10.11,20.88S248,250,217.85,217.44Z"/><path class="cls-7" d="M215.87,222.2l-6.65,8.36a3.33,3.33,0,0,1-4.68.54h0a3.33,3.33,0,0,1-.53-4.68l38.65-48.65a3.33,3.33,0,0,1,4.68-.54h0a3.33,3.33,0,0,1,.53,4.68l-32,40.29"/><polygon class="cls-8" points="43.32 95.07 15.5 34.26 80.89 48.28 43.32 95.07"/><path class="cls-7" d="M84.29,48a2.46,2.46,0,0,1,.38,3.45L47.19,98.09a2.46,2.46,0,0,1-3.45.38h0A2.46,2.46,0,0,1,43.37,95L80.84,48.34A2.47,2.47,0,0,1,84.29,48Z"/></svg>