<svg id="Layer_1" data-name="Layer 1" xmlns="http://www.w3.org/2000/svg" viewBox="0 0 299 281"><defs><style>.cls-1{fill:#23b6d8;}.cls-2{fill:#6da04b;}</style></defs><title>Earth</title><g id="Earth"><circle class="cls-1" cx="149.5" cy="140.5" r="128.55"/><path class="cls-2" d="M274.55,110.59l-2.1-.78h-10.1l-7.45-6-15.63,11.54-13-11.54-22.12,4.09L190,109.56l-2.4,26.69,5.77,25.49H216.9l13.1-1.92,5.65,10.34,6,12-10.58,8.9,8.9,20.2-1.44,7.93,7.85,5.78a128.74,128.74,0,0,0,28.16-114.4Z"/><path class="cls-2" d="M37.94,128.48l8.34,1.92,8.34,5.45,11.22,3.53,5.77,1.44,5.45,2.4L74.16,149l-9,14.43,9.94,11.86,14.11,9v8l9.3,14.1s-1,9,0,11.86,6.41,18,6.41,18l5.45,7.05,13.14,1.6-8.34-13.46s12.18-18.59,13.14-19.24-3.85-8-2.88-9,8.65-9.3,8.65-9.3l8.34-10.58L146,169.51l-10.58-16.67s-11.86-8.33-11.86-9.3-7.7-9.3-7.7-9.3l-21.48-.64-12.18-3.85-4.49,8-10.26-5.13.32-8.47h-8l-4.49-6.92L62,112.13l13.78,7.05,8.66-5.45,9.3-21.8,8.34-10.58h15.07l2.24-5.13,9.94-4.81,4.17,2.77L138,67.57,129.3,55.39l-6.73-2.24-2.48,2.33L112,63.08,93.08,58.59l-2.57,9L82.18,57l10.9-3.85,12.18,3.21,4.81-4.81,15.39-2.25L113,36.15H98.53l-5.77,9.3L87,38.07l-14-.92a128.47,128.47,0,0,0-50.82,85.25l10.27,1.77Z"/><path class="cls-2" d="M226.92,60.83v5.77l-17,4.81,1.6,12.18-9.62-5.89-9.3,7.49,6.09,9,9.3,1.28L223.72,83l4.49,5.77s-2.89,6.73,0,9,15,5.77,15,5.77V92.57l-8.27-7.37,5.45-4.49L250.32,89l-3.21,5.77,18.59,8.66s2-2.36,5-5.85a128.91,128.91,0,0,0-49.94-64.12l-5.4,20.27Z"/><path class="cls-2" d="M50.41,195.85l-1.95-1.95L43.08,195v5.3l-5.65,3.19a128.86,128.86,0,0,0,8.41,13l4.09-.76,8-5.74.44-5.23-8-3.83Z"/></g></svg>