<svg id="Layer_1" data-name="Layer 1" xmlns="http://www.w3.org/2000/svg" viewBox="0 0 1006 158"><defs><style>.cls-1{fill:#f8c67b;}</style></defs><title>character selection lettering</title><path class="cls-1" d="M83.64,106q-9.51,12.24-18.31,13.51-7.6.92-11.76-.53Q42,116.64,39.14,104.36,34.21,76.41,36.7,58.69q1.77-11,13-14.65,10.56-3.46,19.55-1.89,11.95,2.37,12.24,13.38.14,5-.1,11.14L67.19,68.16q-.19-2.63-.57-5.22-.76-4.25-4.83-4.47a10,10,0,0,0-6.26,1q-3.11,1.27-3.92,7.06-1.43,12.85,1.77,33,1.43,6,8.32,4.39,4.44-1,11.9-9Z"/><path class="cls-1" d="M116.76,120.46V92l-13.48,1.32v23.51L89,115.37,86.74,40.83l16.54-1.49V76.5l13.48.7V42.55l16.54,1-2.1,75.85Z"/><path class="cls-1" d="M182.53,121.16l-3.44-14.83H156.48l-3.92,12.28L137,115.76,164.56,41l10.61,1.58L199.4,117.6Zm-21.17-29.3,13.77-.53-5.88-22.2Z"/><path class="cls-1" d="M220.39,92.38v27.68l-15.2-1.18-2.82-78Q247.73,37,248.44,51q.48,20-2.92,28.73a10.34,10.34,0,0,1-8.56,8l-1,.22,15.1,24.61-9.8,8.95Zm.09-36.94V76.63q13.1-1,13.72-11.76.86-6.36-2.44-7.63Q228.22,55.4,220.48,55.44Z"/><path class="cls-1" d="M298,121.16l-3.44-14.83H272L268,118.61l-15.53-2.85L280,41l10.61,1.58,24.23,75.06Zm-21.17-29.3,13.77-.53-5.88-22.2Z"/><path class="cls-1" d="M360.38,106q-9.51,12.24-18.31,13.51-7.6.92-11.76-.53-11.57-2.33-14.43-14.61Q311,76.41,313.45,58.69q1.77-11,13-14.65,10.56-3.46,19.55-1.89,11.95,2.37,12.24,13.38.14,5-.1,11.14l-14.15,1.49q-.19-2.63-.57-5.22-.77-4.25-4.83-4.47a10,10,0,0,0-6.26,1q-3.11,1.27-3.92,7.06-1.43,12.85,1.77,33,1.43,6,8.32,4.39,4.45-1,11.9-9Z"/><path class="cls-1" d="M381.08,118.61l-.86-59.92H363.49l-.29-15.13,50.67-2.63-.57,17.77H397.9l-1.15,58.12Z"/><path class="cls-1" d="M460.42,46.76l.43,14H434V76.1l19.69.57V90.62L434,91.77v8.47l27,1.23L462,115.19l-44.69,1.67,2.34-72.73Z"/><path class="cls-1" d="M485,92.38v27.68l-15.2-1.18-2.82-78Q512.38,37,513.1,51q.48,20-2.92,28.73a10.34,10.34,0,0,1-8.56,8l-1,.22,15.1,24.61-9.8,8.95Zm.1-36.94V76.63q13.1-1,13.72-11.76.86-6.36-2.44-7.63Q492.88,55.4,485.13,55.44Z"/><path class="cls-1" d="M568.11,73.69q29.49,10.13,15.34,39.66-1.82,3.9-7.36,5.35a56.3,56.3,0,0,1-14.53,1.49q-12.43-.53-14.87-3.86-5.16-7.46-4.87-14.94a28.89,28.89,0,0,1,3.3-13L558.46,90q-4.26,6.49-1.15,11.67,1.34,2.33,6.55,2.28,5.74,0,7.22-.88,2.68-1.05,3-3.11,1.39-8.07-7.5-11.05-24.47-10.31-24.9-23.12-.19-15.31,4.16-18,7.84-5.35,22.08-6.49,14.63,0,17.45,10.35,1.48,6.45.24,18.64l-12.43.53a62.15,62.15,0,0,0-.53-6.45q-.86-6.05-6.79-6.89-7.84.09-9.27,6Q555.11,68,568.11,73.69Z"/><path class="cls-1" d="M633.69,46.76l.43,14H607.3V76.1l19.69.57V90.62L607.3,91.77v8.47l27,1.23,1.05,13.73-44.69,1.67L593,44.13Z"/><path class="cls-1" d="M641.86,118.88,640,38.64l18.78-1.8-2,64.18h26.24l-.1,15.4Z"/><path class="cls-1" d="M729.67,46.76l.43,14H703.28V76.1l19.69.57V90.62l-19.69,1.14v8.47l27,1.23,1.05,13.73-44.69,1.67,2.34-72.73Z"/><path class="cls-1" d="M783.77,106q-9.51,12.24-18.31,13.51-7.6.92-11.76-.53-11.57-2.33-14.43-14.61-4.92-27.94-2.44-45.67,1.77-11,13-14.65,10.56-3.46,19.55-1.89,11.95,2.37,12.24,13.38.14,5-.1,11.14l-14.15,1.49q-.19-2.63-.57-5.22-.77-4.25-4.83-4.47a10,10,0,0,0-6.26,1q-3.11,1.27-3.92,7.06-1.43,12.85,1.77,33,1.43,6,8.32,4.39,4.45-1,11.9-9Z"/><path class="cls-1" d="M804.47,118.61l-.86-59.92H786.88l-.29-15.13,50.67-2.63-.57,17.77H821.29l-1.15,58.12Z"/><path class="cls-1" d="M842.95,56.14l-1.62-19.65,16.54.61-1.29,19.61Zm1.53,64.71-2.92-57.91,16.54-1.75v56.15Z"/><path class="cls-1" d="M897.34,41.14a13.56,13.56,0,0,1,7.36,5.35q9.42,18.86,9.42,46a74.29,74.29,0,0,1-1.62,17.37q-3.11,10.35-19.36,10.35-18.35-1.18-27.05-6.54-4.83-2.68-4.64-16,0-12.28,4.21-34.44,3.34-16.93,5.78-19.7,3.39-4,13.86-3.86A80.88,80.88,0,0,1,897.34,41.14ZM887.59,56q-4.21,0-5.54,2.28-1,1.62-3.11,14Q875.3,97.51,878,100q4.11,3.9,12.67,3.16,6.6-.88,7.7-6.05A66.29,66.29,0,0,0,899,86.9Q899,71,895.28,60a6.06,6.06,0,0,0-3-3.11A23.13,23.13,0,0,0,887.59,56Z"/><path class="cls-1" d="M931.66,39.26l20.65,43.43-1.1-39,18.93-1-2.82,78.08H954L933.66,77.68l-.72,38.38-13.72.83L916,42Z"/></svg>