<svg xmlns="http://www.w3.org/2000/svg" xmlns:xlink="http://www.w3.org/1999/xlink" viewBox="0 0 1334 750"><defs><style>.cls-1{isolation:isolate;}.cls-2{fill:#07212b;}.cls-3{fill:#fff;}.cls-4{fill:#fae281;}.cls-5{fill:#ff961b;}.cls-6{fill:#ff6129;}.cls-7{fill:#ff5029;}.cls-8{fill:#23b6d8;}.cls-9{fill:#6da04b;}.cls-10{fill:#7189c5;}.cls-11{fill:#56534f;}.cls-12{fill:#67645d;}.cls-13{fill:#afaeac;}.cls-14{fill:#8e8c88;}.cls-15,.cls-22{fill:#e8563d;}.cls-15,.cls-19,.cls-20{fill-rule:evenodd;}.cls-16{fill:#d8d6d8;}.cls-17{fill:#e6e6e6;}.cls-18{fill:#3d72e8;}.cls-19{fill:#f7ac3b;}.cls-20{fill:#f2d970;}.cls-21{fill:#d33b26;}.cls-23{fill:#fafafa;}.cls-24{fill:#e0e0e0;}.cls-25{fill:#bdbdbd;}.cls-26{fill:#f5f5f5;}.cls-27{fill:#212121;opacity:0.1;mix-blend-mode:multiply;}.cls-28{fill:url(#radial-gradient);}.cls-29{mix-blend-mode:screen;fill:url(#linear-gradient);}</style><radialGradient id="radial-gradient" cx="1112.17" cy="3570.64" r="37.15" gradientTransform="translate(-3026.9 -13014.93) scale(3.7)" gradientUnits="userSpaceOnUse"><stop offset="0.06" stop-color="#f9ed32"/><stop offset="0.26" stop-color="#f9ea32"/><stop offset="0.41" stop-color="#f8e031"/><stop offset="0.54" stop-color="#f7d02f"/><stop offset="0.67" stop-color="#f6ba2d"/><stop offset="0.71" stop-color="#f5b02c"/><stop offset="0.77" stop-color="#f4a22b"/><stop offset="0.88" stop-color="#f27d27"/><stop offset="0.99" stop-color="#f05323"/></radialGradient><linearGradient id="linear-gradient" x1="19.25" y1="622.09" x2="21.86" y2="782.07" gradientTransform="translate(1291.81 -534.61) rotate(16.54)" gradientUnits="userSpaceOnUse"><stop offset="0" stop-color="#fff"/><stop offset="0.05" stop-color="#f6f6f6"/><stop offset="0.14" stop-color="#ddd"/><stop offset="0.24" stop-color="#b5b5b5"/><stop offset="0.37" stop-color="#7c7c7c"/><stop offset="0.51" stop-color="#363636"/><stop offset="0.6"/><stop offset="1"/></linearGradient></defs><title>Artboard 1 copy</title><g class="cls-1"><g id="Layer_1" data-name="Layer 1"><rect class="cls-2" x="-8" y="-2" width="1344" height="756"/><path class="cls-3" d="M450.19,596.71a2.74,2.74,0,1,1-2.74-2.73,2.74,2.74,0,0,1,2.74,2.73"/><path class="cls-3" d="M99.94,207.81a6,6,0,1,1-6-5.95,6,6,0,0,1,6,5.95"/><path class="cls-3" d="M159.14,118.27a2.74,2.74,0,1,1-2.74-2.73,2.74,2.74,0,0,1,2.74,2.73"/><path class="cls-3" d="M100.26,65.57a2.74,2.74,0,1,1-2.74-2.73,2.74,2.74,0,0,1,2.74,2.73"/><path class="cls-3" d="M215.09,64.55a6,6,0,1,1-6-5.95,6,6,0,0,1,6,5.95"/><path class="cls-3" d="M480.16,16.13a6,6,0,1,1-6-5.95,6,6,0,0,1,6,5.95"/><path class="cls-3" d="M553.53,148.2a6,6,0,1,1-6-5.95,6,6,0,0,1,6,5.95"/><path class="cls-3" d="M569.82,366.54a2.74,2.74,0,1,1-2.74-2.73,2.74,2.74,0,0,1,2.74,2.73"/><path class="cls-3" d="M397.56,129.51a2.74,2.74,0,1,1-2.74-2.73,2.74,2.74,0,0,1,2.74,2.73"/><path class="cls-3" d="M465.35,276.91a2.74,2.74,0,1,1-2.74-2.73,2.74,2.74,0,0,1,2.74,2.73"/><path class="cls-3" d="M499.92,450.68a2.74,2.74,0,1,1-2.74-2.73,2.74,2.74,0,0,1,2.74,2.73"/><path class="cls-3" d="M352.22,542.95a6,6,0,1,1-6-6,6,6,0,0,1,6,6"/><path class="cls-3" d="M447.08,537a2.74,2.74,0,1,1-2.74-2.73,2.74,2.74,0,0,1,2.74,2.73"/><path class="cls-3" d="M411.42,453.41a2.74,2.74,0,1,1-2.74-2.73,2.74,2.74,0,0,1,2.74,2.73"/><path class="cls-3" d="M352.54,400.71a2.74,2.74,0,1,1-2.74-2.73,2.74,2.74,0,0,1,2.74,2.73"/><path class="cls-3" d="M684.41,465.22a2.74,2.74,0,1,1-2.74-2.73,2.74,2.74,0,0,1,2.74,2.73"/><path class="cls-3" d="M189.24,184a2.74,2.74,0,1,1-2.74-2.73,2.74,2.74,0,0,1,2.74,2.73"/><path class="cls-3" d="M222.16,80.54a2.74,2.74,0,1,1-2.74-2.73,2.74,2.74,0,0,1,2.74,2.73"/><path class="cls-3" d="M205,438.21a2.74,2.74,0,1,1-2.74-2.73,2.74,2.74,0,0,1,2.74,2.73"/><path class="cls-3" d="M785.64,517a2.74,2.74,0,1,1-2.74-2.73,2.74,2.74,0,0,1,2.74,2.73"/><path class="cls-3" d="M259.88,292.79a2.74,2.74,0,1,1-2.74-2.73,2.74,2.74,0,0,1,2.74,2.73"/><path class="cls-3" d="M363.37,472.83a2.74,2.74,0,1,1-2.74-2.73,2.74,2.74,0,0,1,2.74,2.73"/><path class="cls-3" d="M455.17,422.12a2.74,2.74,0,1,1-2.74-2.73,2.74,2.74,0,0,1,2.74,2.73"/><path class="cls-3" d="M374.15,375a2.74,2.74,0,1,1-2.74-2.73,2.74,2.74,0,0,1,2.74,2.73"/><path class="cls-3" d="M559.84,425.67a2.74,2.74,0,1,1-2.74-2.73,2.74,2.74,0,0,1,2.74,2.73"/><path class="cls-3" d="M361.07,232.57a2.74,2.74,0,1,1-2.74-2.73,2.74,2.74,0,0,1,2.74,2.73"/><path class="cls-3" d="M745.12,717.4a2.74,2.74,0,1,1-2.74-2.73,2.74,2.74,0,0,1,2.74,2.73"/><path class="cls-3" d="M686.24,664.7a2.74,2.74,0,1,1-2.74-2.73,2.74,2.74,0,0,1,2.74,2.73"/><path class="cls-3" d="M6.3,558a2.74,2.74,0,1,1-2.74-2.73A2.74,2.74,0,0,1,6.3,558"/><path class="cls-3" d="M623.69,684.94a2.74,2.74,0,1,1-2.74-2.73,2.74,2.74,0,0,1,2.74,2.73"/><path class="cls-3" d="M153.09,425.67a2.74,2.74,0,1,1-2.74-2.73,2.74,2.74,0,0,1,2.74,2.73"/><path class="cls-3" d="M763.22,699.77a2.74,2.74,0,1,1-2.74-2.73,2.74,2.74,0,0,1,2.74,2.73"/><path class="cls-3" d="M661.07,675.87a2.74,2.74,0,1,1-2.74-2.73,2.74,2.74,0,0,1,2.74,2.73"/><path class="cls-3" d="M752.87,625.15a2.74,2.74,0,1,1-2.74-2.73,2.74,2.74,0,0,1,2.74,2.73"/><path class="cls-3" d="M601.13,694.31a2.74,2.74,0,1,1-2.74-2.73,2.74,2.74,0,0,1,2.74,2.73"/><path class="cls-3" d="M542.25,641.61a2.74,2.74,0,1,1-2.74-2.73,2.74,2.74,0,0,1,2.74,2.73"/><path class="cls-3" d="M634,590.9a2.74,2.74,0,1,1-2.74-2.73A2.74,2.74,0,0,1,634,590.9"/><path class="cls-3" d="M346.81,433.7a2.74,2.74,0,1,1-3.78.83,2.74,2.74,0,0,1,3.78-.83"/><path class="cls-3" d="M270.66,454.82a2.74,2.74,0,1,1-3.78.83,2.73,2.73,0,0,1,3.78-.83"/><path class="cls-3" d="M27.84,584.74a6,6,0,1,1-6-5.95,6,6,0,0,1,6,5.95"/><path class="cls-3" d="M122.69,578.79a2.74,2.74,0,1,1-2.74-2.73,2.74,2.74,0,0,1,2.74,2.73"/><path class="cls-3" d="M87,495.2a2.74,2.74,0,1,1-2.74-2.73A2.74,2.74,0,0,1,87,495.2"/><path class="cls-3" d="M28.15,442.5a2.74,2.74,0,1,1-2.74-2.73,2.74,2.74,0,0,1,2.74,2.73"/><path class="cls-3" d="M120,391.78a2.74,2.74,0,1,1-2.74-2.73,2.74,2.74,0,0,1,2.74,2.73"/><path class="cls-3" d="M450.68,717.4a6,6,0,1,1-6-5.95,6,6,0,0,1,6,5.95"/><path class="cls-3" d="M544.73,733a2.74,2.74,0,1,1-2.74-2.73,2.74,2.74,0,0,1,2.74,2.73"/><path class="cls-3" d="M509.07,649.41a2.74,2.74,0,1,1-2.74-2.73,2.74,2.74,0,0,1,2.74,2.73"/><path class="cls-3" d="M346.28,745.33a2.74,2.74,0,1,1-2.74-2.73,2.74,2.74,0,0,1,2.74,2.73"/><path class="cls-3" d="M287.4,692.63a2.74,2.74,0,1,1-2.74-2.73,2.74,2.74,0,0,1,2.74,2.73"/><path class="cls-3" d="M72.35,737.58a2.74,2.74,0,1,1-2.74-2.73,2.74,2.74,0,0,1,2.74,2.73"/><path class="cls-3" d="M13.47,684.88a2.74,2.74,0,1,1-2.74-2.73,2.74,2.74,0,0,1,2.74,2.73"/><path class="cls-3" d="M229.58,334.08a6,6,0,1,1-6-5.95,6,6,0,0,1,6,5.95"/><path class="cls-3" d="M324.44,328.13a2.74,2.74,0,1,1-2.74-2.73,2.74,2.74,0,0,1,2.74,2.73"/><path class="cls-3" d="M411.19,286.73a2.74,2.74,0,1,1-2.74-2.73,2.74,2.74,0,0,1,2.74,2.73"/><path class="cls-3" d="M268.66,37.75A2.74,2.74,0,1,1,265.92,35a2.74,2.74,0,0,1,2.74,2.73"/><path class="cls-3" d="M825,109.79a2.74,2.74,0,1,1-2.74-2.73,2.74,2.74,0,0,1,2.74,2.73"/><path class="cls-3" d="M815.85,203.28a6,6,0,1,1-6-5.95,6,6,0,0,1,6,5.95"/><path class="cls-3" d="M725.3,83.32a6,6,0,1,1-6-5.95,6,6,0,0,1,6,5.95"/><path class="cls-3" d="M772.54,402.76A2.74,2.74,0,1,1,769.8,400a2.74,2.74,0,0,1,2.74,2.73"/><path class="cls-3" d="M546.43,243.18a2.74,2.74,0,1,1-2.74-2.73,2.74,2.74,0,0,1,2.74,2.73"/><path class="cls-3" d="M573.25,278a2.74,2.74,0,1,1-2.74-2.73,2.74,2.74,0,0,1,2.74,2.73"/><path class="cls-3" d="M369.4,6a2.74,2.74,0,1,1-2.74-2.73A2.74,2.74,0,0,1,369.4,6"/><path class="cls-3" d="M396.22,40.82a2.74,2.74,0,1,1-2.74-2.73,2.74,2.74,0,0,1,2.74,2.73"/><path class="cls-3" d="M399.57,518.93a2.74,2.74,0,1,1-2.74-2.73,2.74,2.74,0,0,1,2.74,2.73"/><path class="cls-3" d="M549.6,486a2.74,2.74,0,1,1-2.74-2.73A2.74,2.74,0,0,1,549.6,486"/><path class="cls-3" d="M542,546a2.74,2.74,0,1,1-2.74-2.73A2.74,2.74,0,0,1,542,546"/><path class="cls-3" d="M591.18,226.83a6,6,0,1,1-7.3-4.23,6,6,0,0,1,7.3,4.23"/><path class="cls-3" d="M681.37,196.86a2.74,2.74,0,1,1-3.35-1.94,2.74,2.74,0,0,1,3.35,1.94"/><path class="cls-3" d="M625.56,125.15a2.74,2.74,0,1,1-3.35-1.94,2.74,2.74,0,0,1,3.35,1.94"/><path class="cls-3" d="M555.17,89.22a2.74,2.74,0,1,1-3.35-1.94,2.74,2.74,0,0,1,3.35,1.94"/><path class="cls-3" d="M1170.62,596.71a2.74,2.74,0,1,0,2.74-2.73,2.74,2.74,0,0,0-2.74,2.73"/><path class="cls-3" d="M1140.65,16.13a6,6,0,1,0,6-5.95,6,6,0,0,0-6,5.95"/><path class="cls-3" d="M1067.28,148.2a6,6,0,1,0,6-5.95,6,6,0,0,0-6,5.95"/><path class="cls-3" d="M1051,366.54a2.74,2.74,0,1,0,2.74-2.73,2.74,2.74,0,0,0-2.74,2.73"/><path class="cls-3" d="M1223.25,129.51a2.74,2.74,0,1,0,2.74-2.73,2.74,2.74,0,0,0-2.74,2.73"/><path class="cls-3" d="M1155.46,276.91a2.74,2.74,0,1,0,2.74-2.73,2.74,2.74,0,0,0-2.74,2.73"/><path class="cls-3" d="M1120.89,450.68a2.74,2.74,0,1,0,2.74-2.73,2.74,2.74,0,0,0-2.74,2.73"/><path class="cls-3" d="M1268.59,542.95a6,6,0,1,0,6-6,6,6,0,0,0-6,6"/><path class="cls-3" d="M1173.73,537a2.74,2.74,0,1,0,2.74-2.73,2.74,2.74,0,0,0-2.74,2.73"/><path class="cls-3" d="M1209.39,453.41a2.74,2.74,0,1,0,2.74-2.73,2.74,2.74,0,0,0-2.74,2.73"/><path class="cls-3" d="M1268.28,400.71A2.74,2.74,0,1,0,1271,398a2.74,2.74,0,0,0-2.74,2.73"/><path class="cls-3" d="M936.4,465.22a2.74,2.74,0,1,0,2.74-2.73,2.74,2.74,0,0,0-2.74,2.73"/><path class="cls-3" d="M835.18,517a2.74,2.74,0,1,0,2.74-2.73,2.74,2.74,0,0,0-2.74,2.73"/><path class="cls-3" d="M1257.44,472.83a2.74,2.74,0,1,0,2.74-2.73,2.74,2.74,0,0,0-2.74,2.73"/><path class="cls-3" d="M1165.64,422.12a2.74,2.74,0,1,0,2.74-2.73,2.74,2.74,0,0,0-2.74,2.73"/><path class="cls-3" d="M1246.66,375a2.74,2.74,0,1,0,2.74-2.73,2.74,2.74,0,0,0-2.74,2.73"/><path class="cls-3" d="M1061,425.67a2.74,2.74,0,1,0,2.74-2.73,2.74,2.74,0,0,0-2.74,2.73"/><path class="cls-3" d="M1213.75,271.57a2.74,2.74,0,1,0,2.74-2.73,2.74,2.74,0,0,0-2.74,2.73"/><path class="cls-3" d="M875.69,717.4a2.74,2.74,0,1,0,2.74-2.73,2.74,2.74,0,0,0-2.74,2.73"/><path class="cls-3" d="M934.57,664.7a2.74,2.74,0,1,0,2.74-2.73,2.74,2.74,0,0,0-2.74,2.73"/><path class="cls-3" d="M997.12,684.94a2.74,2.74,0,1,0,2.74-2.73,2.74,2.74,0,0,0-2.74,2.73"/><path class="cls-3" d="M857.59,699.77a2.74,2.74,0,1,0,2.74-2.73,2.74,2.74,0,0,0-2.74,2.73"/><path class="cls-3" d="M959.74,675.87a2.74,2.74,0,1,0,2.74-2.73,2.74,2.74,0,0,0-2.74,2.73"/><path class="cls-3" d="M867.94,625.15a2.74,2.74,0,1,0,2.74-2.73,2.74,2.74,0,0,0-2.74,2.73"/><path class="cls-3" d="M1019.68,694.31a2.74,2.74,0,1,0,2.74-2.73,2.74,2.74,0,0,0-2.74,2.73"/><path class="cls-3" d="M1078.56,641.61a2.74,2.74,0,1,0,2.74-2.73,2.74,2.74,0,0,0-2.74,2.73"/><path class="cls-3" d="M986.77,590.9a2.74,2.74,0,1,0,2.74-2.73,2.74,2.74,0,0,0-2.74,2.73"/><path class="cls-3" d="M1274,433.7a2.74,2.74,0,1,0,3.78.83,2.74,2.74,0,0,0-3.78-.83"/><path class="cls-3" d="M1170.14,717.4a6,6,0,1,0,6-5.95,6,6,0,0,0-6,5.95"/><path class="cls-3" d="M1076.08,733a2.74,2.74,0,1,0,2.74-2.73,2.74,2.74,0,0,0-2.74,2.73"/><path class="cls-3" d="M1111.74,649.41a2.74,2.74,0,1,0,2.74-2.73,2.74,2.74,0,0,0-2.74,2.73"/><path class="cls-3" d="M1274.53,745.33a2.74,2.74,0,1,0,2.74-2.73,2.74,2.74,0,0,0-2.74,2.73"/><path class="cls-3" d="M1333.41,692.63a2.74,2.74,0,1,0,2.74-2.73,2.74,2.74,0,0,0-2.74,2.73"/><path class="cls-3" d="M1296.37,328.13a2.74,2.74,0,1,0,2.74-2.73,2.74,2.74,0,0,0-2.74,2.73"/><path class="cls-3" d="M1209.62,286.73a2.74,2.74,0,1,0,2.74-2.73,2.74,2.74,0,0,0-2.74,2.73"/><path class="cls-3" d="M795.81,109.79a2.74,2.74,0,1,0,2.74-2.73,2.74,2.74,0,0,0-2.74,2.73"/><path class="cls-3" d="M805,203.28a6,6,0,1,0,6-5.95,6,6,0,0,0-6,5.95"/><path class="cls-3" d="M895.51,83.32a6,6,0,1,0,6-5.95,6,6,0,0,0-6,5.95"/><path class="cls-3" d="M848.27,402.76A2.74,2.74,0,1,0,851,400a2.74,2.74,0,0,0-2.74,2.73"/><path class="cls-3" d="M1074.38,243.18a2.74,2.74,0,1,0,2.74-2.73,2.74,2.74,0,0,0-2.74,2.73"/><path class="cls-3" d="M1047.56,278a2.74,2.74,0,1,0,2.74-2.73,2.74,2.74,0,0,0-2.74,2.73"/><path class="cls-3" d="M1251.42,6a2.74,2.74,0,1,0,2.74-2.73A2.74,2.74,0,0,0,1251.42,6"/><path class="cls-3" d="M1224.59,40.82a2.74,2.74,0,1,0,2.74-2.73,2.74,2.74,0,0,0-2.74,2.73"/><path class="cls-3" d="M1221.24,518.93a2.74,2.74,0,1,0,2.74-2.73,2.74,2.74,0,0,0-2.74,2.73"/><path class="cls-3" d="M1071.21,486a2.74,2.74,0,1,0,2.74-2.73,2.74,2.74,0,0,0-2.74,2.73"/><path class="cls-3" d="M1078.83,546a2.74,2.74,0,1,0,2.74-2.73,2.74,2.74,0,0,0-2.74,2.73"/><path class="cls-3" d="M1029.63,226.83a6,6,0,1,0,7.3-4.23,6,6,0,0,0-7.3,4.23"/><path class="cls-3" d="M939.44,196.86a2.74,2.74,0,1,0,3.35-1.94,2.74,2.74,0,0,0-3.35,1.94"/><path class="cls-3" d="M995.25,125.15a2.74,2.74,0,1,0,3.35-1.94,2.74,2.74,0,0,0-3.35,1.94"/><path class="cls-3" d="M1065.64,89.22a2.74,2.74,0,1,0,3.35-1.94,2.74,2.74,0,0,0-3.35,1.94"/><path class="cls-4" d="M938.74,540.12s244.94,35.42,242.5,102c-2.79,76.16-150.48,14.67-251.09-83.61,0,0,71.74,50.21,81.91,45.41,16-7.54-91.12-55.23-93.05-57.4-1.11-1.25,76.37,30.24,85.4,33.86,11,4.4,30.49,10.06,17.18-1.51s-85-33.53-85-33.53,67.29,18.38,79.54,19.05c19.25,1.05-67.11-22-77.36-24.29"/><path class="cls-5" d="M1054,577s115.54,8.67,122.25,63.83c6.37,52.36-85.47,42.38-160.27-31.85,0,0,45.8,24.88,50.15,18.32,4-6-36.45-27.85-42-34.35s31.06,5.09,37.2,6.28c8.3,1.61,20.58,3.64,13.76-6.29-7-10.21-27.14-15.72-21-15.94"/><path class="cls-6" d="M1172.09,635.9c9.92,45.47-52.34,44-77.29,11.77-16.71-21.56-7.87-36.77-3.66-36,5.69,1.1,14.1,2.49,9.43-4.31-4.8-7,63.4-8.72,71.52,28.49"/><path class="cls-7" d="M1152,668.42c-6.61,5-17.42,5-19.17,2.14-5.79-9.57-19.23-2.63-24.25-19.3-1.1-3.65,4-7.22,3.49-9.9-3.79-18.4,9.5-17.88,21.12-28.6,9.08-8.38,32.34.27,34.24,17.06.33,3,4.25,4.57,5,7.39,4.91,17.68-10.73,23.78-20.47,31.22"/><g id="Earth"><circle class="cls-8" cx="699.13" cy="470.45" r="128.55"/><path class="cls-9" d="M824.18,440.53l-2.1-.78H812l-7.45-6L788.9,445.28l-13-11.54-22.12,4.09-14.19,1.68-2.4,26.69L743,491.68h23.56l13.1-1.92,5.65,10.34,6,12L780.72,521l8.9,20.2-1.44,7.93,7.85,5.78a128.74,128.74,0,0,0,28.16-114.4Z"/><path class="cls-9" d="M587.57,458.42l8.34,1.92,8.34,5.45,11.22,3.53,5.77,1.44,5.45,2.4-2.89,5.77-9,14.43,9.94,11.86,14.11,9v8l9.3,14.1s-1,9,0,11.86,6.41,18,6.41,18l5.45,7.05,13.14,1.6-8.34-13.46S677,542.74,678,542.1s-3.85-8-2.88-9,8.65-9.3,8.65-9.3l8.34-10.58,3.53-13.78L685,482.79s-11.86-8.33-11.86-9.3-7.7-9.3-7.7-9.3L644,463.55l-12.18-3.85-4.49,8-10.26-5.13.32-8.47h-8l-4.49-6.92,6.73-5.13,13.78,7.05,8.66-5.45,9.3-21.8,8.34-10.58h15.07l2.24-5.13,9.94-4.81,4.17,2.77,4.49-6.61-8.66-12.18-6.73-2.24-2.48,2.33-8.1,7.61-18.91-4.49-2.57,9-8.34-10.58,10.9-3.85,12.18,3.21,4.81-4.81,15.39-2.25-12.5-13.14H648.16l-5.77,9.3L636.62,368l-14-.92a128.47,128.47,0,0,0-50.82,85.25l10.27,1.77Z"/><path class="cls-9" d="M776.55,390.78v5.77l-17,4.81,1.6,12.18-9.62-5.89-9.3,7.49,6.09,9,9.3,1.28,15.71-12.5,4.49,5.77s-2.89,6.73,0,9,15,5.77,15,5.77v-10.9l-8.27-7.37,5.45-4.49L800,419l-3.21,5.77,18.59,8.66s2-2.36,5-5.85a128.91,128.91,0,0,0-49.94-64.12L765,383.73Z"/><path class="cls-9" d="M600,525.8l-1.95-1.95-5.39,1.1v5.3l-5.65,3.19a128.86,128.86,0,0,0,8.41,13l4.09-.76,8-5.74.44-5.23-8-3.83Z"/></g><path class="cls-10" d="M747.74,266.51,706,217.64a9.87,9.87,0,0,1,1.1-13.9l15.83-13.52a9.87,9.87,0,0,1,13.9,1.09l41.74,48.88a9.87,9.87,0,0,1-1.1,13.9l-15.83,13.52A9.87,9.87,0,0,1,747.74,266.51Zm-12.58-73.78a7.68,7.68,0,0,0-10.81-.85L708.52,205.4a7.68,7.68,0,0,0-.85,10.81l41.74,48.88a7.68,7.68,0,0,0,10.81.85l15.83-13.52a7.68,7.68,0,0,0,.85-10.81Z"/><rect class="cls-10" x="745.36" y="184.46" width="2.19" height="81.8" transform="translate(32.46 538.72) rotate(-40.5)"/><rect class="cls-10" x="737.03" y="191.57" width="2.19" height="81.8" transform="translate(25.85 535.02) rotate(-40.5)"/><rect class="cls-10" x="704.14" y="205.6" width="38.34" height="2.19" transform="translate(38.99 519.11) rotate(-40.49)"/><rect class="cls-10" x="713.63" y="216.71" width="38.34" height="2.19" transform="translate(34.04 527.93) rotate(-40.49)"/><rect class="cls-10" x="723.12" y="227.82" width="38.34" height="2.19" transform="translate(29.1 536.74) rotate(-40.49)"/><rect class="cls-10" x="732.6" y="238.93" width="38.34" height="2.19" transform="translate(24.27 545.81) rotate(-40.5)"/><rect class="cls-10" x="742.09" y="250.03" width="38.34" height="2.19" transform="translate(19.22 554.39) rotate(-40.49)"/><path class="cls-10" d="M661.43,165.44l-41.74-48.88a9.87,9.87,0,0,1,1.1-13.9l15.83-13.52a9.87,9.87,0,0,1,13.9,1.09l41.74,48.88a9.87,9.87,0,0,1-1.09,13.9l-15.83,13.52A9.87,9.87,0,0,1,661.43,165.44ZM648.85,91.66A7.68,7.68,0,0,0,638,90.81l-15.83,13.52a7.68,7.68,0,0,0-.85,10.81L663.1,164a7.68,7.68,0,0,0,10.81.85l15.83-13.52a7.68,7.68,0,0,0,.85-10.81Z"/><rect class="cls-10" x="659.05" y="83.38" width="2.19" height="81.8" transform="translate(77.42 458.45) rotate(-40.5)"/><rect class="cls-10" x="650.72" y="90.49" width="2.19" height="81.8" transform="translate(70.81 454.75) rotate(-40.5)"/><rect class="cls-10" x="617.83" y="104.53" width="38.34" height="2.19" transform="translate(84.11 439.15) rotate(-40.51)"/><rect class="cls-10" x="627.32" y="115.63" width="38.34" height="2.19" transform="translate(79.06 447.78) rotate(-40.5)"/><rect class="cls-10" x="636.8" y="126.74" width="38.34" height="2.19" transform="translate(74.06 456.51) rotate(-40.49)"/><rect class="cls-10" x="646.29" y="137.85" width="38.34" height="2.19" transform="translate(69.18 465.43) rotate(-40.5)"/><rect class="cls-10" x="655.78" y="148.96" width="38.34" height="2.19" transform="translate(64.18 474.14) rotate(-40.49)"/><circle class="cls-11" cx="656.41" cy="214.86" r="20.22" transform="translate(17.72 477.75) rotate(-40.5)"/><path class="cls-10" d="M745.45,140.59,757,130.72a5.38,5.38,0,1,0-1.75-2l-11.56,9.87Z"/><path class="cls-12" d="M698.06,147.12l-30.75,26.26-3.47,3a15.65,15.65,0,0,0-1.74,22.07l11.44,13.39a15.66,15.66,0,0,0,22.07,1.74l3.47-3,30.75-26.26,17.24-14.72-31.77-37.2Z"/><path class="cls-13" d="M747.08,169.6,744,166c16.79,7.08,32.11-.91,32.11-.91l-25.9-30.33-25.9-30.33S714,118.3,718.38,136l-3.07-3.6L690,154l31.77,37.2Z"/><polygon class="cls-10" points="648.45 223.43 635.3 234.72 633.56 232.68 646.72 221.39 648.45 223.43"/><polygon class="cls-13" points="658.31 235.03 651.23 241.11 629.77 215.87 636.86 209.79 658.31 235.03"/><polygon class="cls-14" points="651.63 227.17 644.3 232.96 651.23 241.11 658.31 235.03 651.63 227.17"/><polyline class="cls-15" points="307.28 187.79 392.87 176.03 402.71 188.95 349.42 232.68"/><polyline class="cls-15" points="265.56 240.3 273.46 326.33 288.27 333 318.82 271.19"/><path class="cls-16" d="M197.2,111.82l-15.6,19.43L166,150.69s2,28.36,52.39,68.81S328.77,286,328.77,286l17.84-22.22,17.83-22.21s-38.36-53-88.73-93.42S197.2,111.82,197.2,111.82Z"/><path class="cls-17" d="M243.19,180.58a18.93,18.93,0,1,0-26.61,2.91A18.95,18.95,0,0,0,243.19,180.58Z"/><path class="cls-18" d="M246.45,183.2A23.11,23.11,0,1,0,214,186.75,23.11,23.11,0,0,0,246.45,183.2ZM216,158.72a16,16,0,1,1,2.46,22.49A16,16,0,0,1,216,158.72Z"/><circle class="cls-17" cx="273.13" cy="204.25" r="9.14" transform="translate(-57.14 289.33) rotate(-51.23)"/><path class="cls-18" d="M281.83,211.24a11.16,11.16,0,1,0-15.69,1.71A11.16,11.16,0,0,0,281.83,211.24Zm-14.73-11.83a7.73,7.73,0,1,1,1.19,10.86A7.74,7.74,0,0,1,267.11,199.41Z"/><path class="cls-17" d="M313,235.94a9.14,9.14,0,1,0-12.85,1.41A9.15,9.15,0,0,0,313,235.94Z"/><path class="cls-18" d="M314.53,237.21a11.16,11.16,0,1,0-15.69,1.71A11.16,11.16,0,0,0,314.53,237.21ZM299.8,225.38A7.73,7.73,0,1,1,301,236.24,7.74,7.74,0,0,1,299.8,225.38Z"/><path class="cls-19" d="M336.7,282l28.53-33.15a92.81,92.81,0,0,1,38.91,36.53s-5.64-.74-12.95-1.11c0,0,8.44,8,11.63,23.29C402.82,307.54,375,323.41,336.7,282Z"/><path class="cls-20" d="M339.48,278.69l22.41-26s18.41,6.1,30,26.47a56.66,56.66,0,0,1-10.58-1.22,52.41,52.41,0,0,1,10.11,20.88S369.61,311.25,339.48,278.69Z"/><path class="cls-21" d="M337.5,283.46l-6.65,8.36a3.33,3.33,0,0,1-4.68.54h0a3.33,3.33,0,0,1-.53-4.68L364.29,239a3.33,3.33,0,0,1,4.68-.54h0a3.33,3.33,0,0,1,.53,4.68l-32,40.29"/><polygon class="cls-22" points="164.96 156.32 137.13 95.51 202.52 109.54 164.96 156.32"/><path class="cls-21" d="M205.93,109.21a2.46,2.46,0,0,1,.38,3.45l-37.48,46.68a2.46,2.46,0,0,1-3.45.38h0a2.46,2.46,0,0,1-.38-3.45l37.48-46.68a2.47,2.47,0,0,1,3.45-.38Z"/><circle class="cls-23" cx="280.61" cy="596.5" r="108.5"/><circle class="cls-24" cx="212.34" cy="557.66" r="17.08"/><path class="cls-25" d="M196.72,559.12a17.08,17.08,0,0,1,28.4-12.78A17.08,17.08,0,1,0,201,570.44,17,17,0,0,1,196.72,559.12Z"/><path class="cls-26" d="M213,540.58h-.34A17.08,17.08,0,1,1,195.27,558c0,.11,0,.22,0,.34A17.75,17.75,0,1,0,213,540.58Z"/><circle class="cls-24" cx="325.78" cy="527.73" r="8.54"/><path class="cls-25" d="M318,528.46a8.54,8.54,0,0,1,14.2-6.39,8.54,8.54,0,1,0-12.05,12.05A8.51,8.51,0,0,1,318,528.46Z"/><path class="cls-26" d="M326.12,519.19h-.17a8.54,8.54,0,1,1-8.7,8.7c0,.06,0,.11,0,.17a8.88,8.88,0,1,0,8.88-8.88Z"/><circle class="cls-24" cx="355.66" cy="614.35" r="21.31"/><path class="cls-25" d="M336.18,616.17a21.31,21.31,0,0,1,35.44-15.95,21.31,21.31,0,1,0-30.08,30.08A21.22,21.22,0,0,1,336.18,616.17Z"/><path class="cls-26" d="M356.51,593h-.42a21.31,21.31,0,1,1-21.72,21.72c0,.14,0,.28,0,.42A22.15,22.15,0,1,0,356.51,593Z"/><circle class="cls-24" cx="298.72" cy="664.13" r="21.31"/><path class="cls-25" d="M279.23,666A21.31,21.31,0,0,1,314.67,650a21.31,21.31,0,1,0-30.08,30.08A21.22,21.22,0,0,1,279.23,666Z"/><path class="cls-26" d="M299.56,642.82h-.42a21.31,21.31,0,1,1-21.72,21.72c0,.14,0,.28,0,.42a22.15,22.15,0,1,0,22.15-22.15Z"/><circle class="cls-24" cx="256.53" cy="651.19" r="12"/><path class="cls-25" d="M245.56,652.21a12,12,0,0,1,20-9,12,12,0,1,0-16.94,16.94A12,12,0,0,1,245.56,652.21Z"/><path class="cls-26" d="M257,639.19h-.24a12,12,0,1,1-12.23,12.23c0,.08,0,.16,0,.24A12.47,12.47,0,1,0,257,639.19Z"/><circle class="cls-24" cx="278.85" cy="634.59" r="7.26"/><path class="cls-25" d="M272.21,635.21a7.26,7.26,0,0,1,12.08-5.44A7.26,7.26,0,1,0,274,640,7.23,7.23,0,0,1,272.21,635.21Z"/><path class="cls-26" d="M279.14,627.33H279a7.26,7.26,0,1,1-7.4,7.4s0,.1,0,.14a7.55,7.55,0,1,0,7.55-7.55Z"/><circle class="cls-24" cx="375.34" cy="584.24" r="8.22"/><path class="cls-25" d="M367.83,584.94a8.21,8.21,0,0,1,13.66-6.15,8.21,8.21,0,1,0-11.6,11.6A8.18,8.18,0,0,1,367.83,584.94Z"/><path class="cls-26" d="M375.67,576h-.16a8.21,8.21,0,1,1-8.37,8.37c0,.05,0,.11,0,.16a8.54,8.54,0,1,0,8.54-8.54Z"/><circle class="cls-24" cx="223.28" cy="594.41" r="10.83"/><path class="cls-25" d="M213.38,595.34a10.83,10.83,0,0,1,18-8.11,10.83,10.83,0,1,0-15.29,15.29A10.79,10.79,0,0,1,213.38,595.34Z"/><path class="cls-26" d="M223.71,583.58h-.21a10.83,10.83,0,1,1-11,11c0,.07,0,.14,0,.21a11.26,11.26,0,1,0,11.26-11.26Z"/><circle class="cls-24" cx="247.93" cy="554.9" r="9.07"/><path class="cls-25" d="M239.63,555.67a9.07,9.07,0,0,1,15.09-6.79,9.07,9.07,0,1,0-12.81,12.81A9,9,0,0,1,239.63,555.67Z"/><path class="cls-26" d="M248.29,545.82h-.18a9.07,9.07,0,1,1-9.25,9.25c0,.06,0,.12,0,.18a9.43,9.43,0,1,0,9.43-9.43Z"/><circle class="cls-24" cx="231.58" cy="657.53" r="6.12"/><path class="cls-25" d="M226,658.05a6.12,6.12,0,0,1,10.18-4.58,6.12,6.12,0,1,0-8.64,8.64A6.09,6.09,0,0,1,226,658.05Z"/><path class="cls-26" d="M231.82,651.41h-.12a6.12,6.12,0,1,1-6.24,6.24s0,.08,0,.12a6.36,6.36,0,1,0,6.36-6.36Z"/><path class="cls-27" d="M280.61,683.42a120.91,120.91,0,0,1-105.61-62,108.53,108.53,0,0,0,211.23,0A120.91,120.91,0,0,1,280.61,683.42Z"/><circle class="cls-28" cx="1092.24" cy="209.63" r="98.63"/><path class="cls-29" d="M1175.41,213.49c-11.19,37.66-54.59,58-96.94,45.44s-67.6-53.31-56.44-91,54.58-58,97-45.44S1186.58,175.83,1175.41,213.49Z"/></g></g></svg>