<svg id="Layer_1" data-name="Layer 1" xmlns="http://www.w3.org/2000/svg" viewBox="0 0 411 141"><defs><style>.cls-1{fill:#d6902a;}.cls-2{fill:#f8c67b;}.cls-3{fill:#f16b23;}</style></defs><title>choose button</title><rect class="cls-1" x="23.05" y="21.97" width="364.89" height="97.07"/><rect class="cls-2" x="32.5" y="27.48" width="345.99" height="86.04"/><path class="cls-3" d="M141.54,86.47q-5.82,7.49-11.21,8.27a16.69,16.69,0,0,1-7.2-.32q-7.08-1.42-8.84-8.94-3-17.11-1.49-28,1.08-6.71,7.93-9a24.56,24.56,0,0,1,12-1.15q7.32,1.45,7.49,8.19.09,3.09-.06,6.82l-8.66.91q-.12-1.61-.35-3.2a3,3,0,0,0-3-2.74,6.14,6.14,0,0,0-3.83.62q-1.9.78-2.4,4.32-.88,7.87,1.08,20.22.88,3.65,5.09,2.69,2.72-.62,7.29-5.51Z"/><path class="cls-3" d="M161.82,95.33V77.93l-8.25.81V93.13l-8.75-.91-1.37-45.63,10.12-.91V68.42l8.25.43V47.63l10.13.62-1.29,46.43Z"/><path class="cls-3" d="M196.85,46.77A8.3,8.3,0,0,1,201.35,50q5.76,11.55,5.76,28.14a45.47,45.47,0,0,1-1,10.63q-1.9,6.34-11.85,6.34-11.24-.73-16.56-4-3-1.64-2.84-9.78,0-7.52,2.58-21.08,2-10.37,3.54-12.06,2.08-2.47,8.49-2.36A49.54,49.54,0,0,1,196.85,46.77Zm-6,9.08q-2.58,0-3.39,1.4-.58,1-1.9,8.57-2.22,15.47-.56,17,2.52,2.39,7.75,1.93,4-.54,4.71-3.71a40.59,40.59,0,0,0,.38-6.23,52,52,0,0,0-2.28-16.49,3.71,3.71,0,0,0-1.81-1.91A14.19,14.19,0,0,0,190.88,55.85Z"/><path class="cls-3" d="M230.35,46.77A8.3,8.3,0,0,1,234.86,50q5.76,11.55,5.76,28.14a45.47,45.47,0,0,1-1,10.63q-1.9,6.34-11.85,6.34-11.24-.73-16.56-4-3-1.64-2.84-9.78,0-7.52,2.58-21.08,2-10.37,3.54-12.06,2.08-2.47,8.49-2.36A49.54,49.54,0,0,1,230.35,46.77Zm-6,9.08q-2.58,0-3.39,1.4-.58,1-1.9,8.57-2.22,15.47-.56,17,2.52,2.39,7.75,1.93,4-.54,4.71-3.71a40.59,40.59,0,0,0,.38-6.23,52,52,0,0,0-2.28-16.49,3.71,3.71,0,0,0-1.81-1.91A14.19,14.19,0,0,0,224.38,55.85Z"/><path class="cls-3" d="M257.56,66.7Q275.62,72.9,267,91a6.35,6.35,0,0,1-4.51,3.28,34.46,34.46,0,0,1-8.89.91q-7.61-.32-9.1-2.36a14.93,14.93,0,0,1-3-9.14,17.69,17.69,0,0,1,2-7.94l8.16.94q-2.6,4-.7,7.14.82,1.42,4,1.4,3.51,0,4.42-.54a2.49,2.49,0,0,0,1.81-1.91Q262,77.82,256.6,76q-15-6.31-15.25-14.15-.12-9.37,2.55-11,4.8-3.28,13.52-4,9,0,10.68,6.34.91,3.95.15,11.41l-7.61.32a38,38,0,0,0-.32-3.95,4.49,4.49,0,0,0-4.16-4.22q-4.8.05-5.68,3.68Q249.6,63.24,257.56,66.7Z"/><path class="cls-3" d="M297.71,50.21l.26,8.57H281.56v9.4l12.06.35v8.54l-12.06.7v5.18l16.5.75.64,8.41-27.36,1,1.43-44.53Z"/></svg>