<svg id="Layer_1" data-name="Layer 1" xmlns="http://www.w3.org/2000/svg" viewBox="0 0 233 224"><defs><style>.cls-1{fill:#7189c5;}.cls-2{fill:#56534f;}.cls-3{fill:#67645d;}.cls-4{fill:#afaeac;}.cls-5{fill:#8e8c88;}</style></defs><title>Satellite</title><path class="cls-1" d="M165.11,198.64l-41.74-48.88a9.87,9.87,0,0,1,1.1-13.9l15.83-13.52a9.87,9.87,0,0,1,13.9,1.09l41.74,48.88a9.87,9.87,0,0,1-1.1,13.9L179,199.73A9.87,9.87,0,0,1,165.11,198.64Zm-12.58-73.78a7.68,7.68,0,0,0-10.81-.85l-15.83,13.52a7.68,7.68,0,0,0-.85,10.81l41.74,48.88a7.68,7.68,0,0,0,10.81.85l15.83-13.52a7.68,7.68,0,0,0,.85-10.81Z"/><rect class="cls-1" x="162.73" y="116.58" width="2.19" height="81.8" transform="translate(-63.02 144.11) rotate(-40.5)"/><rect class="cls-1" x="154.39" y="123.69" width="2.19" height="81.8" transform="translate(-69.64 140.4) rotate(-40.5)"/><rect class="cls-1" x="121.51" y="137.73" width="38.34" height="2.19" transform="translate(-56.45 124.58) rotate(-40.49)"/><rect class="cls-1" x="131" y="148.83" width="38.34" height="2.19" transform="translate(-61.39 133.4) rotate(-40.49)"/><rect class="cls-1" x="140.48" y="159.94" width="38.34" height="2.19" transform="translate(-66.33 142.22) rotate(-40.49)"/><rect class="cls-1" x="149.97" y="171.05" width="38.34" height="2.19" transform="translate(-71.28 151.11) rotate(-40.5)"/><rect class="cls-1" x="159.45" y="182.16" width="38.34" height="2.19" transform="translate(-76.21 159.85) rotate(-40.49)"/><path class="cls-1" d="M78.8,97.56,37.06,48.69a9.87,9.87,0,0,1,1.1-13.9L54,21.27a9.87,9.87,0,0,1,13.9,1.09l41.74,48.88a9.87,9.87,0,0,1-1.09,13.9L92.7,98.66A9.87,9.87,0,0,1,78.8,97.56ZM66.22,23.79a7.68,7.68,0,0,0-10.81-.85L39.58,36.45a7.68,7.68,0,0,0-.85,10.81L80.47,96.14A7.68,7.68,0,0,0,91.28,97l15.83-13.52A7.68,7.68,0,0,0,108,72.66Z"/><rect class="cls-1" x="76.41" y="15.5" width="2.19" height="81.8" transform="translate(-18.06 63.84) rotate(-40.5)"/><rect class="cls-1" x="68.08" y="22.62" width="2.19" height="81.8" transform="translate(-24.68 60.14) rotate(-40.5)"/><rect class="cls-1" x="35.2" y="36.65" width="38.34" height="2.19" transform="translate(-11.49 44.37) rotate(-40.51)"/><rect class="cls-1" x="44.69" y="47.76" width="38.34" height="2.19" transform="translate(-16.43 53.17) rotate(-40.5)"/><rect class="cls-1" x="54.17" y="58.87" width="38.34" height="2.19" transform="translate(-21.37 61.98) rotate(-40.49)"/><rect class="cls-1" x="63.66" y="69.98" width="38.34" height="2.19" transform="translate(-26.31 70.81) rotate(-40.5)"/><rect class="cls-1" x="73.14" y="81.08" width="38.34" height="2.19" transform="translate(-31.25 79.61) rotate(-40.49)"/><circle class="cls-2" cx="73.78" cy="146.98" r="20.22" transform="matrix(0.76, -0.65, 0.65, 0.76, -77.78, 83.12)"/><path class="cls-1" d="M162.82,72.71l11.56-9.87a5.38,5.38,0,1,0-1.75-2l-11.56,9.87Z"/><path class="cls-3" d="M115.43,79.25,84.68,105.51l-3.47,3a15.65,15.65,0,0,0-1.74,22.07L90.9,143.94A15.66,15.66,0,0,0,113,145.68l3.47-3,30.75-26.26,17.24-14.72-31.77-37.2Z"/><path class="cls-4" d="M164.44,101.72l-3.07-3.6c16.79,7.08,32.11-.91,32.11-.91l-25.9-30.33-25.9-30.33s-10.29,13.87-5.92,31.57l-3.07-3.6-25.3,21.6,31.77,37.2Z"/><polygon class="cls-1" points="65.82 155.56 52.66 166.84 50.93 164.8 64.08 153.51 65.82 155.56"/><polygon class="cls-4" points="75.68 167.16 68.59 173.23 47.14 148 54.23 141.92 75.68 167.16"/><polygon class="cls-5" points="69 159.29 61.66 165.08 68.59 173.23 75.68 167.16 69 159.29"/></svg>