<svg id="Layer_1" data-name="Layer 1" xmlns="http://www.w3.org/2000/svg" viewBox="0 0 285 216"><defs><style>.cls-1,.cls-5{fill:#fae281;}.cls-1,.cls-2,.cls-3,.cls-4{stroke:#fff;stroke-miterlimit:10;stroke-width:16px;}.cls-2,.cls-6{fill:#ff961b;}.cls-3,.cls-7{fill:#ff6129;}.cls-4,.cls-8{fill:#ff5029;}</style></defs><title>highlightComet</title><path class="cls-1" d="M42.93,47.75s218.56,30.46,216.7,89.87c-2.14,67.92-134.1,13.77-224.26-73.41,0,0,64.2,44.44,73.24,40.11,14.21-6.8-81.5-48.83-83.23-50.76-1-1.11,68.23,26.61,76.31,29.8,9.82,3.87,27.23,8.83,15.31-1.43s-76-29.5-76-29.5,60.08,16.08,71,16.62c17.17.85-59.94-19.28-69.09-21.31"/><path class="cls-2" d="M145.83,80.14s103.06,7.2,109.3,56.36c5.92,46.66-76,38.18-143-27.66,0,0,40.95,22,44.8,16.1,3.53-5.39-32.62-24.66-37.65-30.44s27.72,4.4,33.2,5.43c7.41,1.4,18.36,3.15,12.24-5.67-6.29-9.07-24.27-13.89-18.84-14.12"/><path class="cls-3" d="M251.44,132.09c9.05,40.5-46.47,39.44-68.86,10.85-15-19.15-7.18-32.75-3.43-32,5.08,1,12.58,2.16,8.39-3.89-4.31-6.22,56.49-8.07,63.9,25.08"/><path class="cls-4" d="M233.66,161.18c-5.87,4.53-15.51,4.55-17.08,2-5.21-8.51-17.16-2.26-21.71-17.1-1-3.25,3.57-6.46,3.07-8.84-3.46-16.39,8.39-16,18.7-25.59,8.06-7.51,28.84.09,30.61,15.05.31,2.63,3.81,4.06,4.52,6.56,4.46,15.74-9.46,21.25-18.11,27.93"/><path class="cls-5" d="M42.93,47.75s218.56,30.46,216.7,89.87c-2.14,67.92-134.1,13.77-224.26-73.41,0,0,64.2,44.44,73.24,40.11,14.21-6.8-81.5-48.83-83.23-50.76-1-1.11,68.23,26.61,76.31,29.8,9.82,3.87,27.23,8.83,15.31-1.43s-76-29.5-76-29.5,60.08,16.08,71,16.62c17.17.85-59.94-19.28-69.09-21.31"/><path class="cls-6" d="M145.83,80.14s103.06,7.2,109.3,56.36c5.92,46.66-76,38.18-143-27.66,0,0,40.95,22,44.8,16.1,3.53-5.39-32.62-24.66-37.65-30.44s27.72,4.4,33.2,5.43c7.41,1.4,18.36,3.15,12.24-5.67-6.29-9.07-24.27-13.89-18.84-14.12"/><path class="cls-7" d="M251.44,132.09c9.05,40.5-46.47,39.44-68.86,10.85-15-19.15-7.18-32.75-3.43-32,5.08,1,12.58,2.16,8.39-3.89-4.31-6.22,56.49-8.07,63.9,25.08"/><path class="cls-8" d="M233.66,161.18c-5.87,4.53-15.51,4.55-17.08,2-5.21-8.51-17.16-2.26-21.71-17.1-1-3.25,3.57-6.46,3.07-8.84-3.46-16.39,8.39-16,18.7-25.59,8.06-7.51,28.84.09,30.61,15.05.31,2.63,3.81,4.06,4.52,6.56,4.46,15.74-9.46,21.25-18.11,27.93"/></svg>