<svg id="Layer_1" data-name="Layer 1" xmlns="http://www.w3.org/2000/svg" viewBox="0 0 191 176"><defs><style>.cls-1{fill:#f16b23;}</style></defs><title>sound on</title><path class="cls-1" d="M97.64,38a5.4,5.4,0,0,0-4.15,1.95L62.79,61.76H38.64a5.41,5.41,0,0,0-4.15,1.95,6.66,6.66,0,0,0-1.75,4.61v39.36a6.66,6.66,0,0,0,1.75,4.61,5.4,5.4,0,0,0,4.15,1.95H62.79l30.7,21.84a5.39,5.39,0,0,0,8.3,0,6.66,6.66,0,0,0,1.75-4.61V44.53a6.68,6.68,0,0,0-1.75-4.61A5.43,5.43,0,0,0,97.64,38Z"/><path class="cls-1" d="M130.74,102.51a28.91,28.91,0,0,0,0-29.06,21.87,21.87,0,0,0-10.37-9.53,4.7,4.7,0,0,0-2.31-.51,5.46,5.46,0,0,0-4.15,1.9A6.61,6.61,0,0,0,112.17,70a5.93,5.93,0,0,0,1.11,3.64,11.19,11.19,0,0,0,2.67,2.56q1.57,1.08,3.13,2.36a10.2,10.2,0,0,1,2.67,3.64,15.95,15.95,0,0,1,0,11.68,10.15,10.15,0,0,1-2.67,3.64q-1.57,1.28-3.13,2.36a11.35,11.35,0,0,0-2.67,2.56,5.93,5.93,0,0,0-1.11,3.64,6.62,6.62,0,0,0,1.75,4.66,5.46,5.46,0,0,0,4.15,1.9,4.67,4.67,0,0,0,2.31-.51A22.52,22.52,0,0,0,130.74,102.51Z"/><path class="cls-1" d="M129.68,39.73a6.06,6.06,0,0,0-2.4-.51,5.4,5.4,0,0,0-4.15,1.95,6.66,6.66,0,0,0-1.75,4.61,6.57,6.57,0,0,0,3.59,6,56.89,56.89,0,0,1,7,4.51,38,38,0,0,1,10.65,13.89,43.27,43.27,0,0,1,0,35.57A37.91,37.91,0,0,1,132,119.67a56,56,0,0,1-7,4.51,6.57,6.57,0,0,0-3.59,6,6.67,6.67,0,0,0,1.75,4.61,5.49,5.49,0,0,0,4.24,1.95,5.81,5.81,0,0,0,2.3-.51A47,47,0,0,0,150.42,117a57.42,57.42,0,0,0,0-57.91A47,47,0,0,0,129.68,39.73Z"/></svg>