<svg id="Layer_1" data-name="Layer 1" xmlns="http://www.w3.org/2000/svg" viewBox="0 0 1334 750"><defs><style>.cls-1{fill:#07212b;}.cls-2{fill:#f8c67b;}.cls-3{fill:#d6902a;}.cls-4{fill:#f16b23;}</style></defs><title>Artboard 2</title><rect class="cls-1" x="-4" y="-3" width="1342" height="756"/><path class="cls-2" d="M494.89,93.18q30.53,10.49,15.88,41.05-1.88,4-7.62,5.54a58.27,58.27,0,0,1-15,1.54q-12.87-.54-15.39-4-5.34-7.72-5-15.46a29.91,29.91,0,0,1,3.41-13.42L484.9,110q-4.4,6.72-1.19,12.08,1.38,2.41,6.78,2.36,5.94,0,7.47-.91,2.77-1.09,3.07-3.22,1.44-8.35-7.77-11.44Q467.93,98.22,467.48,85q-.2-15.85,4.3-18.62,8.11-5.54,22.86-6.72,15.14,0,18.06,10.72,1.53,6.68.25,19.3l-12.86.54a64.52,64.52,0,0,0-.54-6.68q-.89-6.27-7-7.13-8.12.09-9.6,6.22Q481.43,87.32,494.89,93.18Z"/><path class="cls-2" d="M562.78,65.3l.45,14.49H535.46V95.68l20.39.59v14.44l-20.39,1.18v8.76l27.91,1.27,1.09,14.21-46.26,1.73,2.42-75.29Z"/><path class="cls-2" d="M587.81,139.68l-.89-62H569.6L569.31,62l52.45-2.72-.59,18.39H605.23L604,137.82Z"/><path class="cls-2" d="M644.41,139.68l-.89-62H626.21L625.91,62l52.45-2.72-.59,18.39H661.83l-1.19,60.17Z"/><path class="cls-2" d="M684.24,75l-1.68-20.34,17.12.64-1.34,20.3Zm1.58,67-3-59.94,17.12-1.82v58.13Z"/><path class="cls-2" d="M719.42,57.53l21.37,45-1.14-40.37,19.59-1L756.33,142H742.58L721.5,97.31,720.76,137l-14.2.86L703.24,60.4Z"/><path class="cls-2" d="M787.55,94.14l26,0-1.14,31.38q-1.09,15.17-15.88,16.3-9.5.68-13.8-1-12-3-15.19-16.26Q762,94.23,764.89,70.11q1.19-7.77,8.56-9.22,17.27-4,26.57-1.91,13.66,3.68,14.15,15.48.25,5.4,0,11.85L799,87.6q-.25-3.09-.69-6-1-5.81-5.15-6.22-6.38-1.23-9.55.23-3.17,1.27-3.91,7.49-1.34,13.71,2.08,36.78,1.83,6.49,10.74,5,5.44-.77,5.54-6.86l.4-9.31-11.48.64Z"/><path class="cls-2" d="M844.45,93.18q30.53,10.49,15.88,41.05-1.88,4-7.62,5.54a58.27,58.27,0,0,1-15,1.54q-12.87-.54-15.39-4-5.34-7.72-5-15.46a29.91,29.91,0,0,1,3.41-13.42l13.8,1.59q-4.4,6.72-1.19,12.08,1.38,2.41,6.78,2.36,5.94,0,7.47-.91,2.77-1.09,3.07-3.22,1.44-8.35-7.77-11.44Q817.49,98.22,817,85q-.2-15.85,4.3-18.62,8.11-5.54,22.86-6.72,15.14,0,18.06,10.72,1.53,6.68.25,19.3l-12.86.54a64.52,64.52,0,0,0-.54-6.68q-.89-6.27-7-7.13-8.12.09-9.6,6.22Q831,87.32,844.45,93.18Z"/><rect class="cls-3" x="484.55" y="615.11" width="364.89" height="97.07"/><rect class="cls-2" x="494" y="620.62" width="345.99" height="86.04"/><path class="cls-4" d="M604.57,687.32,604,640.08l12.85.08q14.42.19,14.48,12-.91,21.3-2.9,26.75Q626.14,685.57,604.57,687.32Zm9.86-36.6-.06,25.89,4.62-1.45q2.63-.35,3.45-18.72.47-3.89-1.46-4.81Q618.88,650.36,614.43,650.71Z"/><path class="cls-4" d="M655.92,639.84a8.3,8.3,0,0,1,4.51,3.28q5.76,11.55,5.76,28.14a45.47,45.47,0,0,1-1,10.63q-1.9,6.34-11.85,6.34-11.24-.73-16.56-4-3-1.64-2.84-9.78,0-7.52,2.58-21.08,2-10.37,3.54-12.06,2.08-2.47,8.49-2.36A49.54,49.54,0,0,1,655.92,639.84Zm-6,9.08q-2.58,0-3.39,1.4-.58,1-1.9,8.57-2.22,15.47-.56,17,2.52,2.39,7.75,1.93,4-.54,4.71-3.71a40.59,40.59,0,0,0,.38-6.23,52,52,0,0,0-2.28-16.49,3.71,3.71,0,0,0-1.81-1.91A14.19,14.19,0,0,0,650,648.91Z"/><path class="cls-4" d="M676.93,638.68l12.64,26.59-.67-23.87,11.59-.59-1.73,47.8h-8.13l-12.46-26.4-.44,23.5-8.4.51-2-45.84Z"/><path class="cls-4" d="M729,643.27l.26,8.57H712.84v9.4l12.06.35v8.54l-12.06.7V676l16.5.75.64,8.41-27.36,1,1.43-44.53Z"/><path class="cls-2" d="M536.57,505.68l-1.14-49.12,11.5-1.1-1.2,39.29h16.06l-.06,9.43Z"/><path class="cls-2" d="M591.08,507.07,589,498H575.13l-2.4,7.52-9.51-1.75L580.08,458l6.5,1,14.84,45.95Zm-13-17.94,8.43-.32-3.6-13.59Z"/><path class="cls-2" d="M612.12,456.93l12.64,26.59-.67-23.87,11.59-.59-1.73,47.8h-8.13l-12.46-26.4-.44,23.5-8.4.51-2-45.84Z"/><path class="cls-2" d="M652.41,478.58l15.39,0-.67,18.56q-.64,9-9.39,9.64-5.62.4-8.16-.62-7.11-1.77-9-9.61-3.28-17.89-1.58-32.15a6,6,0,0,1,5.06-5.45q10.21-2.34,15.71-1.13,8.08,2.18,8.37,9.16.15,3.2,0,7l-9,.75q-.15-1.83-.41-3.54-.59-3.44-3-3.68-3.78-.73-5.65.13t-2.31,4.43q-.79,8.11,1.23,21.75,1.08,3.84,6.35,3,3.22-.46,3.28-4.06l.23-5.51-6.79.38Z"/><path class="cls-2" d="M700,497.38q-.32,6.79-8.93,8.84-5.15,1-14.51-1.13-4.66-1-5.62-7.2-1.52-11.44.91-38.94l10.15.7q-2.31,24.87-1.46,32.71.47,3.54,2.46,4.3a6,6,0,0,0,3.72.24,4,4,0,0,0,3.28-3.6q1.55-8.81-1.49-31l10-1.24A227.58,227.58,0,0,1,700,497.38Z"/><path class="cls-2" d="M729.25,507.07,727.15,498H713.3l-2.4,7.52-9.51-1.75L718.25,458l6.5,1,14.84,45.95Zm-13-17.94,8.43-.32-3.6-13.59Z"/><path class="cls-2" d="M752.28,478.58l15.39,0L767,497.11q-.64,9-9.39,9.64-5.62.4-8.16-.62-7.11-1.77-9-9.61-3.28-17.89-1.58-32.15a6,6,0,0,1,5.06-5.45q10.21-2.34,15.71-1.13Q767.73,460,768,467q.15,3.2,0,7l-9,.75q-.15-1.83-.41-3.54-.59-3.44-3-3.68-3.77-.73-5.65.13t-2.31,4.43q-.79,8.11,1.23,21.75,1.08,3.84,6.35,3,3.22-.46,3.28-4.06l.23-5.51-6.79.38Z"/><path class="cls-2" d="M796.7,461.53l.26,8.57H780.55v9.4l12.06.35v8.54l-12.06.7v5.18l16.5.75.64,8.41-27.36,1,1.43-44.53Z"/><path class="cls-4" d="M531.9,250a5.4,5.4,0,0,0-4.15,1.95l-30.7,21.84H472.9a5.41,5.41,0,0,0-4.15,1.95,6.66,6.66,0,0,0-1.75,4.61v39.36a6.66,6.66,0,0,0,1.75,4.61,5.4,5.4,0,0,0,4.15,1.95h24.15l30.7,21.84a5.39,5.39,0,0,0,8.3,0,6.66,6.66,0,0,0,1.75-4.61V256.56a6.68,6.68,0,0,0-1.75-4.61A5.43,5.43,0,0,0,531.9,250Z"/><path class="cls-4" d="M565,314.54a28.91,28.91,0,0,0,0-29.06,21.87,21.87,0,0,0-10.37-9.53,4.7,4.7,0,0,0-2.31-.51,5.46,5.46,0,0,0-4.15,1.9,6.61,6.61,0,0,0-1.75,4.66,5.93,5.93,0,0,0,1.11,3.64,11.19,11.19,0,0,0,2.67,2.56q1.57,1.08,3.13,2.36a10.2,10.2,0,0,1,2.67,3.64,15.95,15.95,0,0,1,0,11.68,10.15,10.15,0,0,1-2.67,3.64q-1.57,1.28-3.13,2.36a11.35,11.35,0,0,0-2.67,2.56,5.93,5.93,0,0,0-1.11,3.64,6.62,6.62,0,0,0,1.75,4.66,5.46,5.46,0,0,0,4.15,1.9,4.67,4.67,0,0,0,2.31-.51A22.52,22.52,0,0,0,565,314.54Z"/><path class="cls-4" d="M563.94,251.76a6.06,6.06,0,0,0-2.4-.51,5.4,5.4,0,0,0-4.15,1.95,6.66,6.66,0,0,0-1.75,4.61,6.57,6.57,0,0,0,3.59,6,56.89,56.89,0,0,1,7,4.51,38,38,0,0,1,10.65,13.89,43.27,43.27,0,0,1,0,35.57,37.91,37.91,0,0,1-10.65,13.89,56,56,0,0,1-7,4.51,6.57,6.57,0,0,0-3.59,6,6.67,6.67,0,0,0,1.75,4.61,5.49,5.49,0,0,0,4.24,1.95,5.81,5.81,0,0,0,2.3-.51A47,47,0,0,0,584.68,329a57.42,57.42,0,0,0,0-57.91A47,47,0,0,0,563.94,251.76Z"/><path class="cls-4" d="M854.84,246.5l-46.66,14.27c-5.65,1.62-10.24,7.52-10.24,13.17v49.22s-3.38-2.28-10.91-1.21c-11.06,1.57-20,10.06-20,19s9,14.36,20,12.79,19.18-9.8,19.18-18.7V293c0-3.94,4.74-5.64,4.74-5.64l41.26-12.94s4.56-1.53,4.56,2.69v33.76s-4.2-2.42-11.73-1.51C834,310.69,825,319,825,327.9s9,14.55,20,13.21,20-9.65,20-18.56V253.82C865.08,248.17,860.5,244.89,854.84,246.5Z"/></svg>