<svg id="Layer_1" data-name="Layer 1" xmlns="http://www.w3.org/2000/svg" xmlns:xlink="http://www.w3.org/1999/xlink" viewBox="0 0 1334 750"><defs><style>.cls-1{fill:none;}.cls-2{fill:#f8c67b;}.cls-3{fill:#07212b;}.cls-4{fill:#d6902a;}.cls-5{fill:#f16b23;}.cls-6{fill:#fddcbe;}.cls-7{fill:#fafafa;}.cls-8{fill:#bf6b17;}.cls-9{fill:#789358;}.cls-10{fill:#eb7d86;}.cls-11{fill:#bdbdbd;}.cls-12{fill:#b0b0b0;}.cls-13{fill:#e0e1e1;}.cls-14{fill:#e3e4e5;}.cls-15{fill:#e0e0e0;}.cls-16{fill:#d8d8d8;}.cls-17{fill:#e6e7e8;}.cls-18,.cls-19{fill:#fff;}.cls-18{opacity:0.3;}.cls-19{opacity:0.5;}.cls-20{fill:#929292;}</style><symbol id="Arrow_28" data-name="Arrow 28" viewBox="0 0 45.72 31.75"><rect class="cls-1" width="45.72" height="31.75"/><polygon class="cls-2" points="0 11.11 27.49 11.11 16.38 0 29.84 0 45.72 15.88 29.84 31.75 16.38 31.75 27.49 20.64 0 20.64 0 11.11"/></symbol></defs><title>Artboard 3</title><rect class="cls-3" x="-4" y="-3" width="1342" height="756"/><path class="cls-2" d="M247.27,124.16Q237.76,136.4,229,137.67q-7.6.92-11.76-.53-11.57-2.33-14.43-14.61-4.92-27.94-2.44-45.67,1.77-11,13-14.65,10.56-3.46,19.55-1.89,11.95,2.37,12.24,13.38.14,5-.1,11.14l-14.15,1.49q-.19-2.63-.57-5.22-.76-4.25-4.83-4.47a10,10,0,0,0-6.26,1q-3.11,1.27-3.92,7.06-1.43,12.85,1.77,33,1.43,6,8.32,4.39,4.44-1,11.9-9Z"/><path class="cls-2" d="M280.39,138.64V110.21l-13.48,1.32V135l-14.29-1.49L250.38,59l16.54-1.49V94.68l13.48.7V60.73l16.54,1-2.1,75.85Z"/><path class="cls-2" d="M346.16,139.34l-3.44-14.83H320.11l-3.92,12.28-15.53-2.85,27.53-74.79,10.61,1.58L363,135.78ZM325,110l13.77-.53-5.88-22.2Z"/><path class="cls-2" d="M384,110.56v27.68l-15.2-1.18L366,59q45.36-3.82,46.08,10.13.48,20-2.92,28.73a10.34,10.34,0,0,1-8.56,8l-1,.22,15.1,24.61-9.8,8.95Zm.09-36.94V94.81q13.1-1,13.72-11.76.86-6.36-2.44-7.63Q391.85,73.58,384.11,73.62Z"/><path class="cls-2" d="M461.64,139.34l-3.44-14.83H435.59l-3.92,12.28-15.53-2.85,27.53-74.79,10.61,1.58,24.23,75.06ZM440.46,110l13.77-.53-5.88-22.2Z"/><path class="cls-2" d="M524,124.16q-9.51,12.24-18.31,13.51-7.6.92-11.76-.53-11.57-2.33-14.43-14.61-4.92-27.94-2.44-45.67,1.77-11,13-14.65,10.56-3.46,19.55-1.89,11.95,2.37,12.24,13.38.14,5-.1,11.14l-14.15,1.49q-.19-2.63-.57-5.22-.77-4.25-4.83-4.47a10,10,0,0,0-6.26,1q-3.11,1.27-3.92,7.06-1.43,12.85,1.77,33,1.43,6,8.32,4.39,4.45-1,11.9-9Z"/><path class="cls-2" d="M544.71,136.79l-.86-59.92H527.12l-.29-15.13L577.5,59.1l-.57,17.77H561.54L560.39,135Z"/><path class="cls-2" d="M624.05,64.94l.43,14H597.67V94.28l19.69.57v13.95l-19.69,1.14v8.47l27,1.23,1.05,13.73L581,135l2.34-72.73Z"/><path class="cls-2" d="M648.67,110.56v27.68l-15.2-1.18-2.82-78Q676,55.2,676.73,69.15q.48,20-2.92,28.73a10.34,10.34,0,0,1-8.56,8l-1,.22,15.1,24.61-9.8,8.95Zm.1-36.94V94.81q13.1-1,13.72-11.76.86-6.36-2.44-7.63Q656.51,73.58,648.77,73.62Z"/><path class="cls-2" d="M731.74,91.87q29.49,10.13,15.34,39.66-1.82,3.9-7.36,5.35a56.3,56.3,0,0,1-14.53,1.49q-12.43-.53-14.87-3.86-5.16-7.46-4.87-14.94a28.89,28.89,0,0,1,3.3-13l13.34,1.54q-4.26,6.49-1.15,11.67,1.34,2.33,6.55,2.28,5.74,0,7.22-.88,2.68-1.05,3-3.11,1.39-8.07-7.5-11.05-24.47-10.31-24.9-23.12-.19-15.31,4.16-18,7.84-5.35,22.08-6.49,14.63,0,17.45,10.35,1.48,6.45.24,18.64L736.76,89a62.15,62.15,0,0,0-.53-6.45q-.86-6.05-6.79-6.89-7.84.09-9.27,6Q718.74,86.21,731.74,91.87Z"/><path class="cls-2" d="M797.32,64.94l.43,14H770.94V94.28l19.69.57v13.95l-19.69,1.14v8.47l27,1.23,1.05,13.73L754.25,135l2.34-72.73Z"/><path class="cls-2" d="M805.49,137.06l-1.86-80.23L822.41,55l-2,64.18h26.24l-.1,15.4Z"/><path class="cls-2" d="M893.3,64.94l.43,14H866.91V94.28l19.69.57v13.95l-19.69,1.14v8.47l27,1.23,1.05,13.73L850.23,135l2.34-72.73Z"/><path class="cls-2" d="M947.4,124.16q-9.51,12.24-18.31,13.51-7.6.92-11.76-.53-11.57-2.33-14.43-14.61Q898,94.59,900.47,76.87q1.77-11,13-14.65Q924,58.75,933,60.33q11.95,2.37,12.24,13.38.14,5-.1,11.14L931,86.34q-.19-2.63-.57-5.22-.77-4.25-4.83-4.47a10,10,0,0,0-6.26,1q-3.11,1.27-3.92,7.06-1.43,12.85,1.77,33,1.43,6,8.32,4.39,4.45-1,11.9-9Z"/><path class="cls-2" d="M968.1,136.79l-.86-59.92H950.51l-.29-15.13,50.67-2.63-.57,17.77H984.92L983.78,135Z"/><path class="cls-2" d="M1006.58,74.33,1005,54.67l16.54.61L1020.2,74.9Zm1.53,64.71-2.92-57.91,16.54-1.75v56.15Z"/><path class="cls-2" d="M1061,59.32a13.56,13.56,0,0,1,7.36,5.35q9.42,18.86,9.42,46a74.29,74.29,0,0,1-1.62,17.37q-3.11,10.35-19.36,10.35-18.35-1.18-27.05-6.54-4.83-2.68-4.64-16,0-12.28,4.21-34.44,3.34-16.93,5.78-19.7,3.39-4,13.86-3.86A80.88,80.88,0,0,1,1061,59.32Zm-9.75,14.83q-4.21,0-5.54,2.28-1,1.62-3.11,14-3.63,25.27-.91,27.72,4.11,3.9,12.67,3.16,6.6-.88,7.7-6.05a66.29,66.29,0,0,0,.62-10.18q0-15.88-3.73-26.93a6.06,6.06,0,0,0-3-3.11A23.13,23.13,0,0,0,1051.22,74.15Z"/><path class="cls-2" d="M1095.29,57.44l20.65,43.43-1.1-39,18.93-1L1130.94,139h-13.29l-20.36-43.12-.72,38.38-13.72.83-3.2-74.88Z"/><rect class="cls-4" x="484.55" y="615.11" width="364.89" height="97.07"/><rect class="cls-2" x="494" y="620.62" width="345.99" height="86.04"/><path class="cls-5" d="M603,679.61q-5.82,7.49-11.21,8.27a16.69,16.69,0,0,1-7.2-.32q-7.08-1.42-8.84-8.94-3-17.11-1.49-28,1.08-6.71,7.93-9a24.56,24.56,0,0,1,12-1.15q7.32,1.45,7.49,8.19.09,3.09-.06,6.82l-8.66.91q-.12-1.61-.35-3.2a3,3,0,0,0-3-2.74,6.14,6.14,0,0,0-3.83.62q-1.9.78-2.4,4.32-.88,7.87,1.08,20.22.88,3.65,5.09,2.69,2.72-.62,7.29-5.51Z"/><path class="cls-5" d="M623.32,688.47v-17.4l-8.25.81v14.39l-8.75-.91-1.37-45.63,10.12-.91v22.75l8.25.43V640.78l10.13.62-1.29,46.43Z"/><path class="cls-5" d="M658.35,639.92a8.3,8.3,0,0,1,4.51,3.28q5.76,11.55,5.76,28.14a45.47,45.47,0,0,1-1,10.63q-1.9,6.34-11.85,6.34-11.24-.73-16.56-4-3-1.64-2.84-9.78,0-7.52,2.58-21.08,2-10.37,3.54-12.06,2.08-2.47,8.49-2.36A49.54,49.54,0,0,1,658.35,639.92Zm-6,9.08q-2.58,0-3.39,1.4-.58,1-1.9,8.57-2.22,15.47-.56,17,2.52,2.39,7.75,1.93,4-.54,4.71-3.71a40.59,40.59,0,0,0,.38-6.23,52,52,0,0,0-2.28-16.49,3.71,3.71,0,0,0-1.81-1.91A14.19,14.19,0,0,0,652.38,649Z"/><path class="cls-5" d="M691.85,639.92a8.3,8.3,0,0,1,4.51,3.28q5.76,11.55,5.76,28.14a45.47,45.47,0,0,1-1,10.63q-1.9,6.34-11.85,6.34-11.24-.73-16.56-4-3-1.64-2.84-9.78,0-7.52,2.58-21.08,2-10.37,3.54-12.06,2.08-2.47,8.49-2.36A49.54,49.54,0,0,1,691.85,639.92Zm-6,9.08q-2.58,0-3.39,1.4-.58,1-1.9,8.57-2.22,15.47-.56,17,2.52,2.39,7.75,1.93,4-.54,4.71-3.71a40.59,40.59,0,0,0,.38-6.23,52,52,0,0,0-2.28-16.49,3.71,3.71,0,0,0-1.81-1.91A14.19,14.19,0,0,0,685.88,649Z"/><path class="cls-5" d="M719.06,659.84q18.05,6.2,9.39,24.28a6.35,6.35,0,0,1-4.51,3.28,34.46,34.46,0,0,1-8.89.91q-7.61-.32-9.1-2.36a14.93,14.93,0,0,1-3-9.14,17.69,17.69,0,0,1,2-7.94l8.16.94q-2.6,4-.7,7.14.82,1.42,4,1.4,3.51,0,4.42-.54a2.49,2.49,0,0,0,1.81-1.91q.85-4.94-4.59-6.77-15-6.31-15.25-14.15-.12-9.37,2.55-11,4.8-3.28,13.52-4,9,0,10.68,6.34.91,3.95.15,11.41l-7.61.32a38,38,0,0,0-.32-3.95,4.49,4.49,0,0,0-4.16-4.22q-4.8.05-5.68,3.68Q711.1,656.38,719.06,659.84Z"/><path class="cls-5" d="M759.21,643.35l.26,8.57H743.06v9.4l12.06.35v8.54l-12.06.7v5.18l16.5.75.64,8.41-27.36,1,1.43-44.53Z"/><path class="cls-6" d="M576.56,464l-.76-21.62,6.51-.23-.18-5.21,6.51-.23.09,2.6,6.51-.23.09,2.6,6.51-.23.76,21.62a3.26,3.26,0,0,1-6.51.23l.23,6.65a3.26,3.26,0,0,1-6.51.23l-.09-2.6a3.26,3.26,0,0,1-6.51.23l-.14-4.05a3.26,3.26,0,0,1-6.51.23Z"/><path class="cls-7" d="M604.05,448.12l-29.39,2.16C571.77,410.94,589,389.44,604,378.33a78.93,78.93,0,0,1,33.72-14.39l4,29.2.11,0a51,51,0,0,0-21,9.49C608.17,412.4,602.55,427.71,604.05,448.12Z"/><path class="cls-6" d="M758.37,461.56l.76-21.62-6.51-.23.18-5.21-6.51-.23-.09,2.6-6.51-.23-.09,2.6-6.51-.23-.76,21.62a3.26,3.26,0,0,0,6.51.23l-.23,6.65a3.26,3.26,0,0,0,6.51.23l.09-2.6a3.26,3.26,0,0,0,6.51.23l.14-4.05a3.26,3.26,0,0,0,6.51.23Z"/><path class="cls-7" d="M730.88,445.67l29.39,2.16c2.89-39.34-14.36-60.84-29.35-71.95A78.93,78.93,0,0,0,697.2,361.5l-4,29.2-.11,0a51,51,0,0,1,21,9.49C726.77,410,732.38,425.26,730.88,445.67Z"/><path class="cls-6" d="M719.24,358.82S742,211.27,635.51,254.39c0,0-42.53.23-25.07,108.56Z"/><path class="cls-8" d="M732,247.44c-13.61,18.31-39.15,35.12-86.26,23.94l-13.08,25.23S621.52,285,618,297.16s11.68,8.25,11.68,8.25-4.75,18-14.64,29.16a6.13,6.13,0,0,1-10.51-2.46c-7.73-28.73-27.9-116,18.13-97.22,0,0,13.13-19.81,39-20.79,20.09-.76,31.86,24.75,58.32,16.42C730,227.34,738.3,238.95,732,247.44Z"/><ellipse class="cls-9" cx="701.6" cy="298.87" rx="3.52" ry="6.07" transform="translate(-10.84 26.85) rotate(-2.18)"/><ellipse class="cls-9" cx="657.84" cy="299.89" rx="3.52" ry="6.07" transform="translate(-10.9 25.16) rotate(-2.17)"/><path class="cls-10" d="M663.7,319.13c.29,5.35,4.26,14,19.15,14,15.28,0,15.24-15,15.24-15a92.63,92.63,0,0,0-17.2-1.55A52.92,52.92,0,0,0,663.7,319.13Z"/><path class="cls-11" d="M672.4,459.62a64.89,64.89,0,0,0-1,14.41,12.6,12.6,0,0,0-8.87.43,64.89,64.89,0,0,0-2.36-14.25c2,0,4-.08,6.11-.18S670.42,459.79,672.4,459.62Z"/><path class="cls-12" d="M692.52,529.81c-.28.27-.55.55-.81.83.07-.49.13-1,.19-1.47C692.1,529.39,692.31,529.6,692.52,529.81Z"/><path class="cls-11" d="M647.91,532.78,647,532c.19-.22.38-.46.56-.7C647.69,531.82,647.8,532.3,647.91,532.78Z"/><path class="cls-11" d="M645.94,518.5a81.72,81.72,0,0,0,1.64,12.83c-.18.24-.37.47-.56.7a23.34,23.34,0,0,0-15.56-5.39,22,22,0,0,0-10.15,3.16c-4.44-9.47-5.94-24.59-3.34-41,2.06-13,6.33-24.47,11.56-32.46,6.49,2.55,17.66,4.06,30.68,3.92a64.89,64.89,0,0,1,2.36,14.25C652.08,478.92,644.9,497.12,645.94,518.5Z"/><path class="cls-11" d="M717.89,525.09a22,22,0,0,0-10.41-2.16,23.34,23.34,0,0,0-15,6.88c-.21-.21-.42-.42-.63-.64a81.69,81.69,0,0,0,.39-12.93c-1-21.38-10-38.8-20.84-42.21a64.89,64.89,0,0,1,1-14.41c13-1.13,23.94-3.72,30.15-6.89,6,7.44,11.34,18.41,14.66,31.18C721.41,500,721.38,515.23,717.89,525.09Z"/><path d="M654.62,544.28a6.19,6.19,0,0,1-1,3.85c-2.79,4.13-11.06,5.1-20.84,5.57-12.29.6-22.29.21-22.65-7.26l10.85.9a86.72,86.72,0,0,0,22.93-1.12l8-1.47Z"/><path class="cls-7" d="M654.62,544.28l-2.7.49-8,1.47A86.72,86.72,0,0,1,621,547.35l-10.85-.9c-.25-5.22,4.26-12.51,11.18-16.64a22,22,0,0,1,10.15-3.16A23.34,23.34,0,0,1,647,532l.89.75C651.89,536.27,654.44,540.66,654.62,544.28Z"/><path d="M730.64,540.57c.36,7.47-9.55,8.83-21.84,9.43-9.78.48-18.1.33-21.28-3.52a6.19,6.19,0,0,1-1.37-3.74l2.73.22,8.12.68a86.72,86.72,0,0,0,22.93-1.12Z"/><path class="cls-7" d="M730.64,540.57l-10.71,2A86.72,86.72,0,0,1,697,543.64l-8.12-.68-2.73-.22c-.18-3.62,1.94-8.23,5.56-12.1.27-.28.54-.56.81-.83a23.34,23.34,0,0,1,15-6.88,22,22,0,0,1,10.41,2.16C725.18,528.54,730.38,535.35,730.64,540.57Z"/><path class="cls-6" d="M695.5,444.59l-52.27,1.72c-11.88.39-21.88-10.5-22.34-24.32l-2-61.28L713,358.46,716.28,418C717.06,432.19,707.67,444.19,695.5,444.59Z"/><path class="cls-13" d="M724.12,462.6l-.26-1.4A4.36,4.36,0,0,1,724.12,462.6Z"/><path class="cls-7" d="M729.68,451.28l-16.92-80.87c-9,5.11-26,8.69-45.49,8.92s-36.55-2.95-45.7-7.84l-15,81.25h0a5.51,5.51,0,0,0,1.82,5.13,22.09,22.09,0,0,0,6.42,3.59c9.34,3.68,25.57,6.2,44.58,6.63,2.91.06,5.89.09,8.93.05s6-.13,8.91-.26c19-.88,35.16-3.79,44.41-7.69a22.16,22.16,0,0,0,6.35-3.75,5.5,5.5,0,0,0,1.7-5.17ZM647.1,440c-6,.07-10.9-4.29-11-9.69l-.3-25c-.06-5.4,4.76-9.88,10.73-10l41.76-.49c6-.07,10.9,4.29,11,9.69l.3,25c.06,5.4-4.76,9.88-10.73,10Z"/><path class="cls-14" d="M596.16,409.46a.12.12,0,0,1-.14-.12C596.34,409.41,595.93,409.32,596.16,409.46Z"/><path class="cls-14" d="M601.5,410.57c.08,0,.17-.07.24,0s0-.12.07-.1-.1.19-.29.18l0,0A.09.09,0,0,0,601.5,410.57Z"/><path class="cls-14" d="M601.4,410.5a.31.31,0,0,1,.1.07A.11.11,0,0,1,601.4,410.5Z"/><path class="cls-14" d="M601.51,410.69v0Z"/><path class="cls-14" d="M623.58,425.82l0,.09A.2.2,0,0,1,623.58,425.82Z"/><path class="cls-14" d="M622.73,428.89l0,0S622.75,428.88,622.73,428.89Z"/><path class="cls-14" d="M616.84,416.81s0,0,0,0l.11.05Z"/><path class="cls-14" d="M623.74,425.49v0h0Z"/><path class="cls-14" d="M596.62,409.45c.09.15-.09.11-.17.16S596.58,409.5,596.62,409.45Z"/><path class="cls-14" d="M601.29,410.64s0-.07-.05-.09.09.05.15.07S601.29,410.66,601.29,410.64Z"/><path class="cls-14" d="M602.49,410.93l-.4-.24C602.24,410.74,602.49,410.86,602.49,410.93Z"/><path class="cls-14" d="M603.69,411s-.06-.07,0-.1S603.81,411,603.69,411Z"/><path class="cls-14" d="M603.74,411.15c0-.12.19,0,.21,0A.26.26,0,0,1,603.74,411.15Z"/><path class="cls-14" d="M606.25,411.64c0-.11.17.09.25.05S606.31,411.66,606.25,411.64Z"/><path class="cls-14" d="M607.37,412.05l.06-.07c.06,0,.11.09,0,.1Z"/><polygon class="cls-14" points="625.64 420.53 625.57 420.63 625.58 420.52 625.64 420.53"/><path class="cls-14" d="M622.55,429.67s-.11,0,0-.13C622.46,429.68,622.6,429.56,622.55,429.67Z"/><polygon class="cls-14" points="619.68 433.87 619.59 433.77 619.71 433.84 619.68 433.87"/><path class="cls-15" d="M604.44,458.93l-.26,1.59A4.92,4.92,0,0,1,604.44,458.93Z"/><path class="cls-7" d="M682.62,400.08l-31.9.38a8.3,8.3,0,0,0-8.18,8.38l.25,21.12a8.31,8.31,0,0,0,8.38,8.2l31.9-.38a8.31,8.31,0,0,0,8.18-8.39L691,408.26A8.3,8.3,0,0,0,682.62,400.08Zm-12.75,29-5.71.07a10,10,0,0,1-.24-20l5.71-.07a10,10,0,0,1,.24,20Z"/><path class="cls-16" d="M679.73,419a10,10,0,0,1-9.86,10.1l-5.71.07a10,10,0,0,1-.24-20l5.71-.07A10,10,0,0,1,679.73,419Z"/><path class="cls-17" d="M687.94,393.64l-42.68.5a11.12,11.12,0,0,0-11,11.22l.33,28.27a11.12,11.12,0,0,0,11.22,11l42.68-.5a11.12,11.12,0,0,0,11-11.22l-.33-28.27A11.12,11.12,0,0,0,687.94,393.64Zm3.31,35.74a8.31,8.31,0,0,1-8.18,8.39l-31.9.38a8.31,8.31,0,0,1-8.38-8.2l-.25-21.12a8.3,8.3,0,0,1,8.18-8.38l31.9-.38a8.3,8.3,0,0,1,8.38,8.18Z"/><path class="cls-17" d="M679.7,416.74a10,10,0,0,1-9.86,10.1l-5.71.07a10,10,0,0,1-.24-20l5.71-.07A10,10,0,0,1,679.7,416.74Z"/><path class="cls-16" d="M709.71,429.35h0a4.41,4.41,0,0,1-4.7-4.09l-1.24-17.94a4.41,4.41,0,0,1,4.09-4.7h0a4.41,4.41,0,0,1,4.7,4.09l1.24,17.94A4.41,4.41,0,0,1,709.71,429.35Z"/><path class="cls-16" d="M624.35,430.36h0a4.41,4.41,0,0,0,4.6-4.2l.82-18a4.41,4.41,0,0,0-4.2-4.6h0a4.41,4.41,0,0,0-4.6,4.2l-.82,18A4.41,4.41,0,0,0,624.35,430.36Z"/><path class="cls-18" d="M591.31,357.8c17.73,9.84,81.56,39,150.7-5.66a16.56,16.56,0,0,0,7.25-10.54C755.16,313.07,771,202.85,664,196.24a48.38,48.38,0,0,0-11,.39c-23.58,4-106.68,27.06-68.18,153.23A13.65,13.65,0,0,0,591.31,357.8Z"/><path d="M723.14,366.39c0,3.73-2.78,7.27-7.71,10.35-10.07,6.28-29,10.67-50.77,10.93s-40.8-3.68-51-9.73c-5-3-7.9-6.43-7.94-10.16l-.12-10.29c0-1.36,1.47-2.67,4.16-3.88,1.27,1.24,2.6,2.46,4,3.62a75.74,75.74,0,0,0,9.45,6.8l1.3.77a77,77,0,0,0,13.14,6c1.07.37,2.14.73,3.22,1.05a78.83,78.83,0,0,0,47.3-.56c1.07-.35,2.13-.73,3.2-1.13a77,77,0,0,0,13-6.35l1.29-.8a75.74,75.74,0,0,0,9.29-7c1.34-1.19,2.64-2.44,3.88-3.71,2.71,1.14,4.24,2.42,4.26,3.78"/><path class="cls-19" d="M737,311.49a83.69,83.69,0,0,1-1.33,11.61,4.33,4.33,0,0,1-4.4,3.55h-.08a4.29,4.29,0,0,1-4.1-4.82,101.63,101.63,0,0,0,.81-10.57,4.31,4.31,0,0,1,3.76-4.2l.52-.07A4.31,4.31,0,0,1,737,311.49Z"/><path class="cls-19" d="M724.14,247.55a69.63,69.63,0,0,1,14,50.51,4.51,4.51,0,0,1-4.82,4h0a4.49,4.49,0,0,1-4.1-5.16,86.71,86.71,0,0,0-6.38-48.56A.78.78,0,0,1,724.14,247.55Z"/><path class="cls-20" d="M261.71,436.58l-.59-16.64,5-.18-.14-4,5-.18.07,2,5-.18.07,2,5-.18.59,16.64a2.51,2.51,0,0,1-5,.18l.18,5.12a2.51,2.51,0,0,1-5,.18l-.07-2a2.51,2.51,0,0,1-5,.18l-.11-3.12a2.51,2.51,0,0,1-5,.18Z"/><path class="cls-20" d="M282.87,424.36,260.25,426c-2.23-30.28,11.06-46.82,22.59-55.38a60.75,60.75,0,0,1,26-11.07l3,22.48h.09a39.23,39.23,0,0,0-16.2,7.31C286,396.87,281.71,408.65,282.87,424.36Z"/><path class="cls-20" d="M401.64,434.7l.59-16.64-5-.18.14-4-5-.18-.07,2-5-.18-.07,2-5-.18L381.61,434a2.51,2.51,0,0,0,5,.18l-.18,5.12a2.51,2.51,0,0,0,5,.18l.07-2a2.51,2.51,0,0,0,5,.18l.11-3.12a2.51,2.51,0,0,0,5,.18Z"/><path class="cls-20" d="M380.48,422.48l22.62,1.66c2.23-30.28-11.06-46.82-22.59-55.38a60.75,60.75,0,0,0-26-11.07l-3,22.48h-.09a39.23,39.23,0,0,1,16.2,7.31C377.31,395,381.64,406.77,380.48,422.48Z"/><path class="cls-20" d="M371.52,355.63S389,242.07,307.08,275.25c0,0-32.73.18-19.29,83.56Z"/><path class="cls-20" d="M381.34,269.91c-10.47,14.09-30.13,27-66.39,18.43l-10.07,19.42s-8.57-8.93-11.3.43,9,6.35,9,6.35S298.91,328.41,291.3,337a4.72,4.72,0,0,1-8.09-1.9c-6-22.12-21.47-89.26,14-74.83,0,0,10.11-15.25,30-16,15.46-.59,24.52,19,44.88,12.64A8.41,8.41,0,0,1,381.34,269.91Z"/><ellipse class="cls-20" cx="357.94" cy="309.49" rx="2.71" ry="4.67" transform="translate(-11.49 13.81) rotate(-2.18)"/><ellipse class="cls-20" cx="324.27" cy="310.28" rx="2.71" ry="4.67" transform="translate(-11.53 12.52) rotate(-2.17)"/><path class="cls-20" d="M328.77,325.08c.23,4.11,3.28,10.79,14.74,10.76,11.76,0,11.73-11.57,11.73-11.57a71.29,71.29,0,0,0-13.23-1.2A40.73,40.73,0,0,0,328.77,325.08Z"/><path class="cls-20" d="M335.48,433.21a49.94,49.94,0,0,0-.74,11.09,9.7,9.7,0,0,0-6.83.33,49.94,49.94,0,0,0-1.82-11c1.53,0,3.1-.06,4.7-.14S333.95,433.34,335.48,433.21Z"/><path class="cls-20" d="M351,487.23l-.63.64c.05-.37.1-.75.14-1.13Z"/><path class="cls-20" d="M316.62,489.52l-.69-.58c.15-.17.29-.35.43-.54C316.45,488.77,316.54,489.15,316.62,489.52Z"/><path class="cls-20" d="M315.11,478.53a62.89,62.89,0,0,0,1.26,9.87c-.14.18-.29.36-.43.54a18,18,0,0,0-12-4.15,16.89,16.89,0,0,0-7.81,2.43c-3.42-7.29-4.57-18.92-2.57-31.59,1.59-10,4.87-18.83,8.89-25,5,2,13.59,3.12,23.61,3a49.94,49.94,0,0,1,1.82,11C319.84,448.06,314.31,462.07,315.11,478.53Z"/><path class="cls-20" d="M370.48,483.6a16.89,16.89,0,0,0-8-1.66A18,18,0,0,0,351,487.23l-.48-.49a62.87,62.87,0,0,0,.3-10c-.8-16.46-7.67-29.86-16-32.48a49.94,49.94,0,0,1,.74-11.09c10-.87,18.42-2.86,23.2-5.3,4.6,5.73,8.73,14.17,11.28,24C373.19,464.32,373.17,476,370.48,483.6Z"/><path class="cls-20" d="M321.79,498.36a4.76,4.76,0,0,1-.77,3c-2.14,3.18-8.51,3.92-16,4.29-9.46.46-17.15.16-17.43-5.58l8.35.7a66.74,66.74,0,0,0,17.64-.86l6.17-1.13Z"/><path class="cls-20" d="M321.79,498.36l-2.08.38-6.17,1.13a66.74,66.74,0,0,1-17.64.86l-8.35-.7c-.2-4,3.28-9.63,8.61-12.81a16.89,16.89,0,0,1,7.81-2.43,18,18,0,0,1,12,4.15l.69.58C319.68,492.2,321.65,495.58,321.79,498.36Z"/><path class="cls-20" d="M380.29,495.51c.28,5.75-7.35,6.79-16.81,7.25-7.53.37-13.93.25-16.38-2.71a4.76,4.76,0,0,1-1.06-2.88l2.1.17,6.25.52A66.74,66.74,0,0,0,372,497Z"/><path class="cls-20" d="M380.29,495.51,372,497a66.74,66.74,0,0,1-17.64.86l-6.25-.52-2.1-.17c-.14-2.78,1.49-6.34,4.28-9.31l.63-.64a18,18,0,0,1,11.51-5.29,16.89,16.89,0,0,1,8,1.66C376.09,486.25,380.1,491.49,380.29,495.51Z"/><path class="cls-20" d="M353.25,421.64,313,423c-9.14.3-16.84-8.08-17.19-18.72l-1.55-47.16,72.44-1.73,2.53,45.85C369.85,412.1,362.62,421.33,353.25,421.64Z"/><path class="cls-20" d="M375.28,435.5l-.2-1.08A3.36,3.36,0,0,1,375.28,435.5Z"/><path class="cls-20" d="M379.56,426.79l-13-62.24c-6.95,3.93-20,6.69-35,6.86s-28.13-2.27-35.17-6l-11.54,62.53h0a4.24,4.24,0,0,0,1.4,3.95,17,17,0,0,0,4.94,2.77c7.19,2.83,19.68,4.77,34.31,5.11,2.24,0,4.53.07,6.87,0s4.62-.1,6.86-.2c14.62-.68,27.06-2.91,34.18-5.92a17.06,17.06,0,0,0,4.88-2.88,4.23,4.23,0,0,0,1.3-4ZM316,418.1c-4.59.05-8.39-3.3-8.44-7.46l-.23-19.28c0-4.16,3.67-7.6,8.26-7.66l32.14-.38c4.59-.05,8.39,3.3,8.44,7.46l.23,19.28c0,4.16-3.67,7.6-8.26,7.66Z"/><path class="cls-20" d="M276.8,394.6a.09.09,0,0,1-.11-.09C276.93,394.57,276.62,394.5,276.8,394.6Z"/><path class="cls-20" d="M280.9,395.46c.06,0,.13-.05.19,0s0-.09.05-.08-.08.14-.22.14l0,0A.07.07,0,0,0,280.9,395.46Z"/><path class="cls-20" d="M280.83,395.4l.08.06A.08.08,0,0,1,280.83,395.4Z"/><path class="cls-20" d="M280.91,395.55h0Z"/><path class="cls-20" d="M297.9,407.2l0,.07A.15.15,0,0,1,297.9,407.2Z"/><path class="cls-20" d="M297.24,409.56v0S297.26,409.55,297.24,409.56Z"/><path class="cls-20" d="M292.71,400.26s0,0,0,0l.09,0Z"/><path class="cls-20" d="M298,406.94v0h0Z"/><path class="cls-20" d="M277.15,394.59c.07.12-.07.09-.13.12S277.11,394.64,277.15,394.59Z"/><path class="cls-20" d="M280.74,395.51s0-.05,0-.07.07,0,.11.06S280.74,395.53,280.74,395.51Z"/><path class="cls-20" d="M281.67,395.74l-.31-.19C281.47,395.59,281.66,395.68,281.67,395.74Z"/><path class="cls-20" d="M282.59,395.77s0-.05,0-.08S282.68,395.75,282.59,395.77Z"/><path class="cls-20" d="M282.63,395.9c0-.09.14,0,.16,0A.2.2,0,0,1,282.63,395.9Z"/><path class="cls-20" d="M284.56,396.28c0-.08.13.07.19,0S284.61,396.3,284.56,396.28Z"/><path class="cls-20" d="M285.43,396.6l0-.05s.09.07,0,.08Z"/><polygon class="cls-20" points="299.49 403.12 299.43 403.2 299.44 403.12 299.49 403.12"/><path class="cls-20" d="M297.1,410.16s-.09,0,0-.1C297,410.17,297.14,410.07,297.1,410.16Z"/><polygon class="cls-20" points="294.9 413.39 294.83 413.31 294.92 413.37 294.9 413.39"/><path class="cls-20" d="M283.17,432.67l-.2,1.22A3.79,3.79,0,0,1,283.17,432.67Z"/><path class="cls-20" d="M343.34,387.38l-24.55.29a6.39,6.39,0,0,0-6.3,6.45l.19,16.26a6.4,6.4,0,0,0,6.45,6.31l24.55-.29a6.4,6.4,0,0,0,6.3-6.46l-.19-16.26A6.39,6.39,0,0,0,343.34,387.38Zm-9.81,22.3-4.39.05a7.68,7.68,0,0,1-.18-15.36l4.39-.05a7.68,7.68,0,0,1,.18,15.36Z"/><path class="cls-20" d="M341.11,401.92a7.7,7.7,0,0,1-7.59,7.77l-4.39.05a7.68,7.68,0,0,1-.18-15.36l4.39-.05A7.7,7.7,0,0,1,341.11,401.92Z"/><path class="cls-20" d="M347.43,382.43l-32.85.39a8.56,8.56,0,0,0-8.43,8.63l.26,21.76a8.56,8.56,0,0,0,8.63,8.43l32.85-.39a8.56,8.56,0,0,0,8.43-8.63l-.26-21.76A8.56,8.56,0,0,0,347.43,382.43ZM350,409.93a6.4,6.4,0,0,1-6.3,6.46l-24.55.29a6.4,6.4,0,0,1-6.45-6.31l-.19-16.26a6.39,6.39,0,0,1,6.3-6.45l24.55-.29a6.39,6.39,0,0,1,6.45,6.3Z"/><path class="cls-20" d="M341.09,400.21A7.7,7.7,0,0,1,333.5,408l-4.39.05a7.68,7.68,0,0,1-.18-15.36l4.39-.05A7.7,7.7,0,0,1,341.09,400.21Z"/><path class="cls-20" d="M364.18,409.91h0a3.39,3.39,0,0,1-3.62-3.15l-1-13.81a3.39,3.39,0,0,1,3.15-3.62h0a3.39,3.39,0,0,1,3.62,3.15l1,13.81A3.39,3.39,0,0,1,364.18,409.91Z"/><path class="cls-20" d="M298.49,410.69h0a3.39,3.39,0,0,0,3.54-3.23l.63-13.82a3.39,3.39,0,0,0-3.23-3.54h0a3.39,3.39,0,0,0-3.54,3.23l-.63,13.82A3.39,3.39,0,0,0,298.49,410.69Z"/><path class="cls-20" d="M374.52,361.46c0,2.87-2.14,5.6-5.94,8-7.75,4.84-22.33,8.21-39.07,8.41s-31.4-2.83-39.27-7.49c-3.85-2.28-6.08-5-6.11-7.82l-.09-7.92c0-1,1.13-2.05,3.2-3,1,1,2,1.9,3.05,2.79a58.29,58.29,0,0,0,7.28,5.24l1,.59a59.23,59.23,0,0,0,10.11,4.65c.82.29,1.65.56,2.48.81a60.67,60.67,0,0,0,36.41-.43c.83-.27,1.64-.56,2.46-.87a59.24,59.24,0,0,0,10-4.89l1-.62a58.29,58.29,0,0,0,7.15-5.41c1-.92,2-1.88,3-2.86,2.09.88,3.27,1.86,3.28,2.91"/><path d="M327.12,369.14q14-5.07,12.43-9.16-1.54-5.31-10-5.39-6.37.75-7.29,6.17a46.58,46.58,0,0,0-.57,5.78l-13.36-.47q-1.34-10.93.26-16.71,3-9.28,18.75-9.28,15.31,1,23.73,5.82,4.67,2.4,4.47,16.12-.46,11.48-15.31,17.3-6.78,3.85-4.26,9.56l-15.57,1.69Q316.64,374.73,327.12,369.14Zm3.39,24.19q3.7,0,4.93.79.87.59,2.06,4.09a24.75,24.75,0,0,1,1.49,7.08q.05,2.75-1.64,3.3a34.5,34.5,0,0,1-9.61,1.34q-5.81,0-6.93-2.12a9.35,9.35,0,0,1-.57-3.58,13.84,13.84,0,0,1,3.39-9.48,5.45,5.45,0,0,1,2.62-1.1A38.36,38.36,0,0,1,330.51,393.33Z"/><path class="cls-20" d="M932.36,436.58l-.59-16.64,5-.18-.14-4,5-.18.07,2,5-.18.07,2,5-.18.59,16.64a2.51,2.51,0,0,1-5,.18l.18,5.12a2.51,2.51,0,0,1-5,.18l-.07-2a2.51,2.51,0,0,1-5,.18l-.11-3.12a2.51,2.51,0,0,1-5,.18Z"/><path class="cls-20" d="M953.52,424.36,930.9,426c-2.23-30.28,11.06-46.82,22.59-55.38a60.75,60.75,0,0,1,26-11.07l3,22.48h.09a39.23,39.23,0,0,0-16.2,7.31C956.69,396.87,952.36,408.65,953.52,424.36Z"/><path class="cls-20" d="M1072.29,434.7l.59-16.64-5-.18.14-4-5-.18-.07,2-5-.18-.07,2-5-.18-.59,16.64a2.51,2.51,0,0,0,5,.18l-.18,5.12a2.51,2.51,0,0,0,5,.18l.07-2a2.51,2.51,0,0,0,5,.18l.11-3.12a2.51,2.51,0,0,0,5,.18Z"/><path class="cls-20" d="M1051.13,422.48l22.62,1.66c2.23-30.28-11.06-46.82-22.59-55.38a60.75,60.75,0,0,0-26-11.07l-3,22.48h-.09a39.23,39.23,0,0,1,16.2,7.31C1048,395,1052.29,406.77,1051.13,422.48Z"/><path class="cls-20" d="M1042.17,355.63s17.48-113.56-64.44-80.38c0,0-32.73.18-19.29,83.56Z"/><path class="cls-20" d="M1052,269.91c-10.47,14.09-30.13,27-66.39,18.43l-10.07,19.42s-8.57-8.93-11.3.43,9,6.35,9,6.35-3.65,13.88-11.27,22.45a4.72,4.72,0,0,1-8.09-1.9c-6-22.12-21.47-89.26,14-74.83,0,0,10.11-15.25,30-16,15.46-.59,24.52,19,44.88,12.64A8.41,8.41,0,0,1,1052,269.91Z"/><ellipse class="cls-20" cx="1028.59" cy="309.49" rx="2.71" ry="4.67" transform="translate(-11.01 39.27) rotate(-2.18)"/><ellipse class="cls-20" cx="994.92" cy="310.28" rx="2.71" ry="4.67" transform="translate(-11.05 37.95) rotate(-2.17)"/><path class="cls-20" d="M999.43,325.08c.23,4.11,3.28,10.79,14.74,10.76,11.76,0,11.73-11.57,11.73-11.57a71.29,71.29,0,0,0-13.23-1.2A40.73,40.73,0,0,0,999.43,325.08Z"/><path class="cls-20" d="M1006.13,433.21a49.94,49.94,0,0,0-.74,11.09,9.7,9.7,0,0,0-6.83.33,49.94,49.94,0,0,0-1.82-11c1.53,0,3.1-.06,4.7-.14S1004.6,433.34,1006.13,433.21Z"/><path class="cls-20" d="M1021.61,487.23l-.63.64c.05-.37.1-.75.14-1.13Z"/><path class="cls-20" d="M987.28,489.52l-.69-.58c.15-.17.29-.35.43-.54C987.1,488.77,987.19,489.15,987.28,489.52Z"/><path class="cls-20" d="M985.76,478.53A62.89,62.89,0,0,0,987,488.4c-.14.18-.29.36-.43.54a18,18,0,0,0-12-4.15,16.89,16.89,0,0,0-7.81,2.43c-3.42-7.29-4.57-18.92-2.57-31.59,1.59-10,4.87-18.83,8.89-25,5,2,13.59,3.12,23.61,3a49.94,49.94,0,0,1,1.82,11C990.49,448.06,985,462.07,985.76,478.53Z"/><path class="cls-20" d="M1041.13,483.6a16.89,16.89,0,0,0-8-1.66,18,18,0,0,0-11.51,5.29l-.48-.49a62.87,62.87,0,0,0,.3-10c-.8-16.46-7.67-29.86-16-32.48a49.94,49.94,0,0,1,.74-11.09c10-.87,18.42-2.86,23.2-5.3,4.6,5.73,8.73,14.17,11.28,24C1043.84,464.32,1043.82,476,1041.13,483.6Z"/><path class="cls-20" d="M992.44,498.36a4.76,4.76,0,0,1-.77,3c-2.14,3.18-8.51,3.92-16,4.29-9.46.46-17.15.16-17.43-5.58l8.35.7a66.74,66.74,0,0,0,17.64-.86l6.17-1.13Z"/><path class="cls-20" d="M992.44,498.36l-2.08.38-6.17,1.13a66.74,66.74,0,0,1-17.64.86l-8.35-.7c-.2-4,3.28-9.63,8.61-12.81a16.89,16.89,0,0,1,7.81-2.43,18,18,0,0,1,12,4.15l.69.58C990.33,492.2,992.3,495.58,992.44,498.36Z"/><path class="cls-20" d="M1050.94,495.51c.28,5.75-7.35,6.79-16.81,7.25-7.53.37-13.93.25-16.38-2.71a4.76,4.76,0,0,1-1.06-2.88l2.1.17,6.25.52a66.74,66.74,0,0,0,17.64-.86Z"/><path class="cls-20" d="M1050.94,495.51,1042.7,497a66.74,66.74,0,0,1-17.64.86l-6.25-.52-2.1-.17c-.14-2.78,1.49-6.34,4.28-9.31l.63-.64a18,18,0,0,1,11.51-5.29,16.89,16.89,0,0,1,8,1.66C1046.75,486.25,1050.75,491.49,1050.94,495.51Z"/><path class="cls-20" d="M1023.9,421.64,983.67,423c-9.14.3-16.84-8.08-17.19-18.72l-1.55-47.16,72.44-1.73,2.53,45.85C1040.5,412.1,1033.27,421.33,1023.9,421.64Z"/><path class="cls-20" d="M1045.93,435.5l-.2-1.08A3.36,3.36,0,0,1,1045.93,435.5Z"/><path class="cls-20" d="M1050.21,426.79l-13-62.24c-6.95,3.93-20,6.69-35,6.86s-28.13-2.27-35.17-6l-11.54,62.53h0a4.24,4.24,0,0,0,1.4,3.95,17,17,0,0,0,4.94,2.77c7.19,2.83,19.68,4.77,34.31,5.11,2.24,0,4.53.07,6.87,0s4.62-.1,6.86-.2c14.62-.68,27.06-2.91,34.18-5.92a17.06,17.06,0,0,0,4.88-2.88,4.23,4.23,0,0,0,1.3-4Zm-63.55-8.69c-4.59.05-8.39-3.3-8.44-7.46L978,391.36c0-4.16,3.67-7.6,8.26-7.66l32.14-.38c4.59-.05,8.39,3.3,8.44,7.46l.23,19.28c0,4.16-3.67,7.6-8.26,7.66Z"/><path class="cls-20" d="M947.45,394.6a.09.09,0,0,1-.11-.09C947.59,394.57,947.27,394.5,947.45,394.6Z"/><path class="cls-20" d="M951.56,395.46c.06,0,.13-.05.19,0s0-.09.05-.08-.08.14-.22.14l0,0A.07.07,0,0,0,951.56,395.46Z"/><path class="cls-20" d="M951.48,395.4l.08.06A.08.08,0,0,1,951.48,395.4Z"/><path class="cls-20" d="M951.56,395.55h0Z"/><path class="cls-20" d="M968.55,407.2l0,.07A.15.15,0,0,1,968.55,407.2Z"/><path class="cls-20" d="M967.89,409.56v0S967.91,409.55,967.89,409.56Z"/><path class="cls-20" d="M963.36,400.26s0,0,0,0l.09,0Z"/><path class="cls-20" d="M968.67,406.94v0h0Z"/><path class="cls-20" d="M947.8,394.59c.07.12-.07.09-.13.12S947.77,394.64,947.8,394.59Z"/><path class="cls-20" d="M951.39,395.51s0-.05,0-.07.07,0,.11.06S951.39,395.53,951.39,395.51Z"/><path class="cls-20" d="M952.32,395.74l-.31-.19C952.13,395.59,952.32,395.68,952.32,395.74Z"/><path class="cls-20" d="M953.24,395.77s0-.05,0-.08S953.33,395.75,953.24,395.77Z"/><path class="cls-20" d="M953.28,395.9c0-.09.14,0,.16,0A.2.2,0,0,1,953.28,395.9Z"/><path class="cls-20" d="M955.21,396.28c0-.08.13.07.19,0S955.26,396.3,955.21,396.28Z"/><path class="cls-20" d="M956.08,396.6l0-.05s.09.07,0,.08Z"/><polygon class="cls-20" points="970.14 403.12 970.08 403.2 970.09 403.12 970.14 403.12"/><path class="cls-20" d="M967.76,410.16s-.09,0,0-.1C967.69,410.17,967.79,410.07,967.76,410.16Z"/><polygon class="cls-20" points="965.55 413.39 965.48 413.31 965.57 413.37 965.55 413.39"/><path class="cls-20" d="M953.82,432.67l-.2,1.22A3.79,3.79,0,0,1,953.82,432.67Z"/><path class="cls-20" d="M1014,387.38l-24.55.29a6.39,6.39,0,0,0-6.3,6.45l.19,16.26a6.4,6.4,0,0,0,6.45,6.31l24.55-.29a6.4,6.4,0,0,0,6.3-6.46l-.19-16.26A6.39,6.39,0,0,0,1014,387.38Zm-9.81,22.3-4.39.05a7.68,7.68,0,0,1-.18-15.36l4.39-.05a7.68,7.68,0,0,1,.18,15.36Z"/><path class="cls-20" d="M1011.76,401.92a7.7,7.7,0,0,1-7.59,7.77l-4.39.05a7.68,7.68,0,0,1-.18-15.36l4.39-.05A7.7,7.7,0,0,1,1011.76,401.92Z"/><path class="cls-20" d="M1018.09,382.43l-32.85.39a8.56,8.56,0,0,0-8.43,8.63l.26,21.76a8.56,8.56,0,0,0,8.63,8.43l32.85-.39a8.56,8.56,0,0,0,8.43-8.63l-.26-21.76A8.56,8.56,0,0,0,1018.09,382.43Zm2.54,27.51a6.4,6.4,0,0,1-6.3,6.46l-24.55.29a6.4,6.4,0,0,1-6.45-6.31l-.19-16.26a6.39,6.39,0,0,1,6.3-6.45l24.55-.29a6.39,6.39,0,0,1,6.45,6.3Z"/><path class="cls-20" d="M1011.74,400.21a7.7,7.7,0,0,1-7.59,7.77l-4.39.05a7.68,7.68,0,0,1-.18-15.36l4.39-.05A7.7,7.7,0,0,1,1011.74,400.21Z"/><path class="cls-20" d="M1034.84,409.91h0a3.39,3.39,0,0,1-3.62-3.15l-1-13.81a3.39,3.39,0,0,1,3.15-3.62h0a3.39,3.39,0,0,1,3.62,3.15l1,13.81A3.39,3.39,0,0,1,1034.84,409.91Z"/><path class="cls-20" d="M969.14,410.69h0a3.39,3.39,0,0,0,3.54-3.23l.63-13.82a3.39,3.39,0,0,0-3.23-3.54h0a3.39,3.39,0,0,0-3.54,3.23l-.63,13.82A3.39,3.39,0,0,0,969.14,410.69Z"/><path class="cls-20" d="M1045.17,361.46c0,2.87-2.14,5.6-5.94,8-7.75,4.84-22.33,8.21-39.07,8.41s-31.4-2.83-39.27-7.49c-3.85-2.28-6.08-5-6.11-7.82l-.09-7.92c0-1,1.13-2.05,3.2-3,1,1,2,1.9,3.05,2.79a58.29,58.29,0,0,0,7.28,5.24l1,.59a59.23,59.23,0,0,0,10.11,4.65c.82.29,1.65.56,2.48.81a60.67,60.67,0,0,0,36.41-.43c.83-.27,1.64-.56,2.46-.87a59.24,59.24,0,0,0,10-4.89l1-.62a58.29,58.29,0,0,0,7.15-5.41c1-.92,2-1.88,3-2.86,2.09.88,3.27,1.86,3.28,2.91"/><path d="M997.77,369.14q14-5.07,12.43-9.16-1.54-5.31-10-5.39-6.37.75-7.29,6.17a46.58,46.58,0,0,0-.57,5.78L979,366.07q-1.34-10.93.26-16.71,3-9.28,18.75-9.28,15.31,1,23.73,5.82,4.67,2.4,4.47,16.12-.46,11.48-15.31,17.3-6.78,3.85-4.26,9.56l-15.57,1.69Q987.29,374.73,997.77,369.14Zm3.39,24.19q3.7,0,4.93.79.87.59,2.06,4.09a24.75,24.75,0,0,1,1.49,7.08q.05,2.75-1.64,3.3a34.5,34.5,0,0,1-9.61,1.34q-5.81,0-6.93-2.12a9.35,9.35,0,0,1-.57-3.58,13.84,13.84,0,0,1,3.39-9.48,5.45,5.45,0,0,1,2.62-1.1A38.36,38.36,0,0,1,1001.16,393.33Z"/><use id="Arrow_28-3" data-name="Arrow 28" width="45.72" height="31.75" transform="matrix(-1.59, 0, 0, 1.57, 132.68, 72.22)" xlink:href="#Arrow_28"/></svg>