<svg id="Layer_1" data-name="Layer 1" xmlns="http://www.w3.org/2000/svg" viewBox="0 0 411 141"><defs><style>.cls-1{fill:#d6902a;}.cls-2{fill:#f8c67b;}.cls-3{fill:#f16b23;}</style></defs><title>settings button</title><rect class="cls-1" x="25.55" y="23.11" width="364.89" height="97.07"/><rect class="cls-2" x="35" y="28.62" width="345.99" height="86.04"/><path class="cls-3" d="M106.64,68.59Q124.7,74.8,116,92.87a6.35,6.35,0,0,1-4.51,3.28,34.46,34.46,0,0,1-8.89.91q-7.61-.32-9.1-2.36a14.93,14.93,0,0,1-3-9.14,17.69,17.69,0,0,1,2-7.94l8.16.94q-2.6,4-.7,7.14.82,1.42,4,1.4,3.51,0,4.42-.54a2.49,2.49,0,0,0,1.81-1.91q.85-4.94-4.59-6.77-15-6.31-15.25-14.15-.12-9.37,2.55-11,4.8-3.28,13.52-4,9,0,10.68,6.34.91,3.95.15,11.41l-7.61.32a38,38,0,0,0-.32-3.95,4.49,4.49,0,0,0-4.16-4.22q-4.8.05-5.68,3.68Q98.68,65.13,106.64,68.59Z"/><path class="cls-3" d="M146.79,52.11l.26,8.57H130.64v9.4l12.06.35V79l-12.06.7v5.18l16.5.75.64,8.41-27.36,1,1.43-44.53Z"/><path class="cls-3" d="M161.6,96.09l-.53-36.68H150.83l-.18-9.27,31-1.61-.35,10.88H171.9L171.19,95Z"/><path class="cls-3" d="M195.07,96.09l-.53-36.68H184.3l-.18-9.27,31-1.61-.35,10.88h-9.42L204.67,95Z"/><path class="cls-3" d="M218.62,57.85l-1-12,10.12.38-.79,12Zm.94,39.61L217.78,62l10.12-1.07V95.32Z"/><path class="cls-3" d="M239.43,47.51,252.07,74.1l-.67-23.87L263,49.63l-1.73,47.8h-8.13L240.66,71l-.44,23.5-8.4.51-2-45.84Z"/><path class="cls-3" d="M279.72,69.16l15.39,0-.67,18.56q-.64,9-9.39,9.64-5.62.4-8.16-.62-7.11-1.77-9-9.61Q264.62,69.21,266.32,55a6,6,0,0,1,5.06-5.45q10.21-2.34,15.71-1.13,8.08,2.18,8.37,9.16.15,3.2,0,7l-9,.75q-.15-1.83-.41-3.54-.59-3.44-3-3.68-3.77-.73-5.65.13t-2.31,4.43q-.79,8.11,1.23,21.75,1.08,3.84,6.35,3,3.22-.46,3.28-4.06l.23-5.51-6.79.38Z"/><path class="cls-3" d="M313.37,68.59q18.05,6.2,9.39,24.28a6.35,6.35,0,0,1-4.51,3.28,34.46,34.46,0,0,1-8.89.91q-7.61-.32-9.1-2.36a14.93,14.93,0,0,1-3-9.14,17.69,17.69,0,0,1,2-7.94l8.16.94q-2.6,4-.7,7.14.82,1.42,4,1.4,3.51,0,4.42-.54A2.49,2.49,0,0,0,317,84.65q.85-4.94-4.59-6.77-15-6.31-15.25-14.15-.12-9.37,2.55-11,4.8-3.28,13.52-4,9,0,10.68,6.34.91,3.95.15,11.41l-7.61.32a38,38,0,0,0-.32-3.95A4.49,4.49,0,0,0,312,58.66q-4.8.05-5.68,3.68Q305.41,65.13,313.37,68.59Z"/></svg>