<svg id="Layer_1" data-name="Layer 1" xmlns="http://www.w3.org/2000/svg" viewBox="0 0 290 301"><defs><style>.cls-1,.cls-3{fill:#23b6d8;}.cls-1,.cls-2{stroke:#fff;stroke-miterlimit:10;stroke-width:16px;}.cls-2,.cls-4{fill:#6da04b;}</style></defs><title>highlightEarth</title><g id="Earth"><ellipse class="cls-1" cx="145" cy="150.5" rx="122.01" ry="125.5"/><path class="cls-2" d="M263.69,121.3l-2-.76h-9.58L245,114.67,230.2,125.93l-12.32-11.27-21,4-13.46,1.64-2.28,26.05,5.48,24.88H209l12.44-1.88,5.36,10.09,5.71,11.74-10,8.68,8.44,19.72-1.37,7.75L237,233A127.1,127.1,0,0,0,267,150.5,129.28,129.28,0,0,0,263.69,121.3Z"/><path class="cls-2" d="M39.11,138.76,47,140.64,54.94,146l10.65,3.44,5.48,1.41,5.17,2.35-2.74,5.63L65,172.88l9.43,11.58,13.39,8.76V201l8.82,13.77s-.91,8.76,0,11.58,6.08,17.53,6.08,17.53l5.17,6.89,12.48,1.56-7.91-13.14s11.56-18.15,12.48-18.78-3.65-7.82-2.74-8.76,8.21-9.08,8.21-9.08l7.91-10.33,3.35-13.46-10-16.27s-11.26-8.14-11.26-9.08-7.3-9.08-7.3-9.08l-20.39-.63L81.1,140l-4.26,7.82-9.74-5,.3-8.27H59.8l-4.26-6.75,6.39-5L75,129.69l8.22-5.32,8.82-21.28L100,92.76h14.3l2.13-5,9.43-4.69,4,2.7L134,79.3l-8.22-11.89-6.39-2.19-2.36,2.28-7.68,7.43-18-4.38L89,79.3,81.1,69l10.35-3.76L103,68.35l4.56-4.69,14.61-2.19L110.31,48.63H96.62L91.14,57.7l-5.48-7.2-13.24-.9A126.09,126.09,0,0,0,24.2,132.84l9.75,1.73Z"/><path class="cls-2" d="M218.48,72.73v5.63l-16.13,4.69,1.52,11.89-9.13-5.75-8.82,7.32,5.78,8.76,8.82,1.25,14.91-12.21L219.7,100s-2.74,6.57,0,8.76,14.24,5.63,14.24,5.63V103.71l-7.85-7.2,5.17-4.38,9.43,8.14-3,5.63,17.65,8.45s1.94-2.3,4.75-5.71A125.39,125.39,0,0,0,212.65,46l-5.12,19.79Z"/><path class="cls-2" d="M50.95,204.53l-1.85-1.9L44,203.71v5.17L38.63,212a126.27,126.27,0,0,0,8,12.72l3.88-.75,7.62-5.61.42-5.1-7.58-3.74Z"/></g><g id="Earth-2" data-name="Earth"><ellipse class="cls-3" cx="145" cy="150.5" rx="122.01" ry="125.5"/><path class="cls-4" d="M263.69,121.3l-2-.76h-9.58L245,114.67,230.2,125.93l-12.32-11.27-21,4-13.46,1.64-2.28,26.05,5.48,24.88H209l12.44-1.88,5.36,10.09,5.71,11.74-10,8.68,8.44,19.72-1.37,7.75L237,233A127.1,127.1,0,0,0,267,150.5,129.28,129.28,0,0,0,263.69,121.3Z"/><path class="cls-4" d="M39.11,138.76,47,140.64,54.94,146l10.65,3.44,5.48,1.41,5.17,2.35-2.74,5.63L65,172.88l9.43,11.58,13.39,8.76V201l8.82,13.77s-.91,8.76,0,11.58,6.08,17.53,6.08,17.53l5.17,6.89,12.48,1.56-7.91-13.14s11.56-18.15,12.48-18.78-3.65-7.82-2.74-8.76,8.21-9.08,8.21-9.08l7.91-10.33,3.35-13.46-10-16.27s-11.26-8.14-11.26-9.08-7.3-9.08-7.3-9.08l-20.39-.63L81.1,140l-4.26,7.82-9.74-5,.3-8.27H59.8l-4.26-6.75,6.39-5L75,129.69l8.22-5.32,8.82-21.28L100,92.76h14.3l2.13-5,9.43-4.69,4,2.7L134,79.3l-8.22-11.89-6.39-2.19-2.36,2.28-7.68,7.43-18-4.38L89,79.3,81.1,69l10.35-3.76L103,68.35l4.56-4.69,14.61-2.19L110.31,48.63H96.62L91.14,57.7l-5.48-7.2-13.24-.9A126.09,126.09,0,0,0,24.2,132.84l9.75,1.73Z"/><path class="cls-4" d="M218.48,72.73v5.63l-16.13,4.69,1.52,11.89-9.13-5.75-8.82,7.32,5.78,8.76,8.82,1.25,14.91-12.21L219.7,100s-2.74,6.57,0,8.76,14.24,5.63,14.24,5.63V103.71l-7.85-7.2,5.17-4.38,9.43,8.14-3,5.63,17.65,8.45s1.94-2.3,4.75-5.71A125.39,125.39,0,0,0,212.65,46l-5.12,19.79Z"/><path class="cls-4" d="M50.95,204.53l-1.85-1.9L44,203.71v5.17L38.63,212a126.27,126.27,0,0,0,8,12.72l3.88-.75,7.62-5.61.42-5.1-7.58-3.74Z"/></g></svg>