<svg id="Layer_1" data-name="Layer 1" xmlns="http://www.w3.org/2000/svg" viewBox="0 0 161 138"><defs><style>.cls-1,.cls-2{fill:#f16b23;}.cls-1{opacity:0.5;}</style></defs><title>music off</title><path class="cls-1" d="M114.81,15.47,68.14,29.74c-5.65,1.62-10.24,7.52-10.24,13.17V92.13S54.53,89.85,47,90.92c-11.06,1.57-20,10.06-20,19s9,14.36,20,12.79,19.18-9.8,19.18-18.7v-42c0-3.94,4.74-5.64,4.74-5.64l41.26-12.94s4.56-1.53,4.56,2.69V79.82s-4.2-2.42-11.73-1.51C94,79.66,85,88,85,96.87s9,14.55,20,13.21,20-9.65,20-18.56V22.79C125,17.14,120.46,13.86,114.81,15.47Z"/><rect class="cls-2" x="83.56" y="1.57" width="13.11" height="134.86" rx="3.25" ry="3.25" transform="translate(-23.36 66.75) rotate(-36.3)"/></svg>