<svg id="Layer_1" data-name="Layer 1" xmlns="http://www.w3.org/2000/svg" viewBox="0 0 193 161"><defs><style>.cls-1{opacity:0.5;}.cls-2{fill:#f16b23;}</style></defs><title>sound off</title><g class="cls-1"><path class="cls-2" d="M98.64,30.47a5.4,5.4,0,0,0-4.15,1.95L63.79,54.26H39.64a5.41,5.41,0,0,0-4.15,1.95,6.66,6.66,0,0,0-1.75,4.61v39.36a6.66,6.66,0,0,0,1.75,4.61,5.4,5.4,0,0,0,4.15,1.95H63.79l30.7,21.84a5.39,5.39,0,0,0,8.3,0,6.66,6.66,0,0,0,1.75-4.61V37a6.68,6.68,0,0,0-1.75-4.61A5.43,5.43,0,0,0,98.64,30.47Z"/><path class="cls-2" d="M131.74,95a28.91,28.91,0,0,0,0-29.06,21.87,21.87,0,0,0-10.37-9.53,4.7,4.7,0,0,0-2.31-.51,5.46,5.46,0,0,0-4.15,1.9,6.61,6.61,0,0,0-1.75,4.66,5.93,5.93,0,0,0,1.11,3.64,11.19,11.19,0,0,0,2.67,2.56q1.57,1.08,3.13,2.36a10.2,10.2,0,0,1,2.67,3.64,13.7,13.7,0,0,1,1.11,5.84,13.67,13.67,0,0,1-1.11,5.84A10.15,10.15,0,0,1,120.08,90q-1.57,1.28-3.13,2.36a11.35,11.35,0,0,0-2.67,2.56,5.93,5.93,0,0,0-1.11,3.64,6.62,6.62,0,0,0,1.75,4.66,5.46,5.46,0,0,0,4.15,1.9,4.67,4.67,0,0,0,2.31-.51A22.52,22.52,0,0,0,131.74,95Z"/><path class="cls-2" d="M130.68,32.23a6.06,6.06,0,0,0-2.4-.51,5.4,5.4,0,0,0-4.15,1.95,6.66,6.66,0,0,0-1.75,4.61,6.57,6.57,0,0,0,3.59,6,56.89,56.89,0,0,1,7,4.51,38,38,0,0,1,10.65,13.89,43.27,43.27,0,0,1,0,35.57A37.91,37.91,0,0,1,133,112.17a56,56,0,0,1-7,4.51,6.57,6.57,0,0,0-3.59,6,6.67,6.67,0,0,0,1.75,4.61,5.49,5.49,0,0,0,4.24,1.95,5.81,5.81,0,0,0,2.3-.51,47,47,0,0,0,20.74-19.32,57.42,57.42,0,0,0,0-57.91A47,47,0,0,0,130.68,32.23Z"/></g><rect class="cls-2" x="93.99" y="13.07" width="13.11" height="134.86" rx="3.25" ry="3.25" transform="translate(-28.14 75.16) rotate(-36.3)"/></svg>