<svg id="Layer_1" data-name="Layer 1" xmlns="http://www.w3.org/2000/svg" viewBox="0 0 1334 750"><defs><style>.cls-1{fill:#07212b;}.cls-2{fill:#d6902a;}.cls-3{fill:#f8c67b;}.cls-4{fill:#f16b23;}.cls-5{fill:#cecfd1;}.cls-6{fill:#ddd;}.cls-7{fill:#7f7f7f;}.cls-8{fill:#9e9e9e;}.cls-9{fill:#fff;}.cls-10{fill:#fd0;}.cls-11{fill:#f8a710;}.cls-12{fill:#df4426;}.cls-13{fill:#e96025;}.cls-14{fill:#b74a2c;}.cls-15{fill:#eee6db;}.cls-16{fill:#d1c6b8;}.cls-17{fill:#dff0ff;}.cls-18{fill:#f4dd80;}.cls-19{fill:#bdad68;}.cls-20{fill:#9f918a;}.cls-21{fill:#685e5b;}.cls-22{fill:#9f703a;}</style></defs><title>Artboard 1</title><rect class="cls-1" x="-3" y="-3" width="1342" height="756"/><rect class="cls-2" x="485.55" y="495.11" width="364.89" height="97.07"/><rect class="cls-3" x="495" y="500.62" width="345.99" height="86.04"/><path class="cls-4" d="M627,549l-10.21,3.34v17.08L607.49,568l-1.76-47.67h13q14.84.63,15.28,5.74.3,12.25-1.77,17.73A6.9,6.9,0,0,1,627,549ZM616.8,529.85v14.37l4.91-1.45q3-.73,3.54-7.31.49-3.52-1.52-4.32Q621.57,530,616.8,529.85Z"/><path class="cls-4" d="M637.72,568.08,636.54,519l11.5-1.11-1.17,39.29h16.06l-.05,9.43Z"/><path class="cls-4" d="M692.23,569.43l-2.11-9.08H676.28l-2.39,7.52-9.51-1.74,16.82-45.8,6.5,1,14.87,45.94Zm-13-17.93,8.43-.33-3.61-13.59Z"/><path class="cls-4" d="M706.09,520.25,712,535.07,718.44,519l11.79,1.25-13,25.9,0,20.33-11.06,2.43.92-22.69L694.6,521.63Z"/><rect class="cls-2" x="485.55" y="615.11" width="364.89" height="97.07"/><rect class="cls-3" x="495" y="620.62" width="345.99" height="86.04"/><path class="cls-4" d="M566.64,660.59q18.05,6.2,9.39,24.28a6.35,6.35,0,0,1-4.51,3.28,34.46,34.46,0,0,1-8.89.91q-7.61-.32-9.1-2.36a14.93,14.93,0,0,1-3-9.14,17.69,17.69,0,0,1,2-7.94l8.16.94q-2.6,4-.7,7.14.82,1.42,4,1.4,3.51,0,4.42-.54a2.49,2.49,0,0,0,1.81-1.91q.85-4.94-4.59-6.77-15-6.31-15.25-14.15-.12-9.37,2.55-11,4.8-3.28,13.52-4,9,0,10.68,6.34.91,3.95.15,11.41l-7.61.32a38,38,0,0,0-.32-3.95,4.49,4.49,0,0,0-4.16-4.22q-4.8.05-5.68,3.68Q558.68,657.13,566.64,660.59Z"/><path class="cls-4" d="M606.79,644.11l.26,8.57H590.64v9.4l12.06.35V671l-12.06.7v5.18l16.5.75.64,8.41-27.36,1,1.43-44.53Z"/><path class="cls-4" d="M621.6,688.09l-.53-36.68H610.83l-.18-9.27,31-1.61-.35,10.88H631.9l-.7,35.58Z"/><path class="cls-4" d="M655.07,688.09l-.53-36.68H644.3l-.18-9.27,31-1.61-.35,10.88h-9.42l-.7,35.58Z"/><path class="cls-4" d="M678.62,649.85l-1-12,10.12.38-.79,12Zm.94,39.61L677.78,654l10.12-1.07v34.38Z"/><path class="cls-4" d="M699.43,639.51l12.64,26.59-.67-23.87,11.59-.59-1.73,47.8h-8.13L700.66,663l-.44,23.5-8.4.51-2-45.84Z"/><path class="cls-4" d="M739.72,661.16l15.39,0-.67,18.56q-.64,9-9.39,9.64-5.62.4-8.16-.62-7.11-1.77-9-9.61-3.28-17.89-1.58-32.15a6,6,0,0,1,5.06-5.45q10.21-2.34,15.71-1.13,8.08,2.18,8.37,9.16.15,3.2,0,7l-9,.75q-.15-1.83-.41-3.54-.59-3.44-3-3.68-3.77-.73-5.65.13t-2.31,4.43q-.79,8.11,1.23,21.75,1.08,3.84,6.35,3,3.22-.46,3.28-4.06l.23-5.51-6.79.38Z"/><path class="cls-4" d="M773.37,660.59q18.05,6.2,9.39,24.28a6.35,6.35,0,0,1-4.51,3.28,34.46,34.46,0,0,1-8.89.91q-7.61-.32-9.1-2.36a14.93,14.93,0,0,1-3-9.14,17.69,17.69,0,0,1,2-7.94l8.16.94q-2.6,4-.7,7.14.82,1.42,4,1.4,3.51,0,4.42-.54a2.49,2.49,0,0,0,1.81-1.91q.85-4.94-4.59-6.77-15-6.31-15.25-14.15-.12-9.37,2.55-11,4.8-3.28,13.52-4,9,0,10.68,6.34.91,3.95.15,11.41l-7.61.32a38,38,0,0,0-.32-3.95,4.49,4.49,0,0,0-4.16-4.22q-4.8.05-5.68,3.68Q765.41,657.13,773.37,660.59Z"/><circle class="cls-5" cx="571.46" cy="180" r="52.65" transform="matrix(0.32, -0.95, 0.95, 0.32, 219.4, 664.8)"/><path class="cls-6" d="M559.91,155.79s6,5.91,12.72-.47,2.13-11.36.8-12.77"/><path class="cls-6" d="M537.29,158.32s7,4.17,11.45-3.79-.81-11.67-2.48-12.61"/><ellipse class="cls-7" cx="566.78" cy="149.28" rx="9.47" ry="6.43" transform="translate(52.65 430.7) rotate(-43.45)"/><path class="cls-8" d="M573.79,143.51c2.21,2.33,1.1,7-2.47,10.33s-8.25,4.23-10.45,1.91-1.1-7,2.47-10.33S571.58,141.18,573.79,143.51Z"/><ellipse class="cls-5" cx="568.73" cy="149.48" rx="3.76" ry="2.45" transform="translate(53.05 432.1) rotate(-43.45)"/><path class="cls-6" d="M550.63,195.32s12.6,2.93,15.86-9c3.32-12.16-7-14.82-9.53-15.54"/><path class="cls-7" d="M557.38,170.84c4.7,1.31,7,7.85,5.14,14.61s-7.19,11.18-11.89,9.87-7-7.85-5.14-14.61S552.67,169.52,557.38,170.84Z"/><path class="cls-8" d="M557.59,173c4.25,1.18,6.42,6.74,4.85,12.42s-6.27,9.31-10.52,8.13-6.42-6.74-4.85-12.42S553.35,171.82,557.59,173Z"/><path class="cls-5" d="M557.77,177.12c1.79.5,2.65,3.08,1.91,5.77s-2.79,4.45-4.59,4-2.65-3.08-1.91-5.76S556,176.62,557.77,177.12Z"/><path class="cls-6" d="M548.11,218.63s6.6-4,2.54-11.2c-3.59-6.34-8.27-2.38-9.73-1.61"/><path class="cls-7" d="M541.15,205.69c2.68-1.41,6.4.35,8.33,3.93s1.31,7.61-1.36,9-6.41-.35-8.33-3.93S538.47,207.09,541.15,205.69Z"/><path class="cls-8" d="M542.59,207.4c2.41-1.27,5.68.14,7.29,3.14s1,6.46-1.45,7.73-5.68-.14-7.29-3.13S540.17,208.67,542.59,207.4Z"/><path class="cls-6" d="M569,216.52a4.71,4.71,0,0,1,1.42,1.73s4.44,1.35,7.35-3.84-.88-8.22-.88-8.22a2.72,2.72,0,0,1-2.11-.36"/><path class="cls-7" d="M575.46,204.84c2.62,1.51,3.13,5.6,1.13,9.13s-5.73,5.18-8.35,3.67-3.12-5.6-1.13-9.13S572.84,203.33,575.46,204.84Z"/><path class="cls-8" d="M574.78,207c2.36,1.36,2.92,4.87,1.25,7.84s-4.94,4.27-7.31,2.91-2.92-4.87-1.25-7.84S572.41,205.62,574.78,207Z"/><path class="cls-6" d="M605.81,189a6,6,0,0,1,2.38,1.56s5.41-.84,6.85-8.87-4-9.8-4-9.8a3.19,3.19,0,0,1-2.53.67"/><path class="cls-7" d="M608.87,170.58c3.65.51,5.76,5.52,4.73,11.19s-4.83,9.85-8.48,9.35-5.76-5.52-4.73-11.19S605.22,170.07,608.87,170.58Z"/><path class="cls-8" d="M608.86,173.72c3.29.46,5.25,4.69,4.39,9.45s-4.24,8.25-7.53,7.79-5.26-4.69-4.39-9.45S605.57,173.26,608.86,173.72Z"/><path class="cls-7" d="M527.65,179c1.88.06,3.37,2.15,3.31,4.68s-1.62,4.53-3.5,4.47-3.37-2.15-3.31-4.68S525.77,179,527.65,179Z"/><path class="cls-8" d="M527.9,180.39c1.7.05,3,1.81,3,3.94s-1.46,3.8-3.16,3.75-3-1.81-3-3.94S526.21,180.34,527.9,180.39Z"/><path class="cls-7" d="M585.65,165.62c2.28.15,4.16,2.49,4.21,5.24s-1.75,4.85-4,4.7-4.16-2.49-4.22-5.24S583.37,165.47,585.65,165.62Z"/><path class="cls-8" d="M586,167.12a4.39,4.39,0,0,1,3.8,4.41,3.59,3.59,0,0,1-3.64,3.93,4.39,4.39,0,0,1-3.8-4.42A3.58,3.58,0,0,1,586,167.12Z"/><path class="cls-7" d="M596.13,144.79c2.28.15,4.16,2.5,4.22,5.24s-1.76,4.85-4,4.7-4.17-2.49-4.22-5.24S593.85,144.64,596.13,144.79Z"/><path class="cls-8" d="M596.5,146.29a4.39,4.39,0,0,1,3.8,4.41,3.59,3.59,0,0,1-3.64,3.93,4.39,4.39,0,0,1-3.8-4.42A3.59,3.59,0,0,1,596.5,146.29Z"/><ellipse class="cls-7" cx="541.53" cy="149.98" rx="9.47" ry="6.43" transform="translate(109.84 509.71) rotate(-55.28)"/><ellipse class="cls-8" cx="542.14" cy="150.21" rx="8.9" ry="5.8" transform="translate(109.95 510.34) rotate(-55.29)"/><ellipse class="cls-5" cx="587" cy="172.66" rx="1.01" ry="0.68" transform="translate(264.04 692.35) rotate(-74.53)"/><path class="cls-7" d="M596.61,203.58c2.28.15,4.16,2.5,4.22,5.24s-1.75,4.85-4,4.7-4.16-2.49-4.22-5.24S594.34,203.43,596.61,203.58Z"/><path class="cls-8" d="M597,205.08a4.39,4.39,0,0,1,3.8,4.41,3.59,3.59,0,0,1-3.64,3.93,4.39,4.39,0,0,1-3.8-4.42A3.59,3.59,0,0,1,597,205.08Z"/><ellipse class="cls-5" cx="597.97" cy="210.62" rx="1.01" ry="0.67" transform="translate(235.82 730.98) rotate(-74.57)"/><path class="cls-7" d="M587.11,191.21a2.53,2.53,0,0,1,2.09,2.6,2.06,2.06,0,0,1-2,2.33,2.53,2.53,0,0,1-2.09-2.6A2.06,2.06,0,0,1,587.11,191.21Z"/><path class="cls-8" d="M587.29,192a2.17,2.17,0,0,1,1.88,2.18,1.78,1.78,0,0,1-1.8,1.95,2.18,2.18,0,0,1-1.88-2.19A1.77,1.77,0,0,1,587.29,192Z"/><ellipse class="cls-5" cx="587.78" cy="194.7" rx="0.5" ry="0.33" transform="translate(244.08 709.74) rotate(-74.61)"/><ellipse class="cls-5" cx="608.49" cy="184.04" rx="2.1" ry="1.49" transform="translate(269.23 721.66) rotate(-74.57)"/><ellipse class="cls-5" cx="571.82" cy="215.66" rx="2.1" ry="1.49" transform="translate(-38.02 175.89) rotate(-16.93)"/><ellipse class="cls-5" cx="597.99" cy="151.95" rx="1.11" ry="0.78" transform="translate(292.4 687.95) rotate(-74.57)"/><ellipse class="cls-5" cx="548.89" cy="215.13" rx="1.1" ry="0.78" transform="translate(195.9 687.31) rotate(-74.62)"/><ellipse class="cls-5" cx="545.33" cy="152" rx="1.1" ry="0.78" transform="translate(253.74 637.24) rotate(-74.57)"/><ellipse class="cls-5" cx="528.7" cy="183.98" rx="1.1" ry="0.78" transform="translate(210.29 644.4) rotate(-74.52)"/><path class="cls-9" d="M500.32,409.85a64.85,64.85,0,0,1-22.57,3.77q-20,0-31.3-12.71-10.38-11.78-10.38-30.58a78.65,78.65,0,0,1,.5-8.6q2.6-20.12,19.18-34.68,17-14.83,38.87-14.83,33,0,46.73,20.58l-6.2,3.77q3,8,3,13.7a66.94,66.94,0,0,1-1.37,11.45q-4.18,21.58-17,35.08,8.94,11.32,13.49,18.33l-24.88,8.27q-3.32-6.16-7.14-11.85A10.11,10.11,0,0,1,500.32,409.85Zm5.27-28.92a41.77,41.77,0,0,0,7-16.75,23.32,23.32,0,0,0,.58-4.57q0-7.68-5-11.78l4.47-2.32q-5.84-11-19.83-11-14.21,0-23.73,8.41-8.94,8-11.11,21.25a32.28,32.28,0,0,0-.51,5.16,24.6,24.6,0,0,0,6.35,17,22.18,22.18,0,0,0,17.31,7.48,29.87,29.87,0,0,0,6.71-.73q-2.09-2.58-8-9.07l-7.86-7.61,29.35-.07Q503.43,378.48,505.59,380.93Z"/><path class="cls-9" d="M627.61,312.23q-2.31,5-7.75,21.11t-8.4,23.83q-8.15,21.18-18.68,29.39-8.87,6.82-23.08,6.82a25.72,25.72,0,0,1-14.21-4.63q-10.1-6.75-10.1-19.86a44.34,44.34,0,0,1,1.73-11.72q5.48-19.72,17.31-42.89l18.9-2.05q-6.27,13.9-8.15,18.14a211,211,0,0,0-9.81,26.81,32.86,32.86,0,0,0-.94,7.68q0,11.65,9.09,11.65,10.39,0,18.24-19.33l18.17-44.94Z"/><path class="cls-9" d="M686.75,312.23l-5.34,15.42h-6.63q-18.68,0-29.21.79l3.6,1.92q-.86,1.72-4.25,9.13-.94,1.92-2.09,4.5l24.88-.86L662.44,357l-24.52.79q-2.67,7.21-5.84,18.33,10-.53,30-1.39L656.6,390H644.2q-12.69,0-37.36,3.71v-.2q0-.73,3-10.66,3.61-11.52,6.42-18.8,4.76-12.18,10.82-24.56,2.31-4.63,5.19-9.66-6.13.6-11.47,1.19L626,315.14q12-.86,28.63-1.72Q664.53,312.89,686.75,312.23Z"/><path class="cls-9" d="M713.72,327.25a50.71,50.71,0,0,0-8.15.79q-8.51,1.85-12.11,6.35a5.34,5.34,0,0,0-1.23,3.31q0,2.91,3.32,7.28a73.37,73.37,0,0,1,5,7.15q4,8.67,4,13.5V367q-1.15,12-15,20.39-7.5,4.63-24.23,8.47l-4-19.79a61.35,61.35,0,0,0,11.4-2.32q12-3.77,12-10.06V363a14.91,14.91,0,0,0-2.24-7.15q-1.23-1.65-4.26-6.09-5.41-7.88-5.41-13.63,0-12.31,10-17.74,7.71-4.1,23.22-7.68Z"/><path class="cls-9" d="M788.65,312.23l-5.34,15.42h-6.92q-10.17,0-17.6.2l5,2.52q-5.56,9.73-13.56,33.69-2.89,9.07-7.21,24.69l-.58.2q-7.79,1.32-21.27,4.77,4.26-14.83,9.74-29.65a237.16,237.16,0,0,1,11-24.56q1.73-3.77,5.77-11.05-11,.93-25,2.58l5.12-15.89q12.55-.86,28.63-1.72Q766.36,312.89,788.65,312.23Z"/><path class="cls-4" d="M801.72,378.37q-.24,3.73-1.31,10.85a11.91,11.91,0,0,1-1.19,3.62,4.09,4.09,0,0,1-3.22,1.53,6.16,6.16,0,0,1-3.7-1.21,3.75,3.75,0,0,1-1.67-3l.24-4.16q.24-3.07.24-4.16l.24-11.28v-17.2q0-18.3.36-29.91t1.43-11.94a14.73,14.73,0,0,0,1.91-.11l2.39-.33q1-.22,1.31.11a5,5,0,0,1,1.31,1,2,2,0,0,0,1.43.77v8.76q0,6,.36,15.78l.24,5.7q.12,2.41.12,8.11.12,3.51.12,16.32Q802.07,375.19,801.72,378.37Z"/><path class="cls-4" d="M849.58,355.36a125,125,0,0,1-1.19,18.08,54,54,0,0,1-3.94,14.35,16.8,16.8,0,0,1-6.8,7.12,17.69,17.69,0,0,1-9.55,2.85,13.06,13.06,0,0,1-8.59-3v.11h-1.08a34,34,0,0,1-6.57-13.37l.24-11.07-.24-18.41a13.74,13.74,0,0,0,.6-2.63q0-7.34.12-9.53l-.12-.77c.08-.07.12-.26.12-.55q1.67-27.83,17-27.83a17.05,17.05,0,0,1,9.91,3,15.29,15.29,0,0,1,5.37,6.9,62.66,62.66,0,0,1,3.46,14.46q.48,4.38.6,5.48A131.94,131.94,0,0,1,849.58,355.36ZM841.94,351q0-4.05-.06-6.14t-.06-3q-.12-1.09-.12-4.82,0-3.18-.12-4.82a18.24,18.24,0,0,0-.72-4.38,32,32,0,0,0-5.61-11.5,3.86,3.86,0,0,0-2.87-1.86q-2,0-3.94,3.4a27.3,27.3,0,0,0-2.51,6.46Q824.16,334.44,824,357l-.12,5.37v4.38a135.21,135.21,0,0,0,1.67,22.46,4.93,4.93,0,0,0,.12,1.15,7.92,7.92,0,0,0,.24.82,3.88,3.88,0,0,0,1,1.42,2.39,2.39,0,0,0,1.67.66q2.51,0,5.25-3.83a30.49,30.49,0,0,0,3.82-6.68q2.75-6.46,3.94-17.75Q841.94,360.4,841.94,351Z"/><path class="cls-4" d="M900.67,310.88l-.12.77-.12.55-.48,7.45.12,2.3a5.88,5.88,0,0,0,.06,1,3.29,3.29,0,0,1,.06.44l-.24,7.78q-.24,5.81-.48,7.78l-.24,4.38v.22a4.59,4.59,0,0,0-.72,2.74V349a6,6,0,0,0,.36,2.08q-.12,3.73-.12,8.44l.12,6.79V376l-.12,2.63v2.08l-.12,1.21.24,4.05V386a6.81,6.81,0,0,0-1.07,2.41A4.51,4.51,0,0,0,896.5,390l-.72.77-.48.11a1.9,1.9,0,0,1-1.31.55,15.23,15.23,0,0,1-2.75-.22,8.25,8.25,0,0,1-2-1.53Q888,388,887.9,387.79v-.44a102,102,0,0,1-5.73-12.27q-2.27-5.92-5.85-16-.12-.44-.66-2t-1.73-4.71q-.36-1.2-2.87-6.57l-2.27-5.59-.12,3.07v.22a4.59,4.59,0,0,0-.72,2.74V349a6,6,0,0,0,.36,2.08l-.12,8.44.12,6.79.12,6.68-.12,3a16.89,16.89,0,0,0-.12,2.63q0,5.81.12,7.34c0,.07,0,.11.12.11q-.24.11-.72,1.1a9.76,9.76,0,0,1-.6,3.72q-.48,1.31-3,1.31l-1.19.11a8.12,8.12,0,0,1-2.63-.55A2.69,2.69,0,0,1,859,390a5.73,5.73,0,0,1-1.79-2.19v-1l-.48-.66a9,9,0,0,1,.12-1.86V384q.72-8.55.72-19.5L857.46,349q-.24-7-.24-15.78a199.71,199.71,0,0,1,1.07-23.56q0-1.09,2.87-1.86,2.87-1,4.06-.66l3.34.22a.6.6,0,0,0,.24.44.35.35,0,0,0,.24.33l.12.33q.24.22.24.33l.36,1.1a31.34,31.34,0,0,1,2.39,7.23q.47,2,1,4.38t1.13,5.15l1.31,6.46q1,5.15,2.39,11.5,1.19,5.15,2,7.56,1,2.19,1.31,3.29,2.15,5.26,3.34,7.78,1.43,3.84,3,7.34a43.81,43.81,0,0,1-.12-4.38v-4.27q0-3-.12-5.26-.12-2.08-.12-5V332.79l-.24-4.27q0-6.68,1.07-8.44.12-2.85.72-10.41.24-1.09,2.87-1.86,2.87-1,4.06-.66l3.34.22.24.44q.24.22.24.33l.36.66.48,1.1.12.66v.55Z"/><path class="cls-9" d="M541.54,91.1l.91,2.51c4.06-1.47,8.24-2.89,12.42-4.22l-.81-2.55C549.84,88.19,545.63,89.62,541.54,91.1Z"/><path class="cls-9" d="M517.05,101.09l1.11,2.43c3.95-1.8,8-3.55,12-5.2l-1-2.47C525.13,97.5,521,99.27,517.05,101.09Z"/><path class="cls-9" d="M493.48,113.06l1.31,2.33c3.77-2.12,7.66-4.19,11.56-6.18l-1.21-2.38C501.2,108.83,497.28,110.93,493.48,113.06Z"/><path class="cls-9" d="M449.76,142.73l1.68,2.08c3.4-2.75,6.88-5.45,10.36-8l-1.59-2.14C456.7,137.24,453.18,140,449.76,142.73Z"/><path class="cls-9" d="M470.73,126.6l1.5,2.21c3.59-2.44,7.29-4.84,11-7.13l-1.4-2.27C478.09,121.73,474.35,124.15,470.73,126.6Z"/><path class="cls-9" d="M645,73.14c4.36-.24,8.78-.42,13.12-.51L658.1,70c-4.37.1-8.81.27-13.21.51Z"/><path class="cls-9" d="M697.52,73.71c4.41.34,8.81.77,13.07,1.25l.3-2.65c-4.29-.49-8.72-.91-13.16-1.26Z"/><path class="cls-9" d="M671.29,72.56c4.35,0,8.77.17,13.13.35l.11-2.67c-4.39-.19-8.84-.31-13.22-.36Z"/><path class="cls-9" d="M737.08,76.46c-.19,0-4.79-1.12-13.08-2.4l-.41,2.64c8.17,1.27,12.83,2.36,12.87,2.36Z"/><path class="cls-9" d="M618.89,75.49c4.32-.54,8.71-1,13.05-1.4l-.24-2.66c-4.37.39-8.79.86-13.15,1.4Z"/><path class="cls-9" d="M592.46,77l.52,2.62c4.26-.84,8.61-1.62,12.92-2.31l-.42-2.64C601.13,75.39,596.76,76.18,592.46,77Z"/><path class="cls-9" d="M566.74,83.09l.71,2.57c4.18-1.15,8.46-2.25,12.71-3.25l-.61-2.6C575.26,80.83,570.94,81.92,566.74,83.09Z"/><path class="cls-10" d="M754.18,75.89s23.33.31,21.77,6C776,81.87,774.84,88.1,754.18,75.89Z"/><path class="cls-11" d="M757.77,76.89s18.07.58,17,4.66C774.72,81.55,774.05,86,757.77,76.89Z"/><path class="cls-12" d="M760.78,77.74s14.14.57,13.29,3.65C774.07,81.39,773.51,84.83,760.78,77.74Z"/><path class="cls-10" d="M750.91,87.8s23.33.31,21.77,6C772.68,93.79,771.56,100,750.91,87.8Z"/><path class="cls-11" d="M754.49,88.81s18.07.58,17,4.66C771.45,93.47,770.78,98,754.49,88.81Z"/><path class="cls-12" d="M757.5,89.65s14.14.57,13.29,3.65C770.8,93.31,770.23,96.75,757.5,89.65Z"/><path class="cls-10" d="M741.3,78.79s23.33.31,21.77,6C763.07,84.77,762,91,741.3,78.79Z"/><path class="cls-11" d="M744.88,79.79s18.07.58,17,4.66C761.84,84.45,761.17,88.94,744.88,79.79Z"/><path class="cls-12" d="M747.89,80.64s14.14.57,13.29,3.65C761.19,84.29,760.62,87.73,747.89,80.64Z"/><path class="cls-4" d="M804.88,83.56a14.58,14.58,0,0,0-7.93-12.31c-5.58-3-16.74-1.41-21.43,1.51,0,0,15.25,1.18,16,9.8Z"/><path class="cls-4" d="M796,82.35l-.15.53-4.35-.33c-.73-8.61-16-9.8-16-9.8S792.47,69.89,796,82.35Z"/><path class="cls-4" d="M798.36,107.29a14.58,14.58,0,0,1-13.11,6.53c-6.32-.27-15.11-7.34-17.65-12.25,0,0,13.71,6.77,18.74-.26Z"/><path class="cls-4" d="M790.1,103.79l.15-.53-3.91-1.94c-5,7-18.74.26-18.74.26S779.61,112.22,790.1,103.79Z"/><path class="cls-13" d="M781.12,97.34c-.6-2.53-.06-6.7.08-7.63.36-.86,2-4.73,3.83-6.6l-5.16-1.42a17.64,17.64,0,0,0-3.26,6.55h0l-.05.19-.05.18h0a17.64,17.64,0,0,0-.55,7.3Z"/><path class="cls-14" d="M776,95.93l5.16,1.42a9.27,9.27,0,0,1-.18-1.12l-1-3.48-3.86-2.14A16.65,16.65,0,0,0,776,95.93Z"/><path class="cls-15" d="M835.28,118.38c14.74-.18,23.88-7.24,23.88-7.24s-4.25-10.74-16.83-18.43C833.54,87.33,823.91,84.35,807,83s-22-1.59-22-1.59a16.28,16.28,0,0,0-4.47,7.79,20.12,20.12,0,0,0-.3,9.57s4.59,2.44,19.76,9.9S825,118.51,835.28,118.38Z"/><polygon class="cls-16" points="841.18 112.67 841.18 112.67 841.18 112.67 841.18 112.67"/><path class="cls-16" d="M779.88,92.94a19,19,0,0,0,.36,5.85s4.59,2.44,19.76,9.9,25,9.82,35.29,9.69c1.53,0,3-.12,4.4-.27l1.49-5.45C841.13,112.67,818.61,114.36,779.88,92.94Z"/><ellipse class="cls-4" cx="824.91" cy="101.72" rx="8.96" ry="11.12" transform="translate(508.28 870.21) rotate(-74.64)"/><ellipse class="cls-17" cx="824.91" cy="101.72" rx="6.24" ry="7.74" transform="translate(508.28 870.21) rotate(-74.64)"/><path class="cls-4" d="M838.26,118.25c13-1,20.91-7.11,20.91-7.11s-3.71-9.36-14.43-16.86C844.74,94.33,846.61,104.28,838.26,118.25Z"/><path class="cls-4" d="M841.18,112.67a54.43,54.43,0,0,1-2.92,5.57h0a43.79,43.79,0,0,0,19.41-6.13h0l.31-.19,0,0,.26-.17,0,0,.21-.14,0,0,.16-.11,0,0,.12-.08,0,0,.08-.06h0l.06,0,0,0s-5.54,2-18,1.53Z"/><polygon class="cls-4" points="841.18 112.67 841.18 112.67 841.18 112.67 841.18 112.67"/><path class="cls-4" d="M801.53,95.74s-10-12.49-36.44-10C765.09,85.73,784.91,100,801.53,95.74Z"/><path class="cls-4" d="M765.09,85.73s19.81,14.3,36.44,10C801.53,95.74,780.61,94.17,765.09,85.73Z"/><circle class="cls-18" cx="742.08" cy="158.68" r="31.33" transform="translate(14.7 374.96) rotate(-28.63)"/><path class="cls-19" d="M729.78,129.86a68.3,68.3,0,0,0,29.31,13.38,52.88,52.88,0,0,0,10.71.85q.54,1,1,2.08a54,54,0,0,1-12-.84c-7.74-1.37-19.16-5-31.19-14.46Q728.71,130.32,729.78,129.86Z"/><path class="cls-19" d="M758.91,155.45a90.78,90.78,0,0,1-40.56-17.23q.92-1.07,1.94-2.06a88,88,0,0,0,38.9,16.49,72.47,72.47,0,0,0,13.79.77q.24,1.4.35,2.81A75.11,75.11,0,0,1,758.91,155.45Z"/><path class="cls-19" d="M715.17,142.63c15.57,12.28,30.62,16.71,40.72,18.24a66.93,66.93,0,0,0,17.41.49,31.51,31.51,0,0,1-1.26,6.47,75,75,0,0,1-16.79-.67c-10.68-1.58-26.46-6.13-42.81-18.65A31.42,31.42,0,0,1,715.17,142.63Z"/><path class="cls-19" d="M710.89,161.69a31.19,31.19,0,0,1-.12-4.08c15.86,12.48,31.22,17,41.52,18.52a71.18,71.18,0,0,0,15.35.68,31,31,0,0,1-2.69,3.3,76.39,76.39,0,0,1-13-.84C741.7,177.76,726.61,173.44,710.89,161.69Z"/><path class="cls-19" d="M744.4,185.14a58.7,58.7,0,0,0,13.67.48l-1,.56a31.55,31.55,0,0,1-3.8,1.76,64.64,64.64,0,0,1-9.11-.69,73.78,73.78,0,0,1-27.34-10,31.56,31.56,0,0,1-2.27-3.57l-.31-.59A72.59,72.59,0,0,0,744.4,185.14Z"/><path class="cls-20" d="M773.3,161.36s9.64,4.82,9.6,10.24-19.62,4.16-42.37-2.72-35.32-14.05-41-22.68c-5.3-8.1,15.6-3.56,15.6-3.56l1.14-1.78s-30.81-10.08-38.63-4.62,15.06,21.64,60.91,36.58c33.4,10.89,69.6,17.71,67,5.83-2.16-9.82-32.16-19.6-32.16-19.6Z"/><path class="cls-21" d="M699.57,146.19c4.69,7.18,14.18,13.35,30.31,19.17.23,1.37.48,3.05.75,4.76-40.5-14.15-60.29-28.75-52.95-33.89,7.81-5.46,38.63,4.62,38.63,4.62l-1.14,1.78S694.27,138.09,699.57,146.19Z"/><polygon class="cls-3" points="628.74 287.4 437.04 287.4 527.39 187.43 628.74 287.4"/><polygon class="cls-2" points="492.5 287.4 437.04 287.4 527.39 187.43 526.83 189.02 492.5 287.4"/><polygon class="cls-3" points="886.82 287.4 695.12 287.4 785.47 187.43 886.82 287.4"/><polygon class="cls-2" points="750.59 287.4 695.12 287.4 785.47 187.43 784.91 189.02 750.59 287.4"/><polygon class="cls-3" points="799.61 287.4 525.47 287.4 654.67 144.43 799.61 287.4"/><polygon class="cls-2" points="604.79 287.4 525.47 287.4 654.67 144.43 653.88 146.71 604.79 287.4"/><rect class="cls-22" x="435.33" y="287.14" width="451.5" height="8.35"/></svg>